<svg width="225" height="122" viewBox="0 0 225 122" fill="none" xmlns="http://www.w3.org/2000/svg">
<path d="M176.094 90.4619C176.094 55.1165 147.441 26.4619 112.094 26.4619C76.7475 26.4619 48.0942 55.1165 48.0942 90.4619C48.0942 94.7872 48.5288 99.0099 49.3462 103.094H174.842C175.659 99.0099 176.094 94.7872 176.094 90.4619Z" fill="#2F4159"/>
<path d="M93.126 46.2223H71.9713V25.8889C83.4713 25.7943 92.586 24.6623 92.586 23.2596C92.586 21.8623 83.4713 20.7303 71.9713 20.6303V17.9996H69.0967V20.6303C57.598 20.7303 48.482 21.8623 48.482 23.2596C48.482 24.6623 57.598 25.7943 69.0967 25.8889V46.2223H50.842C49.782 46.2223 48.922 47.0823 48.922 48.1423V91.5556H77.1553C77.8487 79.2583 84.8913 68.6796 95.046 63.0236V48.1423C95.046 47.0823 94.186 46.2223 93.126 46.2223Z" fill="#1A0824"/>
<path d="M177.7 89.8551L177.713 88.3964C177.724 87.3217 176.854 86.4444 175.778 86.4444H175.348V48.1417C175.348 47.0817 174.488 46.2217 173.428 46.2217H155.173V25.8884C166.673 25.7951 175.788 24.6617 175.788 23.2591C175.788 21.8631 166.673 20.7297 155.173 20.6297V18.0004H152.298V20.6297C140.798 20.7297 131.684 21.8631 131.684 23.2591C131.684 24.6617 140.798 25.7951 152.298 25.8884V46.2217H131.144C130.084 46.2217 129.225 47.0817 129.225 48.1417V63.0231C139.38 68.6791 146.422 79.2591 147.116 91.5551H176.634C177.258 91.2391 177.693 90.6017 177.7 89.8551Z" fill="#1A0824"/>
<path d="M111.685 52.1109C94.8827 52.1109 81.124 65.0856 79.848 81.5549L79.0387 117.983L143.817 117.65L143.523 81.5549C142.247 65.0856 128.483 52.1109 111.685 52.1109Z" fill="#1A0824"/>
<path d="M134.726 1.60774C135.054 3.16907 125.486 6.50107 113.355 9.0504C101.224 11.5984 91.1243 12.3984 90.7963 10.8371C90.4683 9.27574 100.036 5.94374 112.167 3.39574C124.298 0.846403 134.398 0.0464027 134.726 1.60774Z" fill="#1A0824"/>
<path d="M113.428 66.8893H110.761V2.4332e-05H113.428V66.8893Z" fill="#1A0824"/>
<rect y="72" width="225" height="50" rx="25" fill="black"/>
<path d="M21.9422 108V85.3936H30.6346C32.5025 85.3936 34.1476 85.6908 35.5698 86.2851C36.9919 86.8795 38.1806 87.6861 39.1358 88.705C40.091 89.7238 40.8127 90.9231 41.301 92.3029C41.7892 93.6614 42.0333 95.1154 42.0333 96.665C42.0333 98.3843 41.7573 99.9445 41.2054 101.345C40.6748 102.725 39.9106 103.914 38.913 104.912C37.9153 105.888 36.716 106.652 35.315 107.204C33.9141 107.735 32.3539 108 30.6346 108H21.9422ZM35.729 96.665C35.729 95.7947 35.6122 94.9987 35.3787 94.277C35.1452 93.5553 34.8056 92.9397 34.3598 92.4302C33.9353 91.9208 33.4046 91.5281 32.7678 91.2522C32.131 90.955 31.4199 90.8064 30.6346 90.8064H28.151V102.587H30.6346C31.4412 102.587 32.1629 102.439 32.7997 102.141C33.4365 101.844 33.9671 101.43 34.3917 100.9C34.8374 100.369 35.1665 99.7428 35.3787 99.0211C35.6122 98.2994 35.729 97.514 35.729 96.665ZM44.734 108V85.3936H55.1138C56.2176 85.3936 57.2365 85.6271 58.1704 86.0941C59.1044 86.5398 59.9004 87.1342 60.5584 87.8771C61.2377 88.5988 61.7684 89.4373 62.1504 90.3925C62.5325 91.3265 62.7236 92.271 62.7236 93.2262C62.7236 94.5423 62.437 95.7734 61.8639 96.9197C61.2908 98.0447 60.4948 98.9681 59.4759 99.6898L64.2519 108H57.2471L53.2671 101.059H50.9428V108H44.734ZM50.9428 95.6461H54.8591C55.2412 95.6461 55.5914 95.4338 55.9098 95.0093C56.2494 94.5847 56.4192 93.9904 56.4192 93.2262C56.4192 92.4409 56.2282 91.8465 55.8461 91.4432C55.464 91.0187 55.082 90.8064 54.6999 90.8064H50.9428V95.6461ZM75.9036 102.683C76.6253 102.683 77.2409 102.524 77.7503 102.205C78.2597 101.887 78.6737 101.473 78.9921 100.963C79.3105 100.433 79.544 99.8277 79.6925 99.1485C79.8411 98.4692 79.9154 97.7581 79.9154 97.0152V85.3936H86.1242V97.0152C86.1242 98.586 85.9226 100.061 85.5193 101.441C85.116 102.799 84.4898 103.978 83.6407 104.975C82.7916 105.973 81.7197 106.758 80.4249 107.331C79.1513 107.904 77.6442 108.191 75.9036 108.191C74.0993 108.191 72.5498 107.894 71.2549 107.3C69.9813 106.684 68.9306 105.867 68.1028 104.848C67.2749 103.829 66.67 102.651 66.2879 101.314C65.9058 99.9551 65.7148 98.5223 65.7148 97.0152V85.3936H71.9236V97.0152C71.9236 97.7581 71.9979 98.4798 72.1465 99.1803C72.295 99.8596 72.5285 100.465 72.8469 100.995C73.1653 101.505 73.5686 101.919 74.0569 102.237C74.5663 102.534 75.1819 102.683 75.9036 102.683ZM106.794 108V96.0918L103.005 104.466H99.6933L95.9043 96.0918V108H89.6955V85.3936H96.4774L101.349 96.0282L106.252 85.3936H113.002V108H106.794Z" fill="white"/>
<path d="M116.871 108V85.3936H127.251C128.355 85.3936 129.374 85.6271 130.308 86.0941C131.242 86.5398 132.038 87.1342 132.696 87.8771C133.375 88.5988 133.906 89.4373 134.288 90.3925C134.67 91.3265 134.861 92.271 134.861 93.2262C134.861 94.5423 134.575 95.7734 134.001 96.9197C133.428 98.0447 132.632 98.9681 131.613 99.6898L136.389 108H129.385L125.405 101.059H123.08V108H116.871ZM123.08 95.6461H126.997C127.379 95.6461 127.729 95.4338 128.047 95.0093C128.387 94.5847 128.557 93.9904 128.557 93.2262C128.557 92.4409 128.366 91.8465 127.984 91.4432C127.602 91.0187 127.219 90.8064 126.837 90.8064H123.08V95.6461ZM148.266 108.191C146.547 108.191 144.987 107.862 143.586 107.204C142.185 106.546 140.985 105.686 139.988 104.625C138.99 103.542 138.215 102.311 137.663 100.932C137.112 99.5518 136.836 98.1296 136.836 96.665C136.836 95.1791 137.122 93.7463 137.695 92.3666C138.268 90.9868 139.064 89.7769 140.083 88.7368C141.123 87.6755 142.344 86.837 143.745 86.2214C145.167 85.5846 146.717 85.2662 148.394 85.2662C150.113 85.2662 151.673 85.5953 153.074 86.2533C154.475 86.9113 155.674 87.7816 156.672 88.8642C157.67 89.9467 158.434 91.1779 158.964 92.5576C159.516 93.9373 159.792 95.3489 159.792 96.7923C159.792 98.2782 159.506 99.711 158.933 101.091C158.359 102.449 157.563 103.659 156.545 104.72C155.526 105.761 154.305 106.599 152.883 107.236C151.482 107.873 149.943 108.191 148.266 108.191ZM143.14 96.7286C143.14 97.4928 143.246 98.2357 143.458 98.9574C143.671 99.6579 143.989 100.284 144.414 100.836C144.838 101.388 145.369 101.834 146.006 102.173C146.664 102.513 147.438 102.683 148.33 102.683C149.221 102.683 149.996 102.513 150.654 102.173C151.312 101.812 151.843 101.356 152.246 100.804C152.671 100.231 152.979 99.5836 153.17 98.8619C153.382 98.1402 153.488 97.4079 153.488 96.665C153.488 95.9008 153.382 95.1685 153.17 94.468C152.957 93.7463 152.628 93.1201 152.183 92.5894C151.758 92.0375 151.217 91.6024 150.559 91.284C149.922 90.9444 149.168 90.7746 148.298 90.7746C147.407 90.7746 146.632 90.9444 145.974 91.284C145.337 91.6236 144.806 92.08 144.382 92.6531C143.957 93.205 143.639 93.8418 143.427 94.5635C143.235 95.264 143.14 95.9857 143.14 96.7286ZM172.613 108.191C170.893 108.191 169.333 107.862 167.932 107.204C166.531 106.546 165.332 105.686 164.334 104.625C163.337 103.542 162.562 102.311 162.01 100.932C161.458 99.5518 161.182 98.1296 161.182 96.665C161.182 95.1791 161.469 93.7463 162.042 92.3666C162.615 90.9868 163.411 89.7769 164.43 88.7368C165.47 87.6755 166.69 86.837 168.091 86.2214C169.514 85.5846 171.063 85.2662 172.74 85.2662C174.459 85.2662 176.019 85.5953 177.42 86.2533C178.821 86.9113 180.021 87.7816 181.018 88.8642C182.016 89.9467 182.78 91.1779 183.311 92.5576C183.863 93.9373 184.139 95.3489 184.139 96.7923C184.139 98.2782 183.852 99.711 183.279 101.091C182.706 102.449 181.91 103.659 180.891 104.72C179.872 105.761 178.652 106.599 177.229 107.236C175.828 107.873 174.29 108.191 172.613 108.191ZM167.486 96.7286C167.486 97.4928 167.593 98.2357 167.805 98.9574C168.017 99.6579 168.335 100.284 168.76 100.836C169.185 101.388 169.715 101.834 170.352 102.173C171.01 102.513 171.785 102.683 172.676 102.683C173.568 102.683 174.343 102.513 175.001 102.173C175.659 101.812 176.189 101.356 176.593 100.804C177.017 100.231 177.325 99.5836 177.516 98.8619C177.728 98.1402 177.834 97.4079 177.834 96.665C177.834 95.9008 177.728 95.1685 177.516 94.468C177.304 93.7463 176.975 93.1201 176.529 92.5894C176.104 92.0375 175.563 91.6024 174.905 91.284C174.268 90.9444 173.515 90.7746 172.644 90.7746C171.753 90.7746 170.978 90.9444 170.32 91.284C169.683 91.6236 169.153 92.08 168.728 92.6531C168.304 93.205 167.985 93.8418 167.773 94.5635C167.582 95.264 167.486 95.9857 167.486 96.7286ZM204.036 90.8064H197.54V108H191.332V90.8064H184.804V85.3936H204.036V90.8064Z" fill="#F77B12"/>
</svg>
