<svg width="225" height="50" viewBox="0 0 225 50" fill="none" xmlns="http://www.w3.org/2000/svg">
<rect width="225" height="50" rx="25" fill="black"/>
<path d="M21.9422 36V13.3936H30.6346C32.5025 13.3936 34.1476 13.6908 35.5698 14.2851C36.9919 14.8795 38.1806 15.6861 39.1358 16.705C40.091 17.7238 40.8127 18.9231 41.301 20.3029C41.7892 21.6614 42.0333 23.1154 42.0333 24.665C42.0333 26.3843 41.7573 27.9445 41.2054 29.3454C40.6748 30.7252 39.9106 31.9139 38.913 32.9115C37.9153 33.8879 36.716 34.6521 35.315 35.204C33.9141 35.7347 32.3539 36 30.6346 36H21.9422ZM35.729 24.665C35.729 23.7947 35.6122 22.9987 35.3787 22.277C35.1452 21.5553 34.8056 20.9397 34.3598 20.4302C33.9353 19.9208 33.4046 19.5281 32.7678 19.2522C32.131 18.955 31.4199 18.8064 30.6346 18.8064H28.151V30.5872H30.6346C31.4412 30.5872 32.1629 30.4386 32.7997 30.1414C33.4365 29.8443 33.9671 29.4303 34.3917 28.8997C34.8374 28.369 35.1665 27.7428 35.3787 27.0211C35.6122 26.2994 35.729 25.514 35.729 24.665ZM44.734 36V13.3936H55.1138C56.2176 13.3936 57.2365 13.6271 58.1704 14.0941C59.1044 14.5398 59.9004 15.1342 60.5584 15.8771C61.2377 16.5988 61.7684 17.4373 62.1504 18.3925C62.5325 19.3265 62.7236 20.271 62.7236 21.2262C62.7236 22.5423 62.437 23.7734 61.8639 24.9197C61.2908 26.0447 60.4948 26.9681 59.4759 27.6898L64.2519 36H57.2471L53.2671 29.0589H50.9428V36H44.734ZM50.9428 23.6461H54.8591C55.2412 23.6461 55.5914 23.4338 55.9098 23.0093C56.2494 22.5847 56.4192 21.9904 56.4192 21.2262C56.4192 20.4409 56.2282 19.8465 55.8461 19.4432C55.464 19.0187 55.082 18.8064 54.6999 18.8064H50.9428V23.6461ZM75.9036 30.6827C76.6253 30.6827 77.2409 30.5235 77.7503 30.2051C78.2597 29.8867 78.6737 29.4728 78.9921 28.9634C79.3105 28.4327 79.544 27.8277 79.6925 27.1485C79.8411 26.4692 79.9154 25.7581 79.9154 25.0152V13.3936H86.1242V25.0152C86.1242 26.586 85.9226 28.0612 85.5193 29.441C85.116 30.7995 84.4898 31.9775 83.6407 32.9752C82.7916 33.9729 81.7197 34.7582 80.4249 35.3314C79.1513 35.9045 77.6442 36.191 75.9036 36.191C74.0993 36.191 72.5498 35.8939 71.2549 35.2995C69.9813 34.6839 68.9306 33.8667 68.1028 32.8478C67.2749 31.829 66.67 30.6509 66.2879 29.3136C65.9058 27.9551 65.7148 26.5223 65.7148 25.0152V13.3936H71.9236V25.0152C71.9236 25.7581 71.9979 26.4798 72.1465 27.1803C72.295 27.8596 72.5285 28.4645 72.8469 28.9952C73.1653 29.5046 73.5686 29.9186 74.0569 30.237C74.5663 30.5341 75.1819 30.6827 75.9036 30.6827ZM106.794 36V24.0918L103.005 32.4658H99.6933L95.9043 24.0918V36H89.6955V13.3936H96.4774L101.349 24.0282L106.252 13.3936H113.002V36H106.794Z" fill="white"/>
<path d="M116.871 36V13.3936H127.251C128.355 13.3936 129.374 13.6271 130.308 14.0941C131.242 14.5398 132.038 15.1342 132.696 15.8771C133.375 16.5988 133.906 17.4373 134.288 18.3925C134.67 19.3265 134.861 20.271 134.861 21.2262C134.861 22.5423 134.575 23.7734 134.001 24.9197C133.428 26.0447 132.632 26.9681 131.613 27.6898L136.389 36H129.385L125.405 29.0589H123.08V36H116.871ZM123.08 23.6461H126.997C127.379 23.6461 127.729 23.4338 128.047 23.0093C128.387 22.5847 128.557 21.9904 128.557 21.2262C128.557 20.4409 128.366 19.8465 127.984 19.4432C127.602 19.0187 127.219 18.8064 126.837 18.8064H123.08V23.6461ZM148.266 36.191C146.547 36.191 144.987 35.862 143.586 35.204C142.185 34.546 140.985 33.6863 139.988 32.625C138.99 31.5424 138.215 30.3113 137.663 28.9315C137.112 27.5518 136.836 26.1296 136.836 24.665C136.836 23.1791 137.122 21.7463 137.695 20.3666C138.268 18.9868 139.064 17.7769 140.083 16.7368C141.123 15.6755 142.344 14.837 143.745 14.2214C145.167 13.5846 146.717 13.2662 148.394 13.2662C150.113 13.2662 151.673 13.5953 153.074 14.2533C154.475 14.9113 155.674 15.7816 156.672 16.8642C157.67 17.9467 158.434 19.1779 158.964 20.5576C159.516 21.9373 159.792 23.3489 159.792 24.7923C159.792 26.2782 159.506 27.711 158.933 29.0907C158.359 30.4492 157.563 31.6591 156.545 32.7205C155.526 33.7606 154.305 34.599 152.883 35.2358C151.482 35.8726 149.943 36.191 148.266 36.191ZM143.14 24.7286C143.14 25.4928 143.246 26.2357 143.458 26.9574C143.671 27.6579 143.989 28.2841 144.414 28.836C144.838 29.3879 145.369 29.8337 146.006 30.1733C146.664 30.5129 147.438 30.6827 148.33 30.6827C149.221 30.6827 149.996 30.5129 150.654 30.1733C151.312 29.8124 151.843 29.3561 152.246 28.8042C152.671 28.231 152.979 27.5836 153.17 26.8619C153.382 26.1402 153.488 25.4079 153.488 24.665C153.488 23.9008 153.382 23.1685 153.17 22.468C152.957 21.7463 152.628 21.1201 152.183 20.5894C151.758 20.0375 151.217 19.6024 150.559 19.284C149.922 18.9444 149.168 18.7746 148.298 18.7746C147.407 18.7746 146.632 18.9444 145.974 19.284C145.337 19.6236 144.806 20.08 144.382 20.6531C143.957 21.205 143.639 21.8418 143.427 22.5635C143.235 23.264 143.14 23.9857 143.14 24.7286ZM172.613 36.191C170.893 36.191 169.333 35.862 167.932 35.204C166.531 34.546 165.332 33.6863 164.334 32.625C163.337 31.5424 162.562 30.3113 162.01 28.9315C161.458 27.5518 161.182 26.1296 161.182 24.665C161.182 23.1791 161.469 21.7463 162.042 20.3666C162.615 18.9868 163.411 17.7769 164.43 16.7368C165.47 15.6755 166.69 14.837 168.091 14.2214C169.514 13.5846 171.063 13.2662 172.74 13.2662C174.459 13.2662 176.019 13.5953 177.42 14.2533C178.821 14.9113 180.021 15.7816 181.018 16.8642C182.016 17.9467 182.78 19.1779 183.311 20.5576C183.863 21.9373 184.139 23.3489 184.139 24.7923C184.139 26.2782 183.852 27.711 183.279 29.0907C182.706 30.4492 181.91 31.6591 180.891 32.7205C179.872 33.7606 178.652 34.599 177.229 35.2358C175.828 35.8726 174.29 36.191 172.613 36.191ZM167.486 24.7286C167.486 25.4928 167.593 26.2357 167.805 26.9574C168.017 27.6579 168.335 28.2841 168.76 28.836C169.185 29.3879 169.715 29.8337 170.352 30.1733C171.01 30.5129 171.785 30.6827 172.676 30.6827C173.568 30.6827 174.343 30.5129 175.001 30.1733C175.659 29.8124 176.189 29.3561 176.593 28.8042C177.017 28.231 177.325 27.5836 177.516 26.8619C177.728 26.1402 177.834 25.4079 177.834 24.665C177.834 23.9008 177.728 23.1685 177.516 22.468C177.304 21.7463 176.975 21.1201 176.529 20.5894C176.104 20.0375 175.563 19.6024 174.905 19.284C174.268 18.9444 173.515 18.7746 172.644 18.7746C171.753 18.7746 170.978 18.9444 170.32 19.284C169.683 19.6236 169.153 20.08 168.728 20.6531C168.304 21.205 167.985 21.8418 167.773 22.5635C167.582 23.264 167.486 23.9857 167.486 24.7286ZM204.036 18.8064H197.54V36H191.332V18.8064H184.804V13.3936H204.036V18.8064Z" fill="#F77B12"/>
</svg>
