<svg width="196" height="37" viewBox="0 0 196 37" fill="none" xmlns="http://www.w3.org/2000/svg">
<path d="M6.94224 30V7.3936H15.6346C17.5025 7.3936 19.1476 7.69077 20.5698 8.28512C21.9919 8.87947 23.1806 9.68608 24.1358 10.705C25.091 11.7238 25.8127 12.9231 26.301 14.3029C26.7892 15.6614 27.0333 17.1154 27.0333 18.665C27.0333 20.3843 26.7573 21.9445 26.2054 23.3454C25.6748 24.7252 24.9106 25.9139 23.913 26.9115C22.9153 27.8879 21.716 28.6521 20.315 29.204C18.9141 29.7347 17.3539 30 15.6346 30H6.94224ZM20.729 18.665C20.729 17.7947 20.6122 16.9987 20.3787 16.277C20.1452 15.5553 19.8056 14.9397 19.3598 14.4302C18.9353 13.9208 18.4046 13.5281 17.7678 13.2522C17.131 12.955 16.4199 12.8064 15.6346 12.8064H13.151V24.5872H15.6346C16.4412 24.5872 17.1629 24.4386 17.7997 24.1414C18.4365 23.8443 18.9671 23.4303 19.3917 22.8997C19.8374 22.369 20.1665 21.7428 20.3787 21.0211C20.6122 20.2994 20.729 19.514 20.729 18.665ZM29.734 30V7.3936H40.1138C41.2176 7.3936 42.2365 7.62709 43.1704 8.09408C44.1044 8.53984 44.9004 9.13419 45.5584 9.87712C46.2377 10.5988 46.7684 11.4373 47.1504 12.3925C47.5325 13.3265 47.7236 14.271 47.7236 15.2262C47.7236 16.5423 47.437 17.7734 46.8639 18.9197C46.2908 20.0447 45.4948 20.9681 44.4759 21.6898L49.2519 30H42.2471L38.2671 23.0589H35.9428V30H29.734ZM35.9428 17.6461H39.8591C40.2412 17.6461 40.5914 17.4338 40.9098 17.0093C41.2494 16.5847 41.4192 15.9904 41.4192 15.2262C41.4192 14.4409 41.2282 13.8465 40.8461 13.4432C40.464 13.0187 40.082 12.8064 39.6999 12.8064H35.9428V17.6461ZM60.9036 24.6827C61.6253 24.6827 62.2409 24.5235 62.7503 24.2051C63.2597 23.8867 63.6737 23.4728 63.9921 22.9634C64.3105 22.4327 64.544 21.8277 64.6925 21.1485C64.8411 20.4692 64.9154 19.7581 64.9154 19.0152V7.3936H71.1242V19.0152C71.1242 20.586 70.9226 22.0612 70.5193 23.441C70.116 24.7995 69.4898 25.9775 68.6407 26.9752C67.7916 27.9729 66.7197 28.7582 65.4249 29.3314C64.1513 29.9045 62.6442 30.191 60.9036 30.191C59.0993 30.191 57.5498 29.8939 56.2549 29.2995C54.9813 28.6839 53.9306 27.8667 53.1028 26.8478C52.2749 25.829 51.67 24.6509 51.2879 23.3136C50.9058 21.9551 50.7148 20.5223 50.7148 19.0152V7.3936H56.9236V19.0152C56.9236 19.7581 56.9979 20.4798 57.1465 21.1803C57.295 21.8596 57.5285 22.4645 57.8469 22.9952C58.1653 23.5046 58.5686 23.9186 59.0569 24.237C59.5663 24.5341 60.1819 24.6827 60.9036 24.6827ZM91.7936 30V18.0918L88.0046 26.4658H84.6933L80.9043 18.0918V30H74.6955V7.3936H81.4774L86.349 18.0282L91.2523 7.3936H98.0024V30H91.7936Z" fill="white"/>
<path d="M101.871 30V7.3936H112.251C113.355 7.3936 114.374 7.62709 115.308 8.09408C116.242 8.53984 117.038 9.13419 117.696 9.87712C118.375 10.5988 118.906 11.4373 119.288 12.3925C119.67 13.3265 119.861 14.271 119.861 15.2262C119.861 16.5423 119.575 17.7734 119.001 18.9197C118.428 20.0447 117.632 20.9681 116.613 21.6898L121.389 30H114.385L110.405 23.0589H108.08V30H101.871ZM108.08 17.6461H111.997C112.379 17.6461 112.729 17.4338 113.047 17.0093C113.387 16.5847 113.557 15.9904 113.557 15.2262C113.557 14.4409 113.366 13.8465 112.984 13.4432C112.602 13.0187 112.219 12.8064 111.837 12.8064H108.08V17.6461ZM133.266 30.191C131.547 30.191 129.987 29.862 128.586 29.204C127.185 28.546 125.985 27.6863 124.988 26.625C123.99 25.5424 123.215 24.3113 122.663 22.9315C122.112 21.5518 121.836 20.1296 121.836 18.665C121.836 17.1791 122.122 15.7463 122.695 14.3666C123.268 12.9868 124.064 11.7769 125.083 10.7368C126.123 9.67547 127.344 8.83701 128.745 8.22144C130.167 7.58464 131.717 7.26624 133.394 7.26624C135.113 7.26624 136.673 7.59525 138.074 8.25328C139.475 8.91131 140.674 9.7816 141.672 10.8642C142.67 11.9467 143.434 13.1779 143.964 14.5576C144.516 15.9373 144.792 17.3489 144.792 18.7923C144.792 20.2782 144.506 21.711 143.933 23.0907C143.359 24.4492 142.563 25.6591 141.545 26.7205C140.526 27.7606 139.305 28.599 137.883 29.2358C136.482 29.8726 134.943 30.191 133.266 30.191ZM128.14 18.7286C128.14 19.4928 128.246 20.2357 128.458 20.9574C128.671 21.6579 128.989 22.2841 129.414 22.836C129.838 23.3879 130.369 23.8337 131.006 24.1733C131.664 24.5129 132.438 24.6827 133.33 24.6827C134.221 24.6827 134.996 24.5129 135.654 24.1733C136.312 23.8124 136.843 23.3561 137.246 22.8042C137.671 22.231 137.979 21.5836 138.17 20.8619C138.382 20.1402 138.488 19.4079 138.488 18.665C138.488 17.9008 138.382 17.1685 138.17 16.468C137.957 15.7463 137.628 15.1201 137.183 14.5894C136.758 14.0375 136.217 13.6024 135.559 13.284C134.922 12.9444 134.168 12.7746 133.298 12.7746C132.407 12.7746 131.632 12.9444 130.974 13.284C130.337 13.6236 129.806 14.08 129.382 14.6531C128.957 15.205 128.639 15.8418 128.427 16.5635C128.235 17.264 128.14 17.9857 128.14 18.7286ZM157.613 30.191C155.893 30.191 154.333 29.862 152.932 29.204C151.531 28.546 150.332 27.6863 149.334 26.625C148.337 25.5424 147.562 24.3113 147.01 22.9315C146.458 21.5518 146.182 20.1296 146.182 18.665C146.182 17.1791 146.469 15.7463 147.042 14.3666C147.615 12.9868 148.411 11.7769 149.43 10.7368C150.47 9.67547 151.69 8.83701 153.091 8.22144C154.514 7.58464 156.063 7.26624 157.74 7.26624C159.459 7.26624 161.019 7.59525 162.42 8.25328C163.821 8.91131 165.021 9.7816 166.018 10.8642C167.016 11.9467 167.78 13.1779 168.311 14.5576C168.863 15.9373 169.139 17.3489 169.139 18.7923C169.139 20.2782 168.852 21.711 168.279 23.0907C167.706 24.4492 166.91 25.6591 165.891 26.7205C164.872 27.7606 163.652 28.599 162.229 29.2358C160.828 29.8726 159.29 30.191 157.613 30.191ZM152.486 18.7286C152.486 19.4928 152.593 20.2357 152.805 20.9574C153.017 21.6579 153.335 22.2841 153.76 22.836C154.185 23.3879 154.715 23.8337 155.352 24.1733C156.01 24.5129 156.785 24.6827 157.676 24.6827C158.568 24.6827 159.343 24.5129 160.001 24.1733C160.659 23.8124 161.189 23.3561 161.593 22.8042C162.017 22.231 162.325 21.5836 162.516 20.8619C162.728 20.1402 162.834 19.4079 162.834 18.665C162.834 17.9008 162.728 17.1685 162.516 16.468C162.304 15.7463 161.975 15.1201 161.529 14.5894C161.104 14.0375 160.563 13.6024 159.905 13.284C159.268 12.9444 158.515 12.7746 157.644 12.7746C156.753 12.7746 155.978 12.9444 155.32 13.284C154.683 13.6236 154.153 14.08 153.728 14.6531C153.304 15.205 152.985 15.8418 152.773 16.5635C152.582 17.264 152.486 17.9857 152.486 18.7286ZM189.036 12.8064H182.54V30H176.332V12.8064H169.804V7.3936H189.036V12.8064Z" fill="#F77B12"/>
<path d="M6.94224 30H0.94224V36H6.94224V30ZM6.94224 7.3936V1.3936H0.94224V7.3936H6.94224ZM20.5698 8.28512L18.2562 13.8211L18.2562 13.8211L20.5698 8.28512ZM24.1358 10.705L19.7586 14.8086L19.7586 14.8086L24.1358 10.705ZM26.301 14.3029L20.6446 16.3044L20.6495 16.3182L20.6545 16.3321L26.301 14.3029ZM26.2054 23.3454L20.623 21.1463L20.6141 21.1689L20.6054 21.1916L26.2054 23.3454ZM23.913 26.9115L28.1097 31.1995L28.1328 31.177L28.1556 31.1542L23.913 26.9115ZM20.315 29.204L22.4404 34.815L22.4774 34.8009L22.5142 34.7865L20.315 29.204ZM20.3787 16.277L14.6701 18.1239L14.6701 18.1239L20.3787 16.277ZM19.3598 14.4302L14.7505 18.2713L14.7968 18.3269L14.8444 18.3813L19.3598 14.4302ZM17.7678 13.2522L15.2305 18.6893L15.3059 18.7244L15.3822 18.7575L17.7678 13.2522ZM13.151 12.8064V6.8064H7.15104V12.8064H13.151ZM13.151 24.5872H7.15104V30.5872H13.151V24.5872ZM17.7997 24.1414L15.2624 18.7043L15.2624 18.7043L17.7997 24.1414ZM19.3917 22.8997L14.7975 19.0405L14.7513 19.0955L14.7065 19.1515L19.3917 22.8997ZM20.3787 21.0211L14.6701 19.1742L14.6453 19.2508L14.6225 19.3281L20.3787 21.0211ZM12.9422 30V7.3936H0.94224V30H12.9422ZM6.94224 13.3936H15.6346V1.3936H6.94224V13.3936ZM15.6346 13.3936C16.8724 13.3936 17.7046 13.5906 18.2562 13.8211L22.8833 2.7491C20.5906 1.79095 18.1326 1.3936 15.6346 1.3936V13.3936ZM18.2562 13.8211C18.9787 14.1231 19.4401 14.4689 19.7586 14.8086L28.5131 6.60132C26.9212 4.9033 25.0052 3.63585 22.8833 2.7491L18.2562 13.8211ZM19.7586 14.8086C20.1197 15.1938 20.4194 15.668 20.6446 16.3044L31.9573 12.3014C31.2061 10.1783 30.0624 8.25392 28.5131 6.60131L19.7586 14.8086ZM20.6545 16.3321C20.8921 16.9933 21.0333 17.7562 21.0333 18.665H33.0333C33.0333 16.4747 32.6862 14.3295 31.9474 12.2737L20.6545 16.3321ZM21.0333 18.665C21.0333 19.7374 20.8627 20.5378 20.623 21.1463L31.7879 25.5446C32.652 23.3511 33.0333 21.0313 33.0333 18.665H21.0333ZM20.6054 21.1916C20.3614 21.826 20.0461 22.2931 19.6703 22.6689L28.1556 31.1542C29.7752 29.5346 30.9882 27.6244 31.8055 25.4993L20.6054 21.1916ZM19.7162 22.6235C19.3351 22.9965 18.8305 23.3401 18.1159 23.6215L22.5142 34.7865C24.6015 33.9642 26.4955 32.7794 28.1097 31.1995L19.7162 22.6235ZM18.1897 23.593C17.5602 23.8315 16.7337 24 15.6346 24V36C17.9742 36 20.2679 35.6379 22.4404 34.815L18.1897 23.593ZM15.6346 24H6.94224V36H15.6346V24ZM26.729 18.665C26.729 17.2582 26.54 15.8289 26.0874 14.43L14.6701 18.1239C14.6845 18.1684 14.729 18.3311 14.729 18.665H26.729ZM26.0874 14.43C25.6334 13.0267 24.9187 11.6716 23.8753 10.4792L14.8444 18.3813C14.7736 18.3003 14.7252 18.2264 14.6954 18.1725C14.6664 18.1199 14.662 18.0989 14.6701 18.1239L26.0874 14.43ZM23.9692 10.5891C22.9156 9.32486 21.6102 8.37806 20.1535 7.74683L15.3822 18.7575C15.3029 18.7231 15.1946 18.6656 15.0744 18.5767C14.9533 18.4871 14.8432 18.3826 14.7505 18.2713L23.9692 10.5891ZM20.3052 7.81506C18.7849 7.10561 17.1929 6.8064 15.6346 6.8064V18.8064C15.6479 18.8064 15.6089 18.8075 15.5297 18.791C15.4485 18.774 15.3445 18.7424 15.2305 18.6893L20.3052 7.81506ZM15.6346 6.8064H13.151V18.8064H15.6346V6.8064ZM7.15104 12.8064V24.5872H19.151V12.8064H7.15104ZM13.151 30.5872H15.6346V18.5872H13.151V30.5872ZM15.6346 30.5872C17.1885 30.5872 18.7962 30.2976 20.337 29.5785L15.2624 18.7043C15.3878 18.6458 15.4958 18.6145 15.5709 18.599C15.6436 18.5841 15.6693 18.5872 15.6346 18.5872V30.5872ZM20.337 29.5785C21.7807 28.9048 23.0559 27.9241 24.0769 26.6479L14.7065 19.1515C14.7835 19.0552 14.878 18.9607 14.9851 18.8771C15.0916 18.794 15.1892 18.7385 15.2624 18.7043L20.337 29.5785ZM23.9859 26.7588C25.0085 25.5415 25.7092 24.1617 26.1349 22.7141L14.6225 19.3281C14.621 19.3332 14.6305 19.2999 14.6613 19.2413C14.6927 19.1815 14.738 19.1113 14.7975 19.0405L23.9859 26.7588ZM26.0874 22.868C26.5354 21.4832 26.729 20.0671 26.729 18.665H14.729C14.729 18.9609 14.689 19.1156 14.6701 19.1742L26.0874 22.868ZM29.734 30H23.734V36H29.734V30ZM29.734 7.3936V1.3936H23.734V7.3936H29.734ZM43.1704 8.09408L40.4872 13.4606L40.5364 13.4853L40.5861 13.509L43.1704 8.09408ZM45.5584 9.87712L41.0669 13.8553L41.1271 13.9232L41.1892 13.9893L45.5584 9.87712ZM47.1504 12.3925L41.5796 14.6208L41.5883 14.6426L41.5972 14.6643L47.1504 12.3925ZM46.8639 18.9197L52.2101 21.6432L52.2204 21.6231L52.2304 21.603L46.8639 18.9197ZM44.4759 21.6898L41.0078 16.7936L36.5546 19.948L39.2738 24.6795L44.4759 21.6898ZM49.2519 30V36H59.6205L54.454 27.0103L49.2519 30ZM42.2471 30L37.042 32.9845L38.7711 36H42.2471V30ZM38.2671 23.0589L43.4721 20.0743L41.7431 17.0589H38.2671V23.0589ZM35.9428 23.0589V17.0589H29.9428V23.0589H35.9428ZM35.9428 30V36H41.9428V30H35.9428ZM35.9428 17.6461H29.9428V23.6461H35.9428V17.6461ZM40.9098 17.0093L36.2246 13.2611L36.166 13.3343L36.1098 13.4093L40.9098 17.0093ZM40.8461 13.4432L36.3864 17.457L36.4377 17.514L36.4904 17.5697L40.8461 13.4432ZM35.9428 12.8064V6.8064H29.9428V12.8064H35.9428ZM35.734 30V7.3936H23.734V30H35.734ZM29.734 13.3936H40.1138V1.3936H29.734V13.3936ZM40.1138 13.3936C40.3407 13.3936 40.4338 13.434 40.4872 13.4606L45.8537 2.72752C44.0392 1.82023 42.0945 1.3936 40.1138 1.3936V13.3936ZM40.5861 13.509C40.8261 13.6235 40.9647 13.7399 41.0669 13.8553L50.05 5.89891C48.8361 4.52844 47.3827 3.45613 45.7548 2.67919L40.5861 13.509ZM41.1892 13.9893C41.334 14.1431 41.4658 14.3363 41.5796 14.6208L52.7213 10.1641C52.071 8.53827 51.1414 7.05458 49.9276 5.76493L41.1892 13.9893ZM41.5972 14.6643C41.7011 14.9184 41.7236 15.0935 41.7236 15.2262H53.7236C53.7236 13.4486 53.3639 11.7345 52.7037 10.1207L41.5972 14.6643ZM41.7236 15.2262C41.7236 15.6368 41.6424 15.9462 41.4973 16.2364L52.2304 21.603C53.2316 19.6007 53.7236 17.4478 53.7236 15.2262H41.7236ZM41.5176 16.1961C41.3803 16.4657 41.2248 16.6399 41.0078 16.7936L47.944 26.5859C49.7648 25.2962 51.2012 23.6237 52.2101 21.6432L41.5176 16.1961ZM39.2738 24.6795L44.0498 32.9897L54.454 27.0103L49.678 18.7001L39.2738 24.6795ZM49.2519 24H42.2471V36H49.2519V24ZM47.4521 27.0155L43.4721 20.0743L33.062 26.0434L37.042 32.9845L47.4521 27.0155ZM38.2671 17.0589H35.9428V29.0589H38.2671V17.0589ZM29.9428 23.0589V30H41.9428V23.0589H29.9428ZM35.9428 24H29.734V36H35.9428V24ZM35.9428 23.6461H39.8591V11.6461H35.9428V23.6461ZM39.8591 23.6461C42.7964 23.6461 44.729 21.917 45.7098 20.6093L36.1098 13.4093C36.2812 13.1808 36.655 12.7457 37.2985 12.3557C37.9911 11.9359 38.8745 11.6461 39.8591 11.6461V23.6461ZM45.595 20.7574C47.0721 18.9111 47.4192 16.8102 47.4192 15.2262H35.4192C35.4192 15.1706 35.4268 14.2584 36.2246 13.2611L45.595 20.7574ZM47.4192 15.2262C47.4192 13.5427 47.0088 11.224 45.2018 9.31673L36.4904 17.5697C35.4476 16.469 35.4192 15.339 35.4192 15.2262H47.4192ZM45.3059 9.42941C44.3525 8.37008 42.4772 6.8064 39.6999 6.8064V18.8064C37.6867 18.8064 36.5756 17.6673 36.3864 17.457L45.3059 9.42941ZM39.6999 6.8064H35.9428V18.8064H39.6999V6.8064ZM29.9428 12.8064V17.6461H41.9428V12.8064H29.9428ZM63.9921 22.9634L69.08 26.1434L69.109 26.0971L69.137 26.0503L63.9921 22.9634ZM64.6925 21.1485L58.8311 19.8663L58.8311 19.8663L64.6925 21.1485ZM64.9154 7.3936V1.3936H58.9154V7.3936H64.9154ZM71.1242 7.3936H77.1242V1.3936H71.1242V7.3936ZM70.5193 23.441L76.2711 25.1485L76.2747 25.1365L76.2783 25.1244L70.5193 23.441ZM68.6407 26.9752L64.0715 23.0865L64.0715 23.0865L68.6407 26.9752ZM65.4249 29.3314L62.9964 23.8448L62.9795 23.8523L62.9627 23.8598L65.4249 29.3314ZM56.2549 29.2995L53.6439 34.7016L53.6977 34.7276L53.7519 34.7525L56.2549 29.2995ZM53.1028 26.8478L57.7595 23.0643L57.7595 23.0643L53.1028 26.8478ZM51.2879 23.3136L45.512 24.9381L45.5153 24.95L45.5188 24.9619L51.2879 23.3136ZM50.7148 7.3936V1.3936H44.7148V7.3936H50.7148ZM56.9236 7.3936H62.9236V1.3936H56.9236V7.3936ZM57.1465 21.1803L51.2771 22.4253L51.281 22.4439L51.2851 22.4625L57.1465 21.1803ZM57.8469 22.9952L52.702 26.0822L52.73 26.1289L52.759 26.1752L57.8469 22.9952ZM59.0569 24.237L55.7793 29.2626L55.9045 29.3443L56.0336 29.4196L59.0569 24.237ZM60.9036 30.6827C62.5216 30.6827 64.2907 30.3179 65.9303 29.2931L59.5703 19.1171C60.191 18.7292 60.729 18.6827 60.9036 18.6827V30.6827ZM65.9303 29.2931C67.2123 28.4918 68.2788 27.4254 69.08 26.1434L58.9041 19.7834C59.0686 19.5202 59.3071 19.2816 59.5703 19.1171L65.9303 29.2931ZM69.137 26.0503C69.8293 24.8966 70.2831 23.6687 70.5539 22.4307L58.8311 19.8663C58.8176 19.9282 58.8074 19.954 58.8084 19.9512C58.8089 19.9499 58.812 19.9421 58.8185 19.9288C58.8249 19.9156 58.8343 19.8977 58.8471 19.8764L69.137 26.0503ZM70.5539 22.4307C70.8007 21.3026 70.9154 20.16 70.9154 19.0152H58.9154C58.9154 19.3563 58.8815 19.6359 58.8311 19.8663L70.5539 22.4307ZM70.9154 19.0152V7.3936H58.9154V19.0152H70.9154ZM64.9154 13.3936H71.1242V1.3936H64.9154V13.3936ZM65.1242 7.3936V19.0152H77.1242V7.3936H65.1242ZM65.1242 19.0152C65.1242 20.0686 64.9896 20.9728 64.7603 21.7576L76.2783 25.1244C76.8555 23.1497 77.1242 21.1033 77.1242 19.0152H65.1242ZM64.7674 21.7334C64.5823 22.3567 64.3356 22.7762 64.0715 23.0865L73.2099 30.8639C74.644 29.1789 75.6496 27.2423 76.2711 25.1485L64.7674 21.7334ZM64.0715 23.0865C63.8531 23.343 63.5345 23.6066 62.9964 23.8448L67.8533 34.8179C69.9049 33.9099 71.7301 32.6027 73.2099 30.8639L64.0715 23.0865ZM62.9627 23.8598C62.6291 24.0099 61.9983 24.191 60.9036 24.191V36.191C63.29 36.191 65.6734 35.799 67.887 34.8029L62.9627 23.8598ZM60.9036 24.191C59.7407 24.191 59.0877 23.9979 58.7579 23.8465L53.7519 34.7525C56.0119 35.7898 58.458 36.191 60.9036 36.191V24.191ZM58.866 23.8974C58.3222 23.6346 57.9902 23.3483 57.7595 23.0643L48.4461 30.6314C49.871 32.3852 51.6405 33.7333 53.6439 34.7016L58.866 23.8974ZM57.7595 23.0643C57.4729 22.7116 57.2298 22.27 57.057 21.6653L45.5188 24.9619C46.1101 27.0317 47.077 28.9463 48.4461 30.6314L57.7595 23.0643ZM57.0638 21.6891C56.8402 20.894 56.7148 20.0103 56.7148 19.0152H44.7148C44.7148 21.0343 44.9715 23.0162 45.512 24.9381L57.0638 21.6891ZM56.7148 19.0152V7.3936H44.7148V19.0152H56.7148ZM50.7148 13.3936H56.9236V1.3936H50.7148V13.3936ZM50.9236 7.3936V19.0152H62.9236V7.3936H50.9236ZM50.9236 19.0152C50.9236 20.1609 51.0384 21.3005 51.2771 22.4253L63.0159 19.9353C62.9573 19.6592 62.9236 19.3554 62.9236 19.0152H50.9236ZM51.2851 22.4625C51.5559 23.7005 52.0097 24.9284 52.702 26.0822L62.9919 19.9082C63.0047 19.9296 63.0141 19.9474 63.0205 19.9607C63.027 19.9739 63.03 19.9817 63.0306 19.983C63.0316 19.9858 63.0214 19.96 63.0079 19.8981L51.2851 22.4625ZM52.759 26.1752C53.5249 27.4008 54.5379 28.4531 55.7793 29.2626L62.3345 19.2113C62.5994 19.3841 62.8057 19.6085 62.9349 19.8152L52.759 26.1752ZM56.0336 29.4196C57.6455 30.3599 59.3562 30.6827 60.9036 30.6827V18.6827C61.0076 18.6827 61.4871 18.7084 62.0801 19.0543L56.0336 29.4196ZM91.7936 30H85.7936V36H91.7936V30ZM91.7936 18.0918H97.7936L86.3271 15.6184L91.7936 18.0918ZM88.0046 26.4658V32.4658H91.8754L93.4711 28.9392L88.0046 26.4658ZM84.6933 26.4658L79.2268 28.9392L80.8225 32.4658H84.6933V26.4658ZM80.9043 18.0918L86.3708 15.6184L74.9043 18.0918H80.9043ZM80.9043 30V36H86.9043V30H80.9043ZM74.6955 30H68.6955V36H74.6955V30ZM74.6955 7.3936V1.3936H68.6955V7.3936H74.6955ZM81.4774 7.3936L86.9323 4.8948L85.3285 1.3936H81.4774V7.3936ZM86.349 18.0282L80.8941 20.527L86.3312 32.3963L91.7977 20.5404L86.349 18.0282ZM91.2523 7.3936V1.3936H87.4117L85.8036 4.88132L91.2523 7.3936ZM98.0024 7.3936H104.002V1.3936H98.0024V7.3936ZM98.0024 30V36H104.002V30H98.0024ZM97.7936 30V18.0918H85.7936V30H97.7936ZM86.3271 15.6184L82.5382 23.9923L93.4711 28.9392L97.2601 20.5653L86.3271 15.6184ZM88.0046 20.4658H84.6933V32.4658H88.0046V20.4658ZM90.1597 23.9923L86.3708 15.6184L75.4379 20.5653L79.2268 28.9392L90.1597 23.9923ZM74.9043 18.0918V30H86.9043V18.0918H74.9043ZM80.9043 24H74.6955V36H80.9043V24ZM80.6955 30V7.3936H68.6955V30H80.6955ZM74.6955 13.3936H81.4774V1.3936H74.6955V13.3936ZM76.0225 9.8924L80.8941 20.527L91.8039 15.5294L86.9323 4.8948L76.0225 9.8924ZM91.7977 20.5404L96.701 9.90588L85.8036 4.88132L80.9003 15.5159L91.7977 20.5404ZM91.2523 13.3936H98.0024V1.3936H91.2523V13.3936ZM92.0024 7.3936V30H104.002V7.3936H92.0024ZM98.0024 24H91.7936V36H98.0024V24ZM101.871 30H95.8715V36H101.871V30ZM101.871 7.3936V1.3936H95.8715V7.3936H101.871ZM115.308 8.09408L112.625 13.4606L112.674 13.4853L112.724 13.509L115.308 8.09408ZM117.696 9.87712L113.204 13.8553L113.265 13.9232L113.327 13.9893L117.696 9.87712ZM119.288 12.3925L113.717 14.6208L113.726 14.6426L113.735 14.6643L119.288 12.3925ZM119.001 18.9197L124.348 21.6432L124.358 21.6231L124.368 21.603L119.001 18.9197ZM116.613 21.6898L113.145 16.7936L108.692 19.948L111.411 24.6795L116.613 21.6898ZM121.389 30V36H131.758L126.591 27.0103L121.389 30ZM114.385 30L109.18 32.9845L110.909 36H114.385V30ZM110.405 23.0589L115.61 20.0743L113.881 17.0589H110.405V23.0589ZM108.08 23.0589V17.0589H102.08V23.0589H108.08ZM108.08 30V36H114.08V30H108.08ZM108.08 17.6461H102.08V23.6461H108.08V17.6461ZM113.047 17.0093L108.362 13.2611L108.304 13.3343L108.247 13.4093L113.047 17.0093ZM112.984 13.4432L108.524 17.457L108.575 17.514L108.628 17.5697L112.984 13.4432ZM108.08 12.8064V6.8064H102.08V12.8064H108.08ZM107.871 30V7.3936H95.8715V30H107.871ZM101.871 13.3936H112.251V1.3936H101.871V13.3936ZM112.251 13.3936C112.478 13.3936 112.571 13.434 112.625 13.4606L117.991 2.72752C116.177 1.82023 114.232 1.3936 112.251 1.3936V13.3936ZM112.724 13.509C112.964 13.6235 113.102 13.7399 113.204 13.8553L122.187 5.89891C120.974 4.52844 119.52 3.45613 117.892 2.67919L112.724 13.509ZM113.327 13.9893C113.471 14.1431 113.603 14.3363 113.717 14.6208L124.859 10.1641C124.208 8.53827 123.279 7.05458 122.065 5.76493L113.327 13.9893ZM113.735 14.6643C113.839 14.9184 113.861 15.0935 113.861 15.2262H125.861C125.861 13.4486 125.501 11.7345 124.841 10.1207L113.735 14.6643ZM113.861 15.2262C113.861 15.6368 113.78 15.9462 113.635 16.2364L124.368 21.603C125.369 19.6007 125.861 17.4478 125.861 15.2262H113.861ZM113.655 16.1961C113.518 16.4657 113.362 16.6399 113.145 16.7936L120.081 26.5859C121.902 25.2962 123.339 23.6237 124.348 21.6432L113.655 16.1961ZM111.411 24.6795L116.187 32.9897L126.591 27.0103L121.815 18.7001L111.411 24.6795ZM121.389 24H114.385V36H121.389V24ZM119.59 27.0155L115.61 20.0743L105.2 26.0434L109.18 32.9845L119.59 27.0155ZM110.405 17.0589H108.08V29.0589H110.405V17.0589ZM102.08 23.0589V30H114.08V23.0589H102.08ZM108.08 24H101.871V36H108.08V24ZM108.08 23.6461H111.997V11.6461H108.08V23.6461ZM111.997 23.6461C114.934 23.6461 116.867 21.917 117.847 20.6093L108.247 13.4093C108.419 13.1808 108.792 12.7457 109.436 12.3557C110.129 11.9359 111.012 11.6461 111.997 11.6461V23.6461ZM117.733 20.7574C119.21 18.9111 119.557 16.8102 119.557 15.2262H107.557C107.557 15.1706 107.564 14.2584 108.362 13.2611L117.733 20.7574ZM119.557 15.2262C119.557 13.5427 119.146 11.224 117.339 9.31673L108.628 17.5697C107.585 16.469 107.557 15.339 107.557 15.2262H119.557ZM117.443 9.42941C116.49 8.37008 114.615 6.8064 111.837 6.8064V18.8064C109.824 18.8064 108.713 17.6673 108.524 17.457L117.443 9.42941ZM111.837 6.8064H108.08V18.8064H111.837V6.8064ZM102.08 12.8064V17.6461H114.08V12.8064H102.08ZM128.586 29.204L126.035 34.6348L128.586 29.204ZM124.988 26.625L120.576 30.691L120.596 30.7128L120.616 30.7344L124.988 26.625ZM122.663 22.9315L128.234 20.7032L128.234 20.7032L122.663 22.9315ZM122.695 14.3666L128.236 16.6682L128.236 16.6682L122.695 14.3666ZM125.083 10.7368L120.798 6.53723L120.797 6.53812L125.083 10.7368ZM128.745 8.22144L131.159 13.7146L131.178 13.7061L131.197 13.6975L128.745 8.22144ZM138.074 8.25328L135.523 13.6841L135.523 13.6841L138.074 8.25328ZM143.964 14.5576L138.364 16.7115L138.379 16.7488L138.394 16.7859L143.964 14.5576ZM143.933 23.0907L149.461 25.4229L149.467 25.4077L149.474 25.3924L143.933 23.0907ZM141.545 26.7205L145.831 30.9192L145.852 30.8975L145.873 30.8757L141.545 26.7205ZM137.883 29.2358L135.431 23.7597L135.416 23.7666L135.4 23.7736L137.883 29.2358ZM128.458 20.9574L122.702 22.6504L122.709 22.674L122.716 22.6975L128.458 20.9574ZM129.414 22.836L134.169 19.1777L134.169 19.1777L129.414 22.836ZM131.006 24.1733L128.182 29.4674L128.218 29.4864L128.254 29.505L131.006 24.1733ZM135.654 24.1733L138.406 29.505L138.473 29.4704L138.539 29.4342L135.654 24.1733ZM137.246 22.8042L132.425 19.2328L132.413 19.2484L132.402 19.2641L137.246 22.8042ZM138.17 20.8619L132.413 19.1689L132.39 19.2474L132.369 19.3266L138.17 20.8619ZM138.17 16.468L132.413 18.161L132.42 18.1845L132.427 18.208L138.17 16.468ZM137.183 14.5894L132.427 18.2477L132.505 18.3499L132.588 18.4486L137.183 14.5894ZM135.559 13.284L132.735 18.5781L132.839 18.6336L132.945 18.685L135.559 13.284ZM130.974 13.284L128.222 7.95227L128.186 7.97084L128.15 7.98988L130.974 13.284ZM129.382 14.6531L134.137 18.3114L134.171 18.2682L134.203 18.2245L129.382 14.6531ZM128.427 16.5635L122.67 14.8705L122.654 14.9275L122.638 14.9848L128.427 16.5635ZM133.266 24.191C132.33 24.191 131.655 24.0166 131.137 23.7732L126.035 34.6348C128.319 35.7074 130.764 36.191 133.266 36.191V24.191ZM131.137 23.7732C130.377 23.4165 129.807 22.9917 129.36 22.5155L120.616 30.7344C122.164 32.3809 123.992 33.6754 126.035 34.6348L131.137 23.7732ZM129.4 22.5589C128.902 22.0184 128.518 21.4115 128.234 20.7032L117.093 25.1599C117.913 27.2111 119.078 29.0664 120.576 30.691L129.4 22.5589ZM128.234 20.7032C127.962 20.0216 127.836 19.355 127.836 18.665H115.836C115.836 20.9042 116.261 23.082 117.093 25.1599L128.234 20.7032ZM127.836 18.665C127.836 17.9735 127.964 17.3225 128.236 16.6682L117.154 12.0649C116.28 14.17 115.836 16.3847 115.836 18.665H127.836ZM128.236 16.6682C128.524 15.9762 128.9 15.4146 129.369 14.9355L120.797 6.53812C119.229 8.13917 118.013 9.99746 117.154 12.0649L128.236 16.6682ZM129.369 14.9364C129.857 14.438 130.437 14.0316 131.159 13.7146L126.331 2.72832C124.251 3.64242 122.39 4.91294 120.798 6.53723L129.369 14.9364ZM131.197 13.6975C131.79 13.4318 132.496 13.2662 133.394 13.2662V1.26624C130.937 1.26624 128.544 1.73745 126.293 2.74533L131.197 13.6975ZM133.394 13.2662C134.33 13.2662 135.005 13.4407 135.523 13.6841L140.625 2.8225C138.341 1.74985 135.896 1.26624 133.394 1.26624V13.2662ZM135.523 13.6841C136.258 14.0292 136.815 14.4478 137.26 14.9302L146.084 6.79807C144.533 5.11539 142.692 3.79346 140.625 2.8225L135.523 13.6841ZM137.26 14.9302C137.742 15.4537 138.104 16.0354 138.364 16.7115L149.565 12.4037C148.763 10.3204 147.597 8.43975 146.084 6.79807L137.26 14.9302ZM138.394 16.7859C138.671 17.4783 138.792 18.1349 138.792 18.7923H150.792C150.792 16.5629 150.362 14.3964 149.535 12.3293L138.394 16.7859ZM138.792 18.7923C138.792 19.4838 138.663 20.1347 138.392 20.7891L149.474 25.3924C150.348 23.2872 150.792 21.0726 150.792 18.7923H138.792ZM138.404 20.7585C138.116 21.4426 137.726 22.0343 137.216 22.5653L145.873 30.8757C147.401 29.284 148.603 27.4558 149.461 25.4229L138.404 20.7585ZM137.258 22.5218C136.802 22.9882 136.216 23.4083 135.431 23.7597L140.335 34.7119C142.395 33.7897 144.25 32.533 145.831 30.9192L137.258 22.5218ZM135.4 23.7736C134.847 24.0252 134.164 24.191 133.266 24.191V36.191C135.722 36.191 138.117 35.7201 140.366 34.698L135.4 23.7736ZM122.14 18.7286C122.14 20.0567 122.326 21.3702 122.702 22.6504L134.215 19.2644C134.167 19.1012 134.14 18.9289 134.14 18.7286H122.14ZM122.716 22.6975C123.128 24.0558 123.769 25.3388 124.658 26.4943L134.169 19.1777C134.177 19.1873 134.184 19.1975 134.19 19.2076C134.197 19.2178 134.201 19.2265 134.205 19.233C134.212 19.247 134.209 19.2443 134.201 19.2174L122.716 22.6975ZM124.658 26.4943C125.622 27.7475 126.82 28.7412 128.182 29.4674L133.829 18.8792C133.864 18.8978 133.922 18.9333 133.989 18.99C134.057 19.0471 134.119 19.1119 134.169 19.1777L124.658 26.4943ZM128.254 29.505C129.919 30.3647 131.674 30.6827 133.33 30.6827V18.6827C133.202 18.6827 133.408 18.6611 133.757 18.8416L128.254 29.505ZM133.33 30.6827C134.985 30.6827 136.74 30.3647 138.406 29.505L132.902 18.8416C133.252 18.6611 133.457 18.6827 133.33 18.6827V30.6827ZM138.539 29.4342C139.892 28.6922 141.119 27.6736 142.091 26.3443L132.402 19.2641C132.478 19.1603 132.559 19.0754 132.633 19.0112C132.707 18.9483 132.758 18.9185 132.769 18.9124L138.539 29.4342ZM142.068 26.3755C142.965 25.1635 143.594 23.8187 143.97 22.3973L132.369 19.3266C132.365 19.3442 132.365 19.3368 132.377 19.3126C132.388 19.2878 132.405 19.2595 132.425 19.2328L142.068 26.3755ZM143.926 22.5549C144.298 21.2904 144.488 19.9882 144.488 18.665H132.488C132.488 18.8276 132.466 18.99 132.413 19.1689L143.926 22.5549ZM144.488 18.665C144.488 17.3374 144.302 16.0171 143.912 14.728L132.427 18.208C132.461 18.3199 132.488 18.4642 132.488 18.665H144.488ZM143.926 14.775C143.5 13.3274 142.799 11.9476 141.777 10.7303L132.588 18.4486C132.529 18.3778 132.484 18.3077 132.452 18.2478C132.421 18.1892 132.412 18.1559 132.413 18.161L143.926 14.775ZM141.938 10.9312C140.916 9.60267 139.627 8.587 138.172 7.88304L132.945 18.685C132.888 18.657 132.8 18.6064 132.699 18.5254C132.597 18.4437 132.504 18.3485 132.427 18.2477L141.938 10.9312ZM138.382 7.98988C136.715 7.1005 134.952 6.77456 133.298 6.77456V18.7746C133.385 18.7746 133.129 18.7882 132.735 18.5781L138.382 7.98988ZM133.298 6.77456C131.643 6.77456 129.887 7.09261 128.222 7.95227L133.726 18.6157C133.376 18.7961 133.17 18.7746 133.298 18.7746V6.77456ZM128.15 7.98988C126.738 8.74329 125.521 9.78454 124.56 11.0818L134.203 18.2245C134.155 18.2898 134.09 18.3617 134.01 18.4301C133.931 18.4983 133.856 18.5468 133.797 18.5781L128.15 7.98988ZM124.626 10.9949C123.714 12.1801 123.075 13.4951 122.67 14.8705L134.183 18.2565C134.194 18.2175 134.2 18.2111 134.191 18.2279C134.182 18.2456 134.165 18.2759 134.137 18.3114L124.626 10.9949ZM122.638 14.9848C122.303 16.2117 122.14 17.4649 122.14 18.7286H134.14C134.14 18.5065 134.168 18.3163 134.215 18.1422L122.638 14.9848ZM152.932 29.204L150.381 34.6348L152.932 29.204ZM149.334 26.625L144.922 30.691L144.942 30.7128L144.962 30.7344L149.334 26.625ZM147.01 22.9315L152.581 20.7032L152.581 20.7032L147.01 22.9315ZM147.042 14.3666L152.583 16.6682L152.583 16.6682L147.042 14.3666ZM149.43 10.7368L145.144 6.53723L145.144 6.53812L149.43 10.7368ZM153.091 8.22144L155.505 13.7146L155.524 13.7061L155.543 13.6975L153.091 8.22144ZM162.42 8.25328L159.87 13.6841L159.87 13.6841L162.42 8.25328ZM168.311 14.5576L162.711 16.7115L162.725 16.7488L162.74 16.7859L168.311 14.5576ZM168.279 23.0907L173.807 25.4229L173.814 25.4077L173.82 25.3924L168.279 23.0907ZM165.891 26.7205L170.177 30.9192L170.198 30.8975L170.219 30.8757L165.891 26.7205ZM162.229 29.2358L159.777 23.7597L159.762 23.7666L159.747 23.7736L162.229 29.2358ZM152.805 20.9574L147.049 22.6504L147.056 22.674L147.063 22.6975L152.805 20.9574ZM153.76 22.836L158.516 19.1777L158.516 19.1777L153.76 22.836ZM155.352 24.1733L152.528 29.4674L152.564 29.4864L152.6 29.505L155.352 24.1733ZM160.001 24.1733L162.752 29.505L162.819 29.4704L162.886 29.4342L160.001 24.1733ZM161.593 22.8042L156.771 19.2328L156.76 19.2484L156.748 19.2641L161.593 22.8042ZM162.516 20.8619L156.76 19.1689L156.737 19.2474L156.716 19.3266L162.516 20.8619ZM162.516 16.468L156.76 18.161L156.767 18.1845L156.774 18.208L162.516 16.468ZM161.529 14.5894L156.773 18.2477L156.852 18.3499L156.935 18.4486L161.529 14.5894ZM159.905 13.284L157.082 18.5781L157.186 18.6336L157.292 18.685L159.905 13.284ZM155.32 13.284L152.568 7.95227L152.532 7.97084L152.497 7.98988L155.32 13.284ZM153.728 14.6531L158.484 18.3114L158.517 18.2682L158.549 18.2245L153.728 14.6531ZM152.773 16.5635L147.017 14.8705L147 14.9275L146.984 14.9848L152.773 16.5635ZM157.613 24.191C156.676 24.191 156.001 24.0166 155.483 23.7732L150.381 34.6348C152.665 35.7074 155.11 36.191 157.613 36.191V24.191ZM155.483 23.7732C154.724 23.4165 154.154 22.9917 153.706 22.5155L144.962 30.7344C146.51 32.3809 148.339 33.6754 150.381 34.6348L155.483 23.7732ZM153.746 22.5589C153.248 22.0184 152.864 21.4115 152.581 20.7032L141.439 25.1599C142.26 27.2111 143.425 29.0664 144.922 30.691L153.746 22.5589ZM152.581 20.7032C152.308 20.0216 152.182 19.355 152.182 18.665H140.182C140.182 20.9042 140.608 23.082 141.439 25.1599L152.581 20.7032ZM152.182 18.665C152.182 17.9735 152.311 17.3225 152.583 16.6682L141.501 12.0649C140.626 14.17 140.182 16.3847 140.182 18.665H152.182ZM152.583 16.6682C152.87 15.9762 153.246 15.4146 153.716 14.9355L145.144 6.53812C143.575 8.13917 142.36 9.99746 141.501 12.0649L152.583 16.6682ZM153.715 14.9364C154.203 14.438 154.783 14.0316 155.505 13.7146L150.678 2.72832C148.597 3.64242 146.736 4.91294 145.144 6.53723L153.715 14.9364ZM155.543 13.6975C156.137 13.4318 156.843 13.2662 157.74 13.2662V1.26624C155.283 1.26624 152.89 1.73745 150.639 2.74533L155.543 13.6975ZM157.74 13.2662C158.676 13.2662 159.351 13.4407 159.87 13.6841L164.971 2.8225C162.688 1.74985 160.243 1.26624 157.74 1.26624V13.2662ZM159.87 13.6841C160.604 14.0292 161.162 14.4478 161.606 14.9302L170.431 6.79807C168.88 5.11539 167.038 3.79346 164.971 2.8225L159.87 13.6841ZM161.606 14.9302C162.089 15.4537 162.451 16.0354 162.711 16.7115L173.911 12.4037C173.11 10.3204 171.943 8.43975 170.431 6.79807L161.606 14.9302ZM162.74 16.7859C163.017 17.4783 163.139 18.1349 163.139 18.7923H175.139C175.139 16.5629 174.709 14.3964 173.882 12.3293L162.74 16.7859ZM163.139 18.7923C163.139 19.4838 163.01 20.1347 162.738 20.7891L173.82 25.3924C174.694 23.2872 175.139 21.0726 175.139 18.7923H163.139ZM162.751 20.7585C162.462 21.4426 162.072 22.0343 161.563 22.5653L170.219 30.8757C171.747 29.284 172.95 27.4558 173.807 25.4229L162.751 20.7585ZM161.605 22.5218C161.148 22.9882 160.562 23.4083 159.777 23.7597L164.681 34.7119C166.741 33.7897 168.596 32.533 170.177 30.9192L161.605 22.5218ZM159.747 23.7736C159.193 24.0252 158.511 24.191 157.613 24.191V36.191C160.068 36.191 162.464 35.7201 164.712 34.698L159.747 23.7736ZM146.486 18.7286C146.486 20.0567 146.672 21.3702 147.049 22.6504L158.561 19.2644C158.513 19.1012 158.486 18.9289 158.486 18.7286H146.486ZM147.063 22.6975C147.474 24.0558 148.115 25.3388 149.004 26.4943L158.516 19.1777C158.523 19.1873 158.53 19.1975 158.537 19.2076C158.543 19.2178 158.548 19.2265 158.551 19.233C158.558 19.247 158.555 19.2443 158.547 19.2174L147.063 22.6975ZM149.004 26.4943C149.968 27.7475 151.167 28.7412 152.528 29.4674L158.175 18.8792C158.211 18.8978 158.268 18.9333 158.336 18.99C158.404 19.0471 158.465 19.1119 158.516 19.1777L149.004 26.4943ZM152.6 29.505C154.266 30.3647 156.021 30.6827 157.676 30.6827V18.6827C157.549 18.6827 157.754 18.6611 158.104 18.8416L152.6 29.505ZM157.676 30.6827C159.332 30.6827 161.087 30.3647 162.752 29.505L157.249 18.8416C157.598 18.6611 157.804 18.6827 157.676 18.6827V30.6827ZM162.886 29.4342C164.239 28.6922 165.466 27.6736 166.437 26.3443L156.748 19.2641C156.824 19.1603 156.905 19.0754 156.98 19.0112C157.053 18.9483 157.105 18.9185 157.116 18.9124L162.886 29.4342ZM166.414 26.3755C167.312 25.1635 167.94 23.8187 168.316 22.3973L156.716 19.3266C156.711 19.3442 156.712 19.3368 156.723 19.3126C156.735 19.2878 156.752 19.2595 156.771 19.2328L166.414 26.3755ZM168.272 22.5549C168.644 21.2904 168.834 19.9882 168.834 18.665H156.834C156.834 18.8276 156.812 18.99 156.76 19.1689L168.272 22.5549ZM168.834 18.665C168.834 17.3374 168.649 16.0171 168.258 14.728L156.774 18.208C156.808 18.3199 156.834 18.4642 156.834 18.665H168.834ZM168.272 14.775C167.846 13.3274 167.146 11.9476 166.123 10.7303L156.935 18.4486C156.875 18.3778 156.83 18.3077 156.799 18.2478C156.768 18.1892 156.758 18.1559 156.76 18.161L168.272 14.775ZM166.285 10.9312C165.263 9.60267 163.973 8.587 162.518 7.88304L157.292 18.685C157.234 18.657 157.146 18.6064 157.045 18.5254C156.944 18.4437 156.851 18.3485 156.773 18.2477L166.285 10.9312ZM162.729 7.98988C161.061 7.1005 159.298 6.77456 157.644 6.77456V18.7746C157.731 18.7746 157.476 18.7882 157.082 18.5781L162.729 7.98988ZM157.644 6.77456C155.989 6.77456 154.234 7.09261 152.568 7.95227L158.072 18.6157C157.722 18.7961 157.517 18.7746 157.644 18.7746V6.77456ZM152.497 7.98988C151.084 8.74329 149.868 9.78454 148.907 11.0818L158.549 18.2245C158.501 18.2898 158.436 18.3617 158.357 18.4301C158.277 18.4983 158.202 18.5468 158.144 18.5781L152.497 7.98988ZM148.972 10.9949C148.061 12.1801 147.421 13.4951 147.017 14.8705L158.529 18.2565C158.541 18.2175 158.546 18.2111 158.537 18.2279C158.529 18.2456 158.511 18.2759 158.484 18.3114L148.972 10.9949ZM146.984 14.9848C146.65 16.2117 146.486 17.4649 146.486 18.7286H158.486C158.486 18.5065 158.514 18.3163 158.562 18.1422L146.984 14.9848ZM189.036 12.8064V18.8064H195.036V12.8064H189.036ZM182.54 12.8064V6.8064H176.54V12.8064H182.54ZM182.54 30V36H188.54V30H182.54ZM176.332 30H170.332V36H176.332V30ZM176.332 12.8064H182.332V6.8064H176.332V12.8064ZM169.804 12.8064H163.804V18.8064H169.804V12.8064ZM169.804 7.3936V1.3936H163.804V7.3936H169.804ZM189.036 7.3936H195.036V1.3936H189.036V7.3936ZM189.036 6.8064H182.54V18.8064H189.036V6.8064ZM176.54 12.8064V30H188.54V12.8064H176.54ZM182.54 24H176.332V36H182.54V24ZM182.332 30V12.8064H170.332V30H182.332ZM176.332 6.8064H169.804V18.8064H176.332V6.8064ZM175.804 12.8064V7.3936H163.804V12.8064H175.804ZM169.804 13.3936H189.036V1.3936H169.804V13.3936ZM183.036 7.3936V12.8064H195.036V7.3936H183.036Z" fill="black"/>
<path d="M6.94224 30V7.3936H15.6346C17.5025 7.3936 19.1476 7.69077 20.5698 8.28512C21.9919 8.87947 23.1806 9.68608 24.1358 10.705C25.091 11.7238 25.8127 12.9231 26.301 14.3029C26.7892 15.6614 27.0333 17.1154 27.0333 18.665C27.0333 20.3843 26.7573 21.9445 26.2054 23.3454C25.6748 24.7252 24.9106 25.9139 23.913 26.9115C22.9153 27.8879 21.716 28.6521 20.315 29.204C18.9141 29.7347 17.3539 30 15.6346 30H6.94224ZM20.729 18.665C20.729 17.7947 20.6122 16.9987 20.3787 16.277C20.1452 15.5553 19.8056 14.9397 19.3598 14.4302C18.9353 13.9208 18.4046 13.5281 17.7678 13.2522C17.131 12.955 16.4199 12.8064 15.6346 12.8064H13.151V24.5872H15.6346C16.4412 24.5872 17.1629 24.4386 17.7997 24.1414C18.4365 23.8443 18.9671 23.4303 19.3917 22.8997C19.8374 22.369 20.1665 21.7428 20.3787 21.0211C20.6122 20.2994 20.729 19.514 20.729 18.665ZM29.734 30V7.3936H40.1138C41.2176 7.3936 42.2365 7.62709 43.1704 8.09408C44.1044 8.53984 44.9004 9.13419 45.5584 9.87712C46.2377 10.5988 46.7684 11.4373 47.1504 12.3925C47.5325 13.3265 47.7236 14.271 47.7236 15.2262C47.7236 16.5423 47.437 17.7734 46.8639 18.9197C46.2908 20.0447 45.4948 20.9681 44.4759 21.6898L49.2519 30H42.2471L38.2671 23.0589H35.9428V30H29.734ZM35.9428 17.6461H39.8591C40.2412 17.6461 40.5914 17.4338 40.9098 17.0093C41.2494 16.5847 41.4192 15.9904 41.4192 15.2262C41.4192 14.4409 41.2282 13.8465 40.8461 13.4432C40.464 13.0187 40.082 12.8064 39.6999 12.8064H35.9428V17.6461ZM60.9036 24.6827C61.6253 24.6827 62.2409 24.5235 62.7503 24.2051C63.2597 23.8867 63.6737 23.4728 63.9921 22.9634C64.3105 22.4327 64.544 21.8277 64.6925 21.1485C64.8411 20.4692 64.9154 19.7581 64.9154 19.0152V7.3936H71.1242V19.0152C71.1242 20.586 70.9226 22.0612 70.5193 23.441C70.116 24.7995 69.4898 25.9775 68.6407 26.9752C67.7916 27.9729 66.7197 28.7582 65.4249 29.3314C64.1513 29.9045 62.6442 30.191 60.9036 30.191C59.0993 30.191 57.5498 29.8939 56.2549 29.2995C54.9813 28.6839 53.9306 27.8667 53.1028 26.8478C52.2749 25.829 51.67 24.6509 51.2879 23.3136C50.9058 21.9551 50.7148 20.5223 50.7148 19.0152V7.3936H56.9236V19.0152C56.9236 19.7581 56.9979 20.4798 57.1465 21.1803C57.295 21.8596 57.5285 22.4645 57.8469 22.9952C58.1653 23.5046 58.5686 23.9186 59.0569 24.237C59.5663 24.5341 60.1819 24.6827 60.9036 24.6827ZM91.7936 30V18.0918L88.0046 26.4658H84.6933L80.9043 18.0918V30H74.6955V7.3936H81.4774L86.349 18.0282L91.2523 7.3936H98.0024V30H91.7936Z" fill="white"/>
<path d="M101.871 30V7.3936H112.251C113.355 7.3936 114.374 7.62709 115.308 8.09408C116.242 8.53984 117.038 9.13419 117.696 9.87712C118.375 10.5988 118.906 11.4373 119.288 12.3925C119.67 13.3265 119.861 14.271 119.861 15.2262C119.861 16.5423 119.575 17.7734 119.001 18.9197C118.428 20.0447 117.632 20.9681 116.613 21.6898L121.389 30H114.385L110.405 23.0589H108.08V30H101.871ZM108.08 17.6461H111.997C112.379 17.6461 112.729 17.4338 113.047 17.0093C113.387 16.5847 113.557 15.9904 113.557 15.2262C113.557 14.4409 113.366 13.8465 112.984 13.4432C112.602 13.0187 112.219 12.8064 111.837 12.8064H108.08V17.6461ZM133.266 30.191C131.547 30.191 129.987 29.862 128.586 29.204C127.185 28.546 125.985 27.6863 124.988 26.625C123.99 25.5424 123.215 24.3113 122.663 22.9315C122.112 21.5518 121.836 20.1296 121.836 18.665C121.836 17.1791 122.122 15.7463 122.695 14.3666C123.268 12.9868 124.064 11.7769 125.083 10.7368C126.123 9.67547 127.344 8.83701 128.745 8.22144C130.167 7.58464 131.717 7.26624 133.394 7.26624C135.113 7.26624 136.673 7.59525 138.074 8.25328C139.475 8.91131 140.674 9.7816 141.672 10.8642C142.67 11.9467 143.434 13.1779 143.964 14.5576C144.516 15.9373 144.792 17.3489 144.792 18.7923C144.792 20.2782 144.506 21.711 143.933 23.0907C143.359 24.4492 142.563 25.6591 141.545 26.7205C140.526 27.7606 139.305 28.599 137.883 29.2358C136.482 29.8726 134.943 30.191 133.266 30.191ZM128.14 18.7286C128.14 19.4928 128.246 20.2357 128.458 20.9574C128.671 21.6579 128.989 22.2841 129.414 22.836C129.838 23.3879 130.369 23.8337 131.006 24.1733C131.664 24.5129 132.438 24.6827 133.33 24.6827C134.221 24.6827 134.996 24.5129 135.654 24.1733C136.312 23.8124 136.843 23.3561 137.246 22.8042C137.671 22.231 137.979 21.5836 138.17 20.8619C138.382 20.1402 138.488 19.4079 138.488 18.665C138.488 17.9008 138.382 17.1685 138.17 16.468C137.957 15.7463 137.628 15.1201 137.183 14.5894C136.758 14.0375 136.217 13.6024 135.559 13.284C134.922 12.9444 134.168 12.7746 133.298 12.7746C132.407 12.7746 131.632 12.9444 130.974 13.284C130.337 13.6236 129.806 14.08 129.382 14.6531C128.957 15.205 128.639 15.8418 128.427 16.5635C128.235 17.264 128.14 17.9857 128.14 18.7286ZM157.613 30.191C155.893 30.191 154.333 29.862 152.932 29.204C151.531 28.546 150.332 27.6863 149.334 26.625C148.337 25.5424 147.562 24.3113 147.01 22.9315C146.458 21.5518 146.182 20.1296 146.182 18.665C146.182 17.1791 146.469 15.7463 147.042 14.3666C147.615 12.9868 148.411 11.7769 149.43 10.7368C150.47 9.67547 151.69 8.83701 153.091 8.22144C154.514 7.58464 156.063 7.26624 157.74 7.26624C159.459 7.26624 161.019 7.59525 162.42 8.25328C163.821 8.91131 165.021 9.7816 166.018 10.8642C167.016 11.9467 167.78 13.1779 168.311 14.5576C168.863 15.9373 169.139 17.3489 169.139 18.7923C169.139 20.2782 168.852 21.711 168.279 23.0907C167.706 24.4492 166.91 25.6591 165.891 26.7205C164.872 27.7606 163.652 28.599 162.229 29.2358C160.828 29.8726 159.29 30.191 157.613 30.191ZM152.486 18.7286C152.486 19.4928 152.593 20.2357 152.805 20.9574C153.017 21.6579 153.335 22.2841 153.76 22.836C154.185 23.3879 154.715 23.8337 155.352 24.1733C156.01 24.5129 156.785 24.6827 157.676 24.6827C158.568 24.6827 159.343 24.5129 160.001 24.1733C160.659 23.8124 161.189 23.3561 161.593 22.8042C162.017 22.231 162.325 21.5836 162.516 20.8619C162.728 20.1402 162.834 19.4079 162.834 18.665C162.834 17.9008 162.728 17.1685 162.516 16.468C162.304 15.7463 161.975 15.1201 161.529 14.5894C161.104 14.0375 160.563 13.6024 159.905 13.284C159.268 12.9444 158.515 12.7746 157.644 12.7746C156.753 12.7746 155.978 12.9444 155.32 13.284C154.683 13.6236 154.153 14.08 153.728 14.6531C153.304 15.205 152.985 15.8418 152.773 16.5635C152.582 17.264 152.486 17.9857 152.486 18.7286ZM189.036 12.8064H182.54V30H176.332V12.8064H169.804V7.3936H189.036V12.8064Z" fill="#F77B12"/>
</svg>
