<?xml version="1.0" encoding="iso-8859-1"?>
<!-- Generator: Adobe Illustrator 18.0.0, SVG Export Plug-In . SVG Version: 6.00 Build 0)  -->
<!DOCTYPE svg PUBLIC "-//W3C//DTD SVG 1.1//EN" "http://www.w3.org/Graphics/SVG/1.1/DTD/svg11.dtd">
<svg version="1.1" id="Capa_1" xmlns="http://www.w3.org/2000/svg" xmlns:xlink="http://www.w3.org/1999/xlink" x="0px" y="0px"
	 viewBox="0 0 469.907 469.907" style="enable-background:new 0 0 469.907 469.907;" xml:space="preserve">
<g>
	<path d="M200.551,401.493c91.831,0,166.54-74.71,166.54-166.54s-74.709-166.54-166.54-166.54c-91.83,0-166.54,74.71-166.54,166.54
		S108.721,401.493,200.551,401.493z M200.551,83.414c83.559,0,151.54,67.98,151.54,151.54s-67.98,151.54-151.54,151.54
		s-151.54-67.98-151.54-151.54S116.992,83.414,200.551,83.414z"/>
	<path d="M255.902,358.225c21.546,0,39.075-17.529,39.075-39.075s-17.529-39.075-39.075-39.075
		c-21.546,0-39.075,17.529-39.075,39.075S234.356,358.225,255.902,358.225z M255.902,295.076c13.275,0,24.075,10.8,24.075,24.075
		c0,13.275-10.8,24.075-24.075,24.075c-13.274,0-24.075-10.8-24.075-24.075C231.827,305.876,242.627,295.076,255.902,295.076z"/>
	<path d="M469.907,234.953c0-5.009-2.885-9.347-7.073-11.469c-2.628-44.801-20.539-85.556-48.587-117.123
		c0.443-1.313,0.688-2.698,0.688-4.124c0-3.437-1.338-6.666-3.766-9.093c-2.43-2.43-5.659-3.769-9.096-3.769
		c-1.426,0-2.813,0.243-4.125,0.687c-31.565-28.046-72.319-45.957-117.119-48.586c-2.122-4.189-6.463-7.073-11.473-7.073
		c-4.87,0-9.116,2.722-11.299,6.724h-46.222c-2.184-3.998-6.416-6.724-11.285-6.724c-5.008,0-9.346,2.884-11.469,7.072
		c-44.801,2.628-85.556,20.539-117.123,48.587c-1.313-0.444-2.699-0.687-4.126-0.687c-3.435,0-6.665,1.338-9.093,3.767
		c-2.43,2.429-3.768,5.659-3.768,9.095c0,1.426,0.244,2.812,0.687,4.124C27.613,137.928,9.702,178.683,7.074,223.484
		C2.884,225.606,0,229.944,0,234.953c0,5.007,2.883,9.344,7.07,11.467c2.53,43.652,19.478,84.57,48.553,117.227
		c-0.421,1.282-0.65,2.633-0.65,4.022c0,3.436,1.338,6.665,3.768,9.094c2.429,2.429,5.658,3.767,9.093,3.767
		c1.389,0,2.74-0.229,4.022-0.65c32.658,29.076,73.575,46.023,117.227,48.553c2.123,4.188,6.46,7.07,11.468,7.07
		c4.871,0,9.118-2.722,11.3-6.725h46.205c2.183,4.003,6.429,6.725,11.3,6.725c5.009,0,9.348-2.885,11.47-7.074
		c44.801-2.628,85.556-20.539,117.122-48.586c1.313,0.444,2.699,0.687,4.126,0.687c3.436,0,6.665-1.338,9.093-3.767
		c2.43-2.429,3.768-5.659,3.768-9.095c0-1.426-0.244-2.812-0.688-4.125c28.047-31.566,45.959-72.321,48.587-117.122
		C467.022,244.3,469.907,239.962,469.907,234.953z M275.594,413.658c19.718-8.312,37.776-19.801,53.548-33.814
		c1.314,0.444,2.699,0.687,4.126,0.687c3.435,0,6.665-1.338,9.093-3.767c0.133-0.132,0.249-0.276,0.375-0.413h35.965
		C349.984,398.608,314.336,412.322,275.594,413.658z M395.738,361.351h-48.365c26.94-31.25,44.088-71.162,46.655-114.929
		c1.847-0.936,3.436-2.301,4.639-3.969h49.347C446.091,288.782,426.473,330.62,395.738,361.351z M378.702,93.556h-35.967
		c-0.125-0.137-0.242-0.28-0.374-0.412c-2.429-2.429-5.658-3.767-9.094-3.767c-1.426,0-2.811,0.243-4.124,0.687
		c-15.772-14.013-33.831-25.504-53.55-33.815C314.336,57.583,349.985,71.297,378.702,93.556z M395.739,108.556
		c30.734,30.731,50.352,72.568,52.274,118.897h-49.347c-1.203-1.667-2.792-3.033-4.639-3.969
		c-2.567-43.767-19.714-83.679-46.654-114.929H395.739z M200.551,56.127c98.605,0,178.826,80.221,178.826,178.826
		c0,98.605-80.221,178.825-178.826,178.825c-47.766,0.001-92.673-18.601-126.449-52.376
		c-33.776-33.776-52.377-78.683-52.377-126.449C21.725,136.348,101.946,56.127,200.551,56.127z"/>
</g>
<g>
</g>
<g>
</g>
<g>
</g>
<g>
</g>
<g>
</g>
<g>
</g>
<g>
</g>
<g>
</g>
<g>
</g>
<g>
</g>
<g>
</g>
<g>
</g>
<g>
</g>
<g>
</g>
<g>
</g>
</svg>
