<?xml version="1.0" encoding="iso-8859-1"?>
<!-- Generator: Adobe Illustrator 16.0.0, SVG Export Plug-In . SVG Version: 6.00 Build 0)  -->
<!DOCTYPE svg PUBLIC "-//W3C//DTD SVG 1.1//EN" "http://www.w3.org/Graphics/SVG/1.1/DTD/svg11.dtd">
<svg version="1.1" id="Capa_1" xmlns="http://www.w3.org/2000/svg" xmlns:xlink="http://www.w3.org/1999/xlink" x="0px" y="0px"
	 width="63.596px" height="63.597px" viewBox="0 0 63.596 63.597" style="enable-background:new 0 0 63.596 63.597;"
	 xml:space="preserve">
<g>
	<g>
		<path d="M6.336,49.426c0.139,0.047,0.28,0.068,0.418,0.068c0.554,0,1.071-0.351,1.255-0.905l3.05-9.147
			c1.547,3.473,3.553,5.929,6.129,6.483v5.704c0,0.731,0.593,1.324,1.324,1.324c0.731,0,1.324-0.593,1.324-1.324v-5.813
			c2.385-0.73,4.324-3.141,5.879-6.477l3.084,9.251c0.185,0.555,0.701,0.905,1.255,0.905c0.139,0,0.28-0.022,0.419-0.066
			c0.693-0.232,1.067-0.982,0.836-1.675L27.25,35.571c0.996-0.596,1.614-1.345,1.614-2.27c0-0.375-0.116-0.892-0.58-1.429
			c0.689-2.686,1.233-5.542,1.657-8.375c0.415,5.153,1.159,10.96,2.385,16.218c-0.458,0.577-0.574,1.129-0.574,1.522
			c0,0.988,0.615,1.806,1.63,2.461l-4.661,13.981c-0.262,0.789,0.163,1.642,0.952,1.904c0.158,0.054,0.319,0.077,0.476,0.077
			c0.63,0,1.219-0.399,1.428-1.029l3.47-10.409c1.76,3.952,4.043,6.747,6.973,7.377v6.49c0,0.83,0.675,1.506,1.506,1.506
			s1.507-0.676,1.507-1.506v-6.616c2.713-0.83,4.919-3.572,6.688-7.367l3.509,10.525c0.208,0.63,0.797,1.029,1.427,1.029
			c0.159,0,0.319-0.024,0.477-0.077c0.79-0.263,1.215-1.115,0.952-1.904l-4.62-13.861c1.133-0.676,1.835-1.53,1.835-2.581
			c0-0.427-0.133-1.016-0.659-1.627c2.298-8.959,3.222-19.609,3.222-26.274c0-1.695-0.135-3.663-0.254-5.398
			c-0.005-0.069-0.009-0.135-0.013-0.204c-0.412,0.496-1.06,0.959-1.92,1.375c0.094,1.423,0.179,2.921,0.179,4.227
			c0,8.714-1.26,18.836-3.289,26.415c-0.253,0.94-0.515,1.823-0.784,2.674c-1.357,0.598-3.626,1.173-6.775,1.314
			c-0.121-0.711-0.735-1.254-1.48-1.254c-0.744,0-1.358,0.543-1.479,1.254c-3.289-0.147-5.62-0.768-6.953-1.392
			c-2.425-8.413-3.59-19.925-3.59-29.01c0-1.365,0-2.823,0.009-4.162c-0.142-0.066-0.269-0.135-0.4-0.204
			c0-0.063,0.002-0.131,0.002-0.194c0-0.496-0.015-1.021-0.037-1.553c0.131,0.088,0.28,0.181,0.451,0.274
			c0.551,0.302,1.302,0.625,2.272,0.93v0.796v0.782v2.266c-0.563,0.456-0.937,1.279-0.937,2.251c0,1.475,0.853,2.629,1.941,2.629
			s1.94-1.155,1.94-2.629c0-0.971-0.374-1.795-0.937-2.25v-1.781V9.73V8.951c1.799,0.389,4.043,0.674,6.715,0.733v0.753v0.753v2.912
			c-0.953,0.396-1.627,1.335-1.627,2.428c0,1.45,1.181,2.629,2.63,2.629c1.45,0,2.63-1.179,2.63-2.629
			c0-1.094-0.673-2.033-1.626-2.428V11.19v-0.753V9.684c2.994-0.066,5.448-0.42,7.341-0.879v0.789v0.769v1.913
			c-0.562,0.455-0.936,1.279-0.936,2.251c0,1.475,0.852,2.629,1.939,2.629s1.94-1.155,1.94-2.629c0-0.971-0.373-1.795-0.937-2.25
			V9.823V9.025V8.213c0.698-0.248,1.258-0.5,1.688-0.74C56.244,7.095,56.6,6.751,56.6,6.526c0-0.202-0.278-0.5-0.826-0.833
			c-1.658-1.008-5.8-2.34-12.248-2.34c-6.849,0-11.084,1.501-12.517,2.521c-0.037-0.627-0.078-1.25-0.118-1.842
			c-0.004-0.062-0.008-0.118-0.012-0.179c-0.363,0.435-0.932,0.844-1.688,1.209c0.083,1.25,0.157,2.566,0.157,3.714
			c0,7.659-1.108,16.556-2.892,23.217c-0.221,0.826-0.452,1.603-0.689,2.351c-1.193,0.525-3.187,1.031-5.955,1.154
			c-0.106-0.624-0.647-1.101-1.301-1.101c-0.655,0-1.195,0.477-1.301,1.101c-2.891-0.13-4.94-0.675-6.112-1.225
			c-2.13-7.393-3.155-17.512-3.155-25.498c0-1.199,0-2.481,0.007-3.658c-0.774-0.362-1.368-0.766-1.753-1.2
			C6.181,5.383,6.18,7.155,6.18,8.776c0,5.328,0.579,15.018,2.487,23.185c-0.402,0.509-0.503,0.993-0.503,1.34
			c0,0.869,0.54,1.587,1.432,2.164L5.499,47.752C5.269,48.445,5.643,49.195,6.336,49.426z M45.035,45.744
			c1.987-0.088,3.958-0.349,5.633-0.801l0.111,0.335c-1.688,4.314-3.647,7.063-5.744,8.046V45.744z M36.165,44.875
			c1.723,0.492,3.778,0.777,5.857,0.869v7.776c-2.428-0.808-4.419-3.899-5.989-8.252L36.165,44.875z M19.837,37.264
			c1.747-0.079,3.479-0.307,4.952-0.705l0.098,0.295c-1.484,3.792-3.206,6.209-5.05,7.071V37.264z M12.042,36.499
			c1.514,0.434,3.321,0.684,5.148,0.765v6.834c-2.133-0.71-3.884-3.427-5.264-7.253L12.042,36.499z"/>
		<path d="M7.967,3.645C8.451,3.91,9.111,4.194,9.963,4.461v0.7v0.688v1.993c-0.495,0.4-0.823,1.125-0.823,1.978
			c0,1.296,0.749,2.312,1.705,2.312c0.956,0,1.704-1.015,1.704-2.312c0-0.853-0.328-1.577-0.822-1.978V6.275V5.604V4.919
			c1.58,0.342,3.553,0.593,5.902,0.645v0.662v0.663V9.45c-0.837,0.348-1.43,1.173-1.43,2.134c0,1.275,1.038,2.312,2.313,2.312
			c1.274,0,2.311-1.037,2.311-2.312c0-0.962-0.592-1.787-1.429-2.134V6.889V6.227V5.564c2.633-0.059,4.789-0.369,6.454-0.773v0.692
			v0.675V7.84c-0.495,0.4-0.823,1.125-0.823,1.978c0,1.296,0.749,2.312,1.705,2.312c0.956,0,1.704-1.015,1.704-2.312
			c0-0.853-0.328-1.577-0.822-1.978V5.685v-0.7V4.273c0.612-0.218,1.105-0.439,1.482-0.651c0.596-0.332,0.909-0.635,0.909-0.833
			c0-0.178-0.245-0.439-0.726-0.732C27.819,1.171,24.18,0,18.512,0C12.074,0,8.262,1.508,7.282,2.396
			C7.117,2.55,7.021,2.685,7.021,2.791C7.021,2.992,7.347,3.304,7.967,3.645z"/>
	</g>
</g>
<g>
</g>
<g>
</g>
<g>
</g>
<g>
</g>
<g>
</g>
<g>
</g>
<g>
</g>
<g>
</g>
<g>
</g>
<g>
</g>
<g>
</g>
<g>
</g>
<g>
</g>
<g>
</g>
<g>
</g>
</svg>
