<?xml version="1.0" encoding="iso-8859-1"?>
<!-- Generator: Adobe Illustrator 16.0.0, SVG Export Plug-In . SVG Version: 6.00 Build 0)  -->
<!DOCTYPE svg PUBLIC "-//W3C//DTD SVG 1.1//EN" "http://www.w3.org/Graphics/SVG/1.1/DTD/svg11.dtd">
<svg version="1.1" id="Capa_1" xmlns="http://www.w3.org/2000/svg" xmlns:xlink="http://www.w3.org/1999/xlink" x="0px" y="0px"
	 width="62.229px" height="62.228px" viewBox="0 0 62.229 62.228" style="enable-background:new 0 0 62.229 62.228;"
	 xml:space="preserve">
<g>
	<g>
		<path d="M58.865,28.378l-5.292-8.756c0,0-10.019-0.5-21.045-1.046l7.967,12.601l14.268-2.743c0.57-0.106,1.111,0.261,1.219,0.826
			c0.109,0.564-0.26,1.111-0.825,1.22l-13.465,2.59l3.14,4.964l14.036-3.728v-5.927H58.865z"/>
		<polygon points="39,39.578 35.759,34.208 13.742,38.443 11.175,46.964 		"/>
		<polygon points="11.825,37.582 4.018,17.537 3.361,30.399 9.44,45.498 		"/>
		<path d="M26.136,18.259c-8.36-0.413-16.306-0.801-19.98-0.972l7.426,19.064l21.031-4.044L26.136,18.259z"/>
		<path d="M53.27,61.209c0.396,0.655,1.092,1.019,1.805,1.019c0.371,0,0.747-0.099,1.087-0.303c0.997-0.602,1.316-1.896,0.715-2.893
			L43.773,38.312l-3.182-5.033l-1.195-1.892l-8.141-12.875l-7.08-11.196c0.096-1.139-0.301-2.652-1.182-4.112
			C21.815,1.25,20.147,0,18.888,0c-0.295,0-0.568,0.068-0.807,0.212c-1.258,0.759-1.098,3.329,0.356,5.74
			c0.95,1.575,2.214,2.679,3.331,3.052l5.621,9.316l8.315,13.777l1.146,1.9l3.2,5.302L53.27,61.209z"/>
	</g>
</g>
<g>
</g>
<g>
</g>
<g>
</g>
<g>
</g>
<g>
</g>
<g>
</g>
<g>
</g>
<g>
</g>
<g>
</g>
<g>
</g>
<g>
</g>
<g>
</g>
<g>
</g>
<g>
</g>
<g>
</g>
</svg>
