<?xml version="1.0" encoding="iso-8859-1"?>
<!-- Generator: Adobe Illustrator 16.0.0, SVG Export Plug-In . SVG Version: 6.00 Build 0)  -->
<!DOCTYPE svg PUBLIC "-//W3C//DTD SVG 1.1//EN" "http://www.w3.org/Graphics/SVG/1.1/DTD/svg11.dtd">
<svg version="1.1" id="Capa_1" xmlns="http://www.w3.org/2000/svg" xmlns:xlink="http://www.w3.org/1999/xlink" x="0px" y="0px"
	 width="60.298px" height="60.298px" viewBox="0 0 60.298 60.298" style="enable-background:new 0 0 60.298 60.298;"
	 xml:space="preserve">
<g>
	<g>
		<path d="M42.067,12.055c-1.646-0.322-3.32-0.486-4.972-0.486l0,0c-2.83,0-5.504,0.475-7.936,1.324
			c-1.95-0.618-4.027-1.019-6.197-1.149c-0.522-0.031-1.05-0.047-1.569-0.047h-0.002C9.986,11.698,0.602,19.23,0.028,28.845
			c-0.298,4.992,1.747,9.8,5.756,13.538c3.901,3.636,9.221,5.828,14.981,6.171c0.522,0.031,1.05,0.048,1.571,0.048
			c3.042,0,5.933-0.552,8.56-1.521c1.305,0.488,2.673,0.886,4.099,1.163c1.647,0.322,3.319,0.485,4.971,0.485
			c10.141,0,18.38-5.916,20.035-14.384c0.959-4.909-0.429-9.945-3.905-14.183C52.711,16.041,47.729,13.161,42.067,12.055z
			 M57.955,33.944c-1.483,7.589-9.099,12.701-17.99,12.701c-1.495,0-3.026-0.144-4.571-0.446c-0.558-0.108-1.099-0.247-1.637-0.392
			c-0.976-0.263-1.915-0.586-2.82-0.957c-6.055-2.481-10.408-7.255-11.681-12.636c-0.144-0.608-0.247-1.223-0.31-1.843
			c-0.106-1.045-0.092-2.101,0.047-3.162c0.037-0.286,0.058-0.571,0.113-0.857c0.188-0.96,0.475-1.881,0.85-2.758
			c0.12-0.279,0.261-0.55,0.398-0.821c0.139-0.273,0.287-0.541,0.443-0.805c1.82-3.066,4.787-5.452,8.403-6.865
			c0.999-0.391,2.046-0.708,3.131-0.943c1.525-0.333,3.122-0.509,4.764-0.509c1.497,0,3.027,0.145,4.573,0.447
			C52.396,16.195,59.688,25.081,57.955,33.944z M22.336,46.518c-0.479,0-0.961-0.014-1.447-0.043
			C9.978,45.824,1.569,37.986,2.108,28.97c0.514-8.615,9.011-15.188,19.284-15.188c0.479,0,0.961,0.015,1.447,0.043
			c1.104,0.066,2.175,0.224,3.222,0.432c-3.555,1.917-6.327,4.766-7.886,8.244c-0.221,0.09-0.449,0.168-0.658,0.281
			c-1.485,0.806-2.465,2.085-2.761,3.602l1.297,0.253l0.236,0.046c0.137-0.699,0.51-1.32,1.047-1.835
			c-0.099,0.366-0.201,0.73-0.274,1.106c-0.057,0.285-0.076,0.571-0.115,0.857c-0.072,0.522-0.123,1.042-0.142,1.561l-0.818-0.159
			c-0.175,0.896,0.188,1.794,0.912,2.551c0.704,6.13,4.927,11.768,11.167,15.039C26.252,46.264,24.33,46.518,22.336,46.518z"/>
		<path d="M41.334,22.136c-0.053-0.011-0.104-0.027-0.158-0.038c-0.801-0.157-1.604-0.176-2.379-0.087
			c-0.898,0.102-1.761,0.354-2.532,0.771c-1.483,0.806-2.465,2.085-2.761,3.602l1.297,0.253l0.237,0.046
			c0.206-1.05,0.906-1.949,1.973-2.528c0.812-0.441,1.761-0.652,2.745-0.635c0.371,0.006,0.744,0.039,1.118,0.111
			c0.547,0.106,1.045,0.295,1.513,0.52c1.918,0.923,3.097,2.714,2.747,4.505l0,0l1.535,0.299
			C47.26,25.929,44.874,22.902,41.334,22.136z"/>
		<path d="M36.271,28.512l-1.534-0.299c-0.365,1.866,1.559,3.758,4.377,4.311c0.504,0.098,1.006,0.146,1.494,0.146
			c0.296,0,0.58-0.031,0.862-0.067c0.429-0.054,0.843-0.137,1.221-0.273c0.373-0.134,0.686-0.316,0.967-0.517
			c0.603-0.428,1.008-0.979,1.136-1.635L43.7,29.964l-0.441-0.086c-0.078,0.398-0.479,0.757-1.101,0.983
			c-0.167,0.06-0.351,0.104-0.538,0.144c-0.664,0.135-1.438,0.134-2.206-0.016C37.355,30.586,36.104,29.36,36.271,28.512z"/>
		<path d="M41.12,26.819c0.375-0.124,0.667-0.367,0.748-0.712c0.143-0.606-0.386-1.249-1.181-1.436
			c-0.125-0.029-0.242-0.024-0.361-0.028c-0.65-0.025-1.217,0.275-1.338,0.787c-0.144,0.606,0.386,1.249,1.181,1.437
			C40.512,26.945,40.838,26.913,41.12,26.819z"/>
		<path d="M41.892,33.613c0,0-0.256,0.115-0.68,0.229c-1.132,0.303-3.509,0.589-5.737-1.4l-6.84,9.244c0,0,2.146,0.979,5.099,1.758
			c0.868,0.231,1.802,0.439,2.779,0.604c2.755,0.465,5.803,0.558,8.398-0.409l-2.256-7.486L41.892,33.613z"/>
		<path d="M14.225,28.308L3.437,28.241c0,0-0.684,5.783,4.765,11.565l8.676-6.789C16.878,33.019,14.625,30.9,14.225,28.308z"/>
		<path d="M44.911,22.66c1.953,1.008,2.408,2.815,2.408,2.815l8.138,0.292c0-1.334-2.669-4.198-2.669-4.198
			C51.003,21.539,44.911,22.66,44.911,22.66z"/>
		<path d="M56.239,28.805c0.064-0.576-0.391-1.507-0.391-1.507l-8.203-0.847L56.239,28.805z"/>
	</g>
</g>
<g>
</g>
<g>
</g>
<g>
</g>
<g>
</g>
<g>
</g>
<g>
</g>
<g>
</g>
<g>
</g>
<g>
</g>
<g>
</g>
<g>
</g>
<g>
</g>
<g>
</g>
<g>
</g>
<g>
</g>
</svg>
