<svg width="500" height="500" viewBox="0 0 500 500" fill="none" xmlns="http://www.w3.org/2000/svg">
<path d="M243.385 499.158C235.491 496.203 230.519 491.03 228.682 483.861C227.547 479.434 227.444 479.37 220.183 478.572C183.688 474.564 141.714 457.214 109.924 432.996L103.488 428.093L99.3566 430.026C93.8065 432.622 85.1445 432.683 80.3889 430.159C75.8356 427.742 71.852 423.622 69.8743 419.284C67.4434 413.952 67.5346 406.118 70.0912 400.651L72.0561 396.449L67.113 390.058C43.2034 359.143 26.4667 318.726 21.6657 280.31L20.6994 272.577L16.4531 271.315C7.35794 268.611 1.04283 261.239 0.12217 252.249C-0.975324 241.534 5.39101 232.36 16.4209 228.764L20.6606 227.381L21.6758 219.28C22.9428 209.169 25.4099 197.358 28.5552 186.344C36.0177 160.211 50.5997 131.332 67.113 109.98L72.0561 103.589L70.0912 99.387C68.5812 96.1579 68.1336 93.8456 68.1582 89.4004C68.1971 82.3445 70.0499 78.3496 75.5146 73.5382C82.5137 67.3759 91.446 66.136 99.7547 70.1737L103.543 72.0148L108.725 67.9258C121.069 58.1846 140.365 46.5262 155.349 39.7564C173.321 31.6368 199.485 24.0549 217.005 21.8896C228.021 20.528 227.503 20.7733 228.64 16.3843C231.736 4.4376 244.974 -2.82209 256.612 1.04432C263.781 3.42602 270.093 10.3697 271.651 17.5869C272.297 20.5794 272.228 20.5534 283.039 21.8896C306.814 24.8281 338.301 35.3651 360.653 47.8632C369.852 53.0072 382.228 61.0759 390.028 67.0149L396.558 71.9867L400.317 70.1596C408.551 66.1586 417.539 67.3846 424.426 73.4479C431.821 79.9588 434.012 90.2025 429.96 99.32L428.068 103.576L433.956 111.411C457.148 142.276 472.4 179.047 478.008 217.622L479.42 227.337L484.69 229.24C500.51 234.954 505.139 253.987 493.5 265.465C490.373 268.548 487.393 270.244 482.726 271.595L479.442 272.546L478.011 282.338C472.204 322.066 457.71 356.953 433.734 388.91L427.995 396.559L429.717 400.104C433.875 408.663 432.572 417.74 426.164 424.869C419.445 432.344 409.395 434.303 400.356 429.901L396.589 428.067L390.052 433.054C359.302 456.514 322.738 472.034 284.766 477.744C279.82 478.487 274.983 479.251 274.016 479.44C272.694 479.699 272.027 480.745 271.319 483.673C269.156 492.618 260.921 499.331 251.359 499.944C248.353 500.137 245.158 499.822 243.385 499.158H243.385ZM255.356 494.083C259.495 493.222 266.372 485.476 266.372 481.675C266.372 480.307 265.22 480.203 250.022 480.203C237.268 480.203 233.671 480.434 233.671 481.252C233.671 485.186 240.428 493.184 244.483 494.052C249.853 495.2 249.988 495.201 255.356 494.083ZM265.963 474.474C297.721 472.85 335.343 461.188 363.943 444.103C426.897 406.495 466.619 344.194 474.105 271.321C475.459 258.134 474.591 229.756 472.415 216.09C461.69 148.748 423.208 91.5423 365.157 56.6447C330.415 35.7598 291.459 25.0799 250.022 25.0799C219.41 25.0799 193.254 30.0942 165.818 41.2223C89.9695 71.9873 37.0744 140.529 26.482 221.774C24.8344 234.412 24.7951 262.463 26.4057 276.191C35.0351 349.738 79.12 414.078 144.972 449.233C166.39 460.667 192.689 469.233 217.73 472.932C227.524 474.379 246.373 475.588 252.883 475.186C255.131 475.048 261.017 474.727 265.963 474.474H265.963ZM232.445 444.074C217.726 442.796 197.861 438.318 183.482 433.039C157.319 423.432 134.956 409.367 114.869 389.885C84.0659 360.009 65.4058 324.534 57.8588 281.501C55.6191 268.73 54.8063 242.552 56.2429 229.454C58.8025 206.116 64.8095 185.414 75.0707 164.569C103.463 106.892 157.634 67.1783 221.409 57.2877C234.623 55.2384 265.449 55.2409 278.634 57.2926C324.64 64.4507 367.277 88.0352 397.28 122.92C417.753 146.725 433.681 178.565 440.001 208.316C443.425 224.437 444.17 232.251 444.136 251.655C444.108 266.895 443.789 271.877 442.272 280.681C436.58 313.718 424.989 340.69 404.737 368.022C397.495 377.796 379.114 396.444 369.786 403.482C338.799 426.861 305.679 440.097 268.942 443.784C261.112 444.569 240.074 444.737 232.445 444.074V444.074ZM262.865 438.899C304.431 435.727 340.88 420.93 372.28 394.481C417.396 356.479 442.907 297.234 438.891 239.791C436.517 205.829 427.859 177.907 411.509 151.485C387.373 112.48 351.73 84.1987 308.916 70.0818C286.125 62.5668 260.034 59.2138 237.911 60.9566C188.93 64.8152 146.669 84.4127 113.884 118.47C72.9934 160.947 54.2763 218.023 62.3593 275.589C73.802 357.082 136.206 422.171 216.58 436.445C233.044 439.369 247.005 440.109 262.865 438.899V438.899ZM237.35 431.828C221.341 430.53 205.487 427.339 191.795 422.658C126.597 400.368 80.2248 344.703 69.6296 276.014C67.6191 262.979 67.609 235.8 69.611 223.113C73.4329 198.883 82.3385 174.639 94.7468 154.687C105.044 138.129 120.659 120.235 134.754 108.838C148.77 97.5059 169.072 85.777 185.6 79.4643C221.035 65.9298 263.325 64.1637 299.676 74.7004C349.379 89.1071 390.625 123.581 413.071 169.475C419.666 182.961 423.357 192.966 426.491 205.863C437.41 250.781 432.098 294.863 410.923 335.06C393.005 369.076 364.727 396.42 329.73 413.571C301.055 427.624 267.445 434.266 237.351 431.828H237.35ZM262.284 426.293C296.808 424.565 334.057 409.828 362.164 386.776C381.178 371.181 400.209 346.775 409.976 325.461C420.634 302.202 425.591 281.693 426.369 257.649C427.747 215.031 416.111 177.34 391.204 143.741C384.257 134.37 372.392 121.942 362.429 113.603C322.305 80.0193 266.83 66.0563 215.216 76.55C155.587 88.6734 106.946 129.78 84.514 187.006C80.6683 196.817 76.393 213.465 74.6283 225.501C72.8988 237.298 73.3656 268.489 75.4359 279.456C82.5419 317.102 97.7508 346.848 123.246 372.965C134.255 384.242 141.64 390.4 153.556 398.236C173.539 411.377 197.918 420.807 221.818 424.64C230.085 425.966 247.898 427.339 251.657 426.939C252.781 426.82 257.563 426.529 262.284 426.293ZM137.751 372.947C136.836 372.033 137.144 367.34 138.187 366.297C138.937 365.546 158.603 365.318 221.777 365.327C296.074 365.336 324.804 365.838 343.057 367.444C348.546 367.927 349.007 368.109 348.779 369.709C348.544 371.358 347.83 371.498 335.042 372.394C320.42 373.42 138.732 373.929 137.751 372.947V372.947ZM352.823 371.724C350.202 370.767 349.903 369.004 352.156 367.797C355.354 366.086 361.203 367.322 361.203 369.71C361.203 370.809 357.801 372.725 356.055 372.61C355.514 372.575 354.06 372.176 352.823 371.724ZM137.751 359.864C136.836 358.949 137.144 354.257 138.187 353.214C138.937 352.463 158.603 352.235 221.777 352.243C296.242 352.253 323.214 352.727 342.647 354.366C348.537 354.863 349.006 355.036 348.778 356.634C348.545 358.272 347.806 358.416 335.042 359.311C320.42 360.336 138.732 360.846 137.751 359.864V359.864ZM353.232 358.677C350.258 357.818 349.763 355.995 352.156 354.714C355.391 352.982 361.203 354.244 361.203 356.678C361.203 357.501 356.543 360.03 355.971 359.518C355.926 359.477 354.693 359.099 353.232 358.677V358.677ZM102.501 312.687C98.3209 308.506 100.609 301.746 107.695 297.34C112.034 294.642 112.031 294.648 113.172 283.305C113.605 279.004 114.115 277.482 115.431 276.559C117.396 275.183 122.491 274.95 122.491 276.237C122.491 277.395 118.612 302.824 117.898 306.348L117.336 309.117L121.828 308.744C130.516 308.024 135.571 301.273 135.571 290.388C135.571 287.133 135.179 283.433 134.701 282.167C132.599 276.603 125.703 272.133 119.22 272.133C114.879 272.133 109.089 274.548 107.841 276.88C106.446 279.488 106.788 282.607 108.593 283.735C110.543 284.953 110.816 288.451 108.961 288.451C104.365 288.451 100.62 283.334 101.669 278.488C103.574 269.689 115.617 264.517 127.255 267.499C139.414 270.615 144.943 277.832 144.872 290.495C144.825 298.974 142.62 304.278 137.066 309.273C131.863 313.952 128.818 314.907 120.992 314.316C113.508 313.75 114.134 313.75 108.836 314.316C105.049 314.721 104.356 314.542 102.501 312.687V312.687ZM110.115 304.965C111.439 300.78 110.989 300.03 108.238 301.833C104.153 304.51 103.408 309.279 107.159 308.747C108.524 308.553 109.291 307.572 110.115 304.965V304.965ZM151.971 313.187C151 312.4 149.915 310.468 149.56 308.894C148.741 305.258 150.876 285.832 152.186 284.999C153.833 283.951 157.468 284.304 158.804 285.641C159.963 286.799 160.252 286.799 161.906 285.641C165.869 282.864 171.541 285.01 171.541 289.286C171.541 290.801 170.967 291.972 169.96 292.511C167.476 293.84 165.818 293.525 165.818 291.722C165.818 289.358 162.091 289.202 160.324 291.493C159.499 292.563 159.756 293.277 161.809 295.616C167.125 301.671 167.31 309.068 162.248 313.169C159.942 315.037 154.267 315.047 151.971 313.187V313.187ZM160.895 308.923C162.771 307.736 162.42 302.259 160.293 299.555C158.263 296.974 158.05 297.255 157.303 303.494C156.688 308.637 158.062 310.714 160.895 308.923ZM177.672 313.678C174.988 312.06 174.047 310.303 174.015 306.85C173.965 301.519 175.83 286.49 176.679 285.385C177.589 284.199 181.227 284.05 182.932 285.129C183.941 285.768 183.955 287.29 183.03 296.108C182.44 301.738 182.177 306.918 182.446 307.619C183.065 309.232 186.969 309.285 189.217 307.71C190.646 306.709 191.073 304.993 191.981 296.605C192.933 287.813 193.268 286.545 194.917 285.464C195.941 284.793 197.814 284.363 199.079 284.508C201.685 284.807 201.632 283.747 199.803 298.904C198.661 308.366 199.246 310.693 202.351 309.031C205.412 307.392 206.759 304.04 208.085 294.755C208.806 289.714 209.799 285.319 210.293 284.988C211.802 283.978 215.43 284.295 216.453 285.527C217.287 286.533 217.826 286.521 220.407 285.443C224.231 283.845 229.135 284.473 231.708 286.891L233.672 288.736L235.781 286.754C238.802 283.915 245.709 283.915 248.73 286.754C251.158 289.036 251.415 292.194 249.944 301.68C249.191 306.53 249.241 307.646 250.257 308.662C251.996 310.401 254.511 308.827 256.629 304.673C258.14 301.71 258.477 301.465 259.552 302.54C260.627 303.615 260.556 304.203 258.939 307.645C255.762 314.406 248.152 316.911 243.853 312.611C241.674 310.431 241.405 307.396 242.566 298.111C242.886 295.554 242.879 292.735 242.551 291.846C241.344 288.583 236.414 288.944 234.547 292.433C234.108 293.252 233.362 297.2 232.888 301.204C231.178 315.643 231.601 314.618 227.356 314.618H223.635L224.155 309.507C225.864 292.71 225.847 291.149 223.946 290.132C219.229 287.607 216.89 291.502 215.106 304.856L213.802 314.618H209.839C206.832 314.618 205.877 314.317 205.877 313.37C205.877 312.252 205.627 312.252 203.465 313.37C199.744 315.295 195.505 314.978 193.311 312.61L191.451 310.603L189.72 312.335C187.656 314.399 180.241 315.226 177.673 313.678L177.672 313.678ZM271.648 312.611C267.548 308.51 269.894 301.708 276.914 297.343L280.889 294.872L281.805 287.722C282.309 283.79 282.722 279.805 282.722 278.868C282.722 277.691 283.519 276.885 285.296 276.266C288.547 275.132 291.715 275.109 291.715 276.219C291.715 280.176 287.165 305.955 285.995 308.631C283.406 314.55 275.719 316.682 271.648 312.611V312.611ZM277.988 308.281C279.49 306.551 280.53 300.717 279.338 300.717C278.882 300.717 277.433 301.792 276.119 303.107C272.929 306.298 272.992 309.213 276.26 309.647C276.527 309.683 277.305 309.068 277.988 308.281H277.988ZM299.419 312.727C297.483 311.062 297.15 310.024 296.619 303.987C296.088 297.937 295.766 296.936 293.866 295.421C292.533 294.358 291.715 292.895 291.715 291.578C291.715 289.8 292.178 289.364 294.54 288.921C300.59 287.785 302.846 280.177 298.397 275.914C293.102 270.839 282.895 270.98 277.677 276.2C274.654 279.223 274.699 281.607 277.812 283.379C280.025 284.638 281.083 287.364 279.841 288.607C278.911 289.537 275.197 288.134 272.892 285.98C268.284 281.674 270.252 273.725 276.89 269.834C280.17 267.911 281.711 267.591 288.842 267.349C296.498 267.089 297.319 267.22 301.525 269.38C309.01 273.223 311.262 279.841 307.535 287.049C306.871 288.333 305.066 290.129 303.523 291.039L300.718 292.695L302.491 294.131C303.899 295.271 304.327 296.645 304.569 300.8C305.049 309.031 305.31 309.712 307.98 309.712C311.477 309.712 312.597 307.783 312.282 302.305C311.636 291.103 320.392 283.083 331.454 284.742C343.853 286.602 346.33 303.512 335.423 311.833C333.018 313.668 331.327 314.212 327.219 314.474C322.816 314.754 321.485 314.492 318.298 312.709L314.551 310.615L311.603 312.616C307.658 315.294 302.457 315.341 299.419 312.727H299.419ZM330.893 307.561C334.562 302.894 334.895 295.469 331.621 291.306C325.76 283.853 316.754 298.524 321.953 307.054C324.102 310.579 328.331 310.818 330.893 307.561ZM352.578 313.512C349.166 311.965 345.848 307.812 345.181 304.254C344.535 300.814 345.87 294.242 347.818 291.269C349.792 288.256 355.521 285.195 360.233 284.637C365.496 284.014 370.977 286.469 373.525 290.591C374.983 292.951 375.227 294.379 374.966 299.004C374.609 305.324 372.675 308.949 367.924 312.206C364.47 314.573 356.428 315.257 352.578 313.512ZM363.302 308.313C368.439 303.175 367.822 290.959 362.356 289.586C359.825 288.951 358.282 289.716 356.041 292.719C352.844 297.002 352.82 306.342 356 308.668C358.014 310.14 361.651 309.964 363.302 308.313H363.302ZM381.9 312.498C379.611 310.209 379.602 309.922 381.311 294.38L381.873 289.269H379.304C376.995 289.269 376.735 289.021 376.735 286.816C376.735 284.575 376.974 284.363 379.494 284.363C382.657 284.363 382.795 284.011 383.751 273.448L384.318 267.191H387.376C391.792 267.191 392.569 268.562 391.893 275.158C391.581 278.197 391.131 281.511 390.891 282.523C390.479 284.264 390.702 284.363 395.041 284.363C399.59 284.363 399.626 284.381 399.626 286.816V289.269H394.72C392.023 289.269 389.815 289.496 389.815 289.774C389.815 290.052 390.965 291.589 392.37 293.19C398.089 299.705 398.796 308.03 393.995 312.321C390.452 315.487 384.968 315.568 381.9 312.499V312.498ZM393.085 304.004C393.085 300.949 392.618 299.447 391.129 297.715L389.172 295.44L388.572 301.849C387.926 308.737 388.65 310.393 391.611 308.808C392.724 308.212 393.085 307.036 393.085 304.004ZM260.701 268.736C260.673 268.012 260.096 261.903 259.42 255.159C257.581 236.814 254.965 230.626 244.35 219.5L238.246 213.104L235.163 219.234C233.467 222.605 230.03 230.621 227.526 237.046C225.021 243.471 222.82 248.88 222.634 249.066C222.144 249.556 222.979 244.005 224.459 236.936C226.674 226.352 229.335 219.909 239.319 200.962C245.972 188.336 249.189 181.344 249.567 178.69C249.891 176.41 249.579 171.037 248.807 165.607C247.353 155.382 245.336 145.682 245.19 148.215C245.138 149.114 243.624 152.504 241.825 155.748C238.136 162.401 228.422 173.028 216.887 183.032C208.253 190.519 205.65 194.642 201.196 207.881C198.753 215.141 198.489 215.606 198.897 211.921C199.639 205.218 201.609 198.514 204.689 192.203C207.002 187.464 209.84 183.931 219.187 174.156C231.856 160.907 235.401 155.713 238.987 145.15L241.309 138.31L234.961 126.908C231.47 120.637 225.488 110.723 221.668 104.876L214.723 94.246L226.332 105.694C233.783 113.041 240.809 120.986 245.946 127.872C252.346 136.452 255.563 139.912 262 145.142C266.428 148.738 275.029 156.789 281.113 163.031C290.743 172.911 292.613 175.281 295.553 181.332C300.656 191.834 300.568 193.117 295.27 185.443C292.64 181.633 288.281 176.147 285.583 173.251C281.215 168.563 254.844 145.98 254.334 146.49C254.223 146.602 254.659 149.452 255.304 152.825C255.949 156.197 256.737 163.347 257.055 168.713L257.632 178.47L262.91 185.829C275.026 202.725 279.981 217.232 280.644 237.753C280.84 243.825 280.812 247.873 280.582 246.748C280.352 245.624 279.258 240.104 278.15 234.483C274.92 218.092 271.101 207.209 265.631 198.808C263.033 194.818 259.47 189.967 257.713 188.029L254.518 184.504L248.526 195.548C245.23 201.622 242.339 207.34 242.1 208.254C241.772 209.507 243.255 211.615 248.137 216.834C254.9 224.065 258.276 229.658 260.334 237.043C261.869 242.549 262.792 265.134 261.6 268.009C261.086 269.25 260.732 269.536 260.701 268.736H260.701ZM96.1259 425.704C97.5872 425.251 98.7828 424.76 98.7828 424.612C98.7828 424.096 75.7737 401.141 75.5362 401.421C73.166 404.213 72.7001 412.98 74.6979 417.191C76.5659 421.128 80.9282 424.969 84.9796 426.243C88.5666 427.37 91.1465 427.246 96.1259 425.704ZM416.43 425.802C422.031 423.693 426.603 416.791 426.603 410.444C426.603 406.932 425.322 401.295 424.523 401.295C423.803 401.295 401.273 424.475 401.638 424.841C401.865 425.068 403.805 425.73 405.948 426.311C409.678 427.323 412.793 427.172 416.43 425.802V425.802ZM19.8933 250.019C19.8933 234.817 19.7898 233.665 18.4221 233.665C14.8268 233.665 8.12458 239.305 6.45464 243.735C5.33876 246.695 5.33975 253.347 6.45624 256.303C8.10323 260.663 14.786 266.364 18.2581 266.37C19.8387 266.373 19.8931 265.829 19.8931 250.019H19.8933ZM487.86 263.24C493.196 258.92 494.048 257.103 494.048 250.035C494.048 244.097 493.863 243.4 491.519 240.487C488.45 236.673 484.195 233.665 481.868 233.665C480.179 233.665 480.15 233.944 480.15 250.08V266.496L482.599 266.006C483.946 265.736 486.314 264.492 487.86 263.24ZM87.2803 87.2381C93.6067 80.9102 98.7828 75.6107 98.7828 75.4614C98.7828 74.7148 93.2051 73.3945 90.0507 73.3945C80.4636 73.3945 73.4401 80.4524 73.4401 90.0864C73.4401 93.7853 74.6529 98.7434 75.5577 98.7434C75.6788 98.7434 80.954 93.566 87.2803 87.2381V87.2381ZM425.816 95.7898C429.381 84.9844 421.301 73.3945 410.202 73.3945C406.796 73.3945 401.26 74.7002 401.26 75.5035C401.26 76.0091 423.688 98.5493 424.292 98.6509C424.594 98.7018 425.28 97.4143 425.816 95.7898ZM266.372 18.7318C266.372 16.6524 263.855 12.3253 261.084 9.63831C256.009 4.71866 247.404 3.94102 240.836 7.80863C238.018 9.46814 233.671 15.7334 233.672 18.1351C233.672 19.7995 234.011 19.8348 250.022 19.8348C263.196 19.8348 266.372 19.6205 266.372 18.7318Z" fill="black"/>
</svg>
