<?xml version="1.0" encoding="iso-8859-1"?>
<!-- Generator: Adobe Illustrator 16.0.0, SVG Export Plug-In . SVG Version: 6.00 Build 0)  -->
<!DOCTYPE svg PUBLIC "-//W3C//DTD SVG 1.1//EN" "http://www.w3.org/Graphics/SVG/1.1/DTD/svg11.dtd">
<svg version="1.1" id="Capa_1" xmlns="http://www.w3.org/2000/svg" xmlns:xlink="http://www.w3.org/1999/xlink" x="0px" y="0px"
	 width="60.817px" height="60.817px" viewBox="0 0 60.817 60.817" style="enable-background:new 0 0 60.817 60.817;"
	 xml:space="preserve">
<g>
	<g>
		<path d="M12.138,5.079c-0.179,0.375-0.289,0.79-0.289,1.231v2.721c-0.395,0.04-0.708,0.361-0.708,0.767
			c0,0.694,0.265,1.329,0.708,1.917v10.564c-0.395,0.04-0.708,0.361-0.708,0.767c0,0.693,0.265,1.329,0.708,1.917v2.266h-0.01
			c0,0.661,0.279,1.269,0.749,1.829c-0.227,0.32-0.362,0.708-0.362,1.13c0,1.083,0.879,1.963,1.964,1.963
			c0.264,0,0.514-0.054,0.745-0.147l13.914,7.508v8.962l-12.934,5.823c-0.332-0.256-0.742-0.416-1.195-0.416
			c-1.084,0-1.963,0.88-1.963,1.965c0,1.084,0.879,1.963,1.963,1.963c0.944,0,1.73-0.666,1.92-1.553l12.208-5.498v3.123
			c0,0.865,0.7,1.562,1.562,1.562c0.862,0,1.562-0.697,1.562-1.562v-2.134l7.408,6.757c-0.021,0.113-0.035,0.229-0.035,0.349
			c0,1.084,0.879,1.964,1.963,1.964c1.085,0,1.964-0.88,1.964-1.964s-0.879-1.963-1.964-1.963c-0.181,0-0.354,0.031-0.521,0.078
			l-7.403-6.753l3.422,0.296c0.299,0.449,0.809,0.745,1.388,0.745c0.921,0,1.67-0.748,1.67-1.67c0-0.921-0.749-1.67-1.67-1.67
			c-0.475,0-0.901,0.201-1.207,0.52l-5.016-0.434V39.51l14.124-7.62c0.285,0.161,0.61,0.261,0.961,0.261
			c1.084,0,1.964-0.879,1.964-1.963c0-0.545-0.223-1.038-0.581-1.394c0.34-0.487,0.538-1.006,0.538-1.565h-0.009v-2.267
			c0.441-0.589,0.706-1.223,0.706-1.917c0-0.404-0.312-0.726-0.706-0.765V11.713c0.441-0.588,0.706-1.223,0.706-1.917
			c0-0.404-0.312-0.726-0.706-0.766V6.311c0-0.443-0.109-0.857-0.289-1.232C47.797,2.229,39.958,0,30.409,0
			C20.861,0,13.019,2.23,12.138,5.079z M30.411,2.083c5.073,0,8.962,0.609,11.671,1.354C43.93,3.946,45.215,4.516,45.96,5
			c0.35,0.228,0.592,0.439,0.697,0.614c-0.652,1.079-6.074,3.53-16.247,3.53c-10.172,0-15.595-2.45-16.247-3.53
			C14.269,5.439,14.51,5.229,14.862,5c0.745-0.484,2.029-1.054,3.878-1.562C21.448,2.693,25.337,2.083,30.411,2.083z M47.409,24.418
			c-0.712,0.7-1.961,1.368-3.638,1.945v-2.761c0-0.431-0.35-0.781-0.781-0.781c-0.431,0-0.781,0.35-0.781,0.781v3.24
			c-2.846,0.764-6.6,1.277-10.989,1.334v-3.041c0-0.432-0.35-0.781-0.781-0.781c-0.431,0-0.781,0.35-0.781,0.781v3.042
			c-4.381-0.053-8.136-0.56-10.987-1.319v-2.943c0-0.432-0.35-0.781-0.781-0.781s-0.781,0.35-0.781,0.781v2.468
			c-1.705-0.582-2.975-1.257-3.696-1.965v-11.3c0.983,0.641,2.233,1.196,3.696,1.657v2.169c0,0.431,0.35,0.781,0.781,0.781
			s0.781-0.35,0.781-0.781v-1.729c3.195,0.802,7.079,1.229,10.987,1.278v1.67c0,0.431,0.351,0.781,0.781,0.781
			c0.431,0,0.781-0.35,0.781-0.781v-1.671c3.913-0.053,7.798-0.483,10.989-1.291v1.428c0,0.431,0.351,0.781,0.781,0.781
			c0.432,0,0.781-0.35,0.781-0.781v-1.875c1.438-0.458,2.669-1.005,3.638-1.638V24.418z M30.411,11.227
			c7.688,0,14.264-1.446,16.998-3.496v3.44c-0.712,0.7-1.961,1.368-3.638,1.944v-1.366c0-0.431-0.35-0.781-0.781-0.781
			c-0.431,0-0.781,0.35-0.781,0.781v1.846c-2.846,0.765-6.6,1.277-10.989,1.334v-1.647c0-0.432-0.35-0.781-0.781-0.781
			c-0.431,0-0.781,0.35-0.781,0.781v1.647c-4.381-0.053-8.136-0.56-10.987-1.319v-2.507c0-0.431-0.35-0.781-0.781-0.781
			s-0.781,0.35-0.781,0.781v2.033c-1.705-0.582-2.975-1.257-3.696-1.965V7.732C16.147,9.781,22.723,11.227,30.411,11.227z
			 M20.15,32.452c2.645,0.558,5.666,0.889,8.698,0.973v3.72L20.15,32.452z M31.973,37.144v-3.72
			c3.032-0.084,6.053-0.415,8.697-0.973L31.973,37.144z M46.882,28.242c-0.692,0.062-1.275,0.478-1.571,1.07
			c-2.674,1.36-7.785,2.543-14.669,2.569c-0.076-0.01-0.152-0.022-0.23-0.022c-0.078,0-0.155,0.013-0.23,0.022
			c-6.441-0.024-11.34-1.062-14.134-2.309c-0.259-0.781-0.987-1.349-1.856-1.349c-0.083,0-0.164,0.014-0.244,0.025
			c-0.348-0.35-0.542-0.696-0.542-1.02h0.009v-0.862c0.983,0.641,2.233,1.195,3.695,1.657v0.774c0,0.431,0.35,0.781,0.781,0.781
			c0.432,0,0.781-0.35,0.781-0.781v-0.334c3.195,0.802,7.079,1.229,10.988,1.278v0.276c0,0.431,0.35,0.782,0.781,0.782
			s0.781-0.351,0.781-0.782V29.74c3.912-0.053,7.8-0.484,10.988-1.291v0.521c0,0.431,0.351,0.781,0.781,0.781
			c0.432,0,0.781-0.35,0.781-0.781V28c1.438-0.457,2.669-1.005,3.638-1.637v0.863h0.01C47.418,27.55,47.224,27.894,46.882,28.242z"
			/>
	</g>
</g>
<g>
</g>
<g>
</g>
<g>
</g>
<g>
</g>
<g>
</g>
<g>
</g>
<g>
</g>
<g>
</g>
<g>
</g>
<g>
</g>
<g>
</g>
<g>
</g>
<g>
</g>
<g>
</g>
<g>
</g>
</svg>
