<?xml version="1.0" encoding="iso-8859-1"?>
<!-- Generator: Adobe Illustrator 18.1.1, SVG Export Plug-In . SVG Version: 6.00 Build 0)  -->
<svg version="1.1" id="Capa_1" xmlns="http://www.w3.org/2000/svg" xmlns:xlink="http://www.w3.org/1999/xlink" x="0px" y="0px"
	 viewBox="0 0 48.648 48.648" style="enable-background:new 0 0 48.648 48.648;" xml:space="preserve">
<g>
	<path style="fill:#010002;" d="M24.324,48.648c10.451,0,18.924-8.472,18.924-18.924c0-7.343-4.191-13.696-10.304-16.833L25.641,0
		l4.949,11.884c-1.964-0.69-4.067-1.085-6.266-1.085c-1.97,0-3.869,0.302-5.655,0.861l6.546-11.436l-9.121,12.479
		C9.771,15.767,5.4,22.226,5.4,29.724C5.4,40.175,13.872,48.648,24.324,48.648z M24.324,16.8c7.126,0,12.924,5.798,12.924,12.924
		S31.45,42.648,24.324,42.648S11.4,36.85,11.4,29.724S17.197,16.8,24.324,16.8z M24.324,24.786c2.727,0,4.938,2.211,4.938,4.938
		s-2.211,4.938-4.938,4.938s-4.938-2.211-4.938-4.938S21.597,24.786,24.324,24.786z M24.324,41.162
		c6.307,0,11.438-5.131,11.438-11.438s-5.131-11.438-11.438-11.438s-11.438,5.131-11.438,11.438S18.017,41.162,24.324,41.162z
		 M24.324,18.786c6.041,0,10.938,4.897,10.938,10.938s-4.897,10.938-10.938,10.938s-10.938-4.897-10.938-10.938
		S18.283,18.786,24.324,18.786z M24.324,39.995c5.664,0,10.271-4.608,10.271-10.271s-4.608-10.271-10.271-10.271
		c-5.664,0-10.271,4.608-10.271,10.271S18.66,39.995,24.324,39.995z M24.324,19.953c5.397,0,9.771,4.375,9.771,9.771
		c0,5.397-4.375,9.771-9.771,9.771c-5.397,0-9.771-4.375-9.771-9.771C14.552,24.327,18.927,19.953,24.324,19.953z M24.324,38.829
		c5.02,0,9.105-4.084,9.105-9.105c0-5.02-4.084-9.105-9.105-9.105c-5.02,0-9.105,4.084-9.105,9.105
		C15.219,34.744,19.303,38.829,24.324,38.829z M24.324,21.119c4.752,0,8.605,3.852,8.605,8.605c0,4.752-3.853,8.605-8.605,8.605
		s-8.605-3.853-8.605-8.605S19.571,21.119,24.324,21.119z M24.324,37.574c4.329,0,7.85-3.522,7.85-7.85
		c0-4.329-3.522-7.85-7.85-7.85c-4.329,0-7.85,3.522-7.85,7.85C16.474,34.053,19.995,37.574,24.324,37.574z M24.324,22.374
		c4.059,0,7.35,3.291,7.35,7.35s-3.291,7.35-7.35,7.35s-7.35-3.291-7.35-7.35S20.264,22.374,24.324,22.374z"/>
</g>
<g>
</g>
<g>
</g>
<g>
</g>
<g>
</g>
<g>
</g>
<g>
</g>
<g>
</g>
<g>
</g>
<g>
</g>
<g>
</g>
<g>
</g>
<g>
</g>
<g>
</g>
<g>
</g>
<g>
</g>
</svg>
