<?xml version="1.0" encoding="iso-8859-1"?>
<!-- Generator: Adobe Illustrator 16.0.0, SVG Export Plug-In . SVG Version: 6.00 Build 0)  -->
<!DOCTYPE svg PUBLIC "-//W3C//DTD SVG 1.1//EN" "http://www.w3.org/Graphics/SVG/1.1/DTD/svg11.dtd">
<svg version="1.1" id="Capa_1" xmlns="http://www.w3.org/2000/svg" xmlns:xlink="http://www.w3.org/1999/xlink" x="0px" y="0px"
	 width="59.098px" height="59.098px" viewBox="0 0 59.098 59.098" style="enable-background:new 0 0 59.098 59.098;"
	 xml:space="preserve">
<g>
	<g>
		<path d="M1.908,44.417L0,46.328l12.608,12.607l1.909-1.909l-0.703-0.703c6.3-2.687,18.84-10.341,26.998-16.575l1.875-0.509
			l2.208-0.6l2.586-0.702l2.158-0.586l2.617-0.71l3.958-1.074c0.948-0.258,1.681-1.201,1.637-2.108
			c-0.049-0.905-0.849-1.434-1.797-1.176l-9.54,2.589c6.392-6.421,10.537-12.708,11.99-18.197c1.368-5.173,0.359-9.649-2.92-12.945
			c-1.246-1.252-2.671-2.188-4.232-2.78c-1.387-0.527-2.872-0.786-4.443-0.786c-4.2,0-9.01,1.859-14.17,5.451
			c4.085,2.279,7.661,5.424,9.39,9.323c0.429,0.969-0.418,1.85-1.195,1.85c-0.357,0-0.7-0.186-0.898-0.634
			c-1.7-3.835-5.363-6.846-9.465-8.944c-0.688,0.535-1.381,1.095-2.08,1.688c4.337,2.3,8.184,5.568,9.997,9.662
			c0.43,0.969-0.416,1.851-1.193,1.851c-0.357,0-0.7-0.186-0.899-0.635c-1.755-3.96-5.605-7.041-9.871-9.145
			c-0.624,0.572-1.252,1.167-1.882,1.783c4.422,2.305,8.363,5.609,10.206,9.767c0.43,0.969-0.417,1.851-1.194,1.851
			c-0.357,0-0.7-0.185-0.898-0.634c-1.759-3.968-5.619-7.05-9.893-9.155c-0.525,0.581-1.075,1.218-1.644,1.904
			c4.333,2.3,8.176,5.566,9.988,9.656c0.43,0.969-0.417,1.85-1.194,1.85c-0.358,0-0.7-0.185-0.899-0.634
			c-1.698-3.83-5.354-6.839-9.451-8.938c-0.5,0.64-1.01,1.305-1.525,1.996c4.102,2.28,7.695,5.435,9.429,9.346
			c0.429,0.97-0.417,1.851-1.195,1.851c-0.357,0-0.7-0.185-0.898-0.634c-1.605-3.622-4.964-6.507-8.788-8.585
			c-0.486,0.672-0.972,1.36-1.461,2.059c3.796,2.243,7.071,5.252,8.701,8.933c0.429,0.968-0.417,1.851-1.195,1.851
			c-0.357,0-0.7-0.187-0.899-0.634c-1.493-3.372-4.502-6.105-7.991-8.143C9.114,33.079,4.587,40.696,2.629,45.137L1.908,44.417z
			 M14.579,29.702c2.318,1.688,3.985,3.604,4.877,5.615c0.597,1.347,1.854,2.183,3.279,2.183c1.296,0,2.554-0.696,3.285-1.819
			c0.359-0.553,0.566-1.176,0.615-1.812c1.202-0.086,2.343-0.764,3.024-1.812c0.36-0.552,0.566-1.176,0.615-1.811
			c1.202-0.086,2.342-0.763,3.024-1.81c0.36-0.553,0.566-1.176,0.616-1.812c1.201-0.086,2.342-0.764,3.023-1.81
			c0.36-0.554,0.566-1.177,0.615-1.812c1.202-0.086,2.343-0.763,3.024-1.81c0.36-0.554,0.566-1.176,0.615-1.812
			c1.203-0.086,2.343-0.763,3.024-1.81c0.719-1.103,0.826-2.482,0.291-3.69c-1.345-3.036-3.708-5.835-6.922-8.235
			c3.412-1.893,6.589-2.88,9.322-2.88c1.258,0,2.44,0.207,3.521,0.617c1.213,0.46,2.327,1.195,3.31,2.183
			c2.627,2.639,3.384,6.153,2.248,10.442c-1.354,5.123-5.358,11.102-11.578,17.291c-0.93,0.924-2.143,1.978-3.558,3.109
			l-2.268,0.615L36.5,37.588l-2.646,0.717l-2.104,0.572l-2.617,0.71l-2.161,0.586l-2.585,0.702l-12.572,3.411
			c-0.949,0.257-1.681,1.2-1.636,2.108c0.007,0.145,0.035,0.278,0.077,0.402c0.229,0.651,0.923,0.99,1.72,0.773l13.644-3.702
			l2.519-0.684l2.34-0.634l2.535-0.689l0.63-0.171c-7.244,4.966-15.79,10.03-20.582,12.122l-7.909-7.947
			C6.854,42.126,10.49,35.885,14.579,29.702z"/>
	</g>
</g>
<g>
</g>
<g>
</g>
<g>
</g>
<g>
</g>
<g>
</g>
<g>
</g>
<g>
</g>
<g>
</g>
<g>
</g>
<g>
</g>
<g>
</g>
<g>
</g>
<g>
</g>
<g>
</g>
<g>
</g>
</svg>
