<?xml version="1.0" encoding="iso-8859-1"?>
<!-- Generator: Adobe Illustrator 18.0.0, SVG Export Plug-In . SVG Version: 6.00 Build 0)  -->
<!DOCTYPE svg PUBLIC "-//W3C//DTD SVG 1.1//EN" "http://www.w3.org/Graphics/SVG/1.1/DTD/svg11.dtd">
<svg version="1.1" id="Capa_1" xmlns="http://www.w3.org/2000/svg" xmlns:xlink="http://www.w3.org/1999/xlink" x="0px" y="0px"
	 viewBox="0 0 489.027 489.027" style="enable-background:new 0 0 489.027 489.027;" xml:space="preserve">
<path d="M465.272,82.916c0-17.017-22.991-30.755-68.335-40.831c-39.018-8.671-90.235-13.612-144.923-14.027V7.5
	c0-4.142-3.358-7.5-7.5-7.5c-4.142,0-7.5,3.358-7.5,7.5v20.557c-54.688,0.415-105.905,5.356-144.923,14.027
	C46.746,52.161,23.755,65.899,23.755,82.916c0,5.226,2.178,10.142,6.497,14.739c-4.308,4.601-6.496,9.559-6.497,14.81
	c0,17.017,22.991,30.755,68.335,40.831c37.873,8.416,87.24,13.319,140.119,13.979v235.49l-79.107,65.596
	c-1.532,1.27-2.496,3.097-2.681,5.078c-0.185,1.981,0.426,3.955,1.697,5.485l6.137,7.393c1.483,1.787,3.621,2.711,5.775,2.71
	c1.687,0,3.384-0.566,4.783-1.727l63.396-52.566v42.597c0,4.142,3.358,7.5,7.5,7.5h9.609c4.142,0,7.5-3.358,7.5-7.5v-42.597
	l63.396,52.566c1.4,1.161,3.096,1.727,4.783,1.727c2.154,0,4.291-0.923,5.775-2.71l6.137-7.393c1.271-1.531,1.881-3.504,1.697-5.485
	c-0.185-1.981-1.149-3.808-2.681-5.078l-79.107-65.597V167.274c52.877-0.66,102.245-5.563,140.119-13.979
	c45.344-10.076,68.335-23.814,68.335-40.831c0-5.251-2.188-10.21-6.497-14.811C463.094,93.057,465.272,88.142,465.272,82.916z
	 M244.514,75.36c4.142,0,7.5-3.358,7.5-7.5v-4.629c29.045,0.667,47.893,5.105,54.973,8.473c-7.672,3.649-29.156,8.561-62.473,8.561
	c-33.317,0-54.8-4.912-62.473-8.562c7.08-3.368,25.928-7.807,54.973-8.473v4.629C237.014,72.003,240.372,75.36,244.514,75.36z
	 M393.683,138.653c-39.761,8.836-92.737,13.702-149.169,13.701c-56.432,0-109.409-4.866-149.17-13.702
	c-44.762-9.947-56.589-21.479-56.589-26.187c0-1.586,1.287-3.588,3.603-5.704c11.394,6.476,27.985,12.153,49.732,16.985
	c40.797,9.066,94.929,14.059,152.428,14.059h0.004c57.49,0,111.619-4.993,152.415-14.059c21.75-4.833,38.342-10.511,49.735-16.987
	c2.317,2.117,3.6,4.121,3.6,5.705C450.272,117.173,438.445,128.706,393.683,138.653z M393.684,109.104
	c-39.761,8.836-92.734,13.702-149.162,13.702h-0.008c-56.433,0-109.409-4.866-149.17-13.702
	c-44.762-9.947-56.589-21.48-56.589-26.188c0-4.709,11.827-16.241,56.589-26.189c37.994-8.443,88.057-13.258,141.669-13.669v5.169
	c-17.021,0.38-32.863,2.05-45.233,4.799c-11.608,2.58-27.042,7.323-27.042,18.678c0,11.356,15.433,16.099,27.042,18.679
	c14.169,3.149,32.897,4.883,52.733,4.883s38.563-1.734,52.733-4.883c11.608-2.58,27.042-7.323,27.042-18.678
	c0-11.355-15.433-16.099-27.042-18.678c-12.369-2.749-28.212-4.419-45.233-4.799v-5.169c53.612,0.412,103.675,5.227,141.669,13.669
	c44.762,9.947,56.589,21.48,56.589,26.189C450.272,87.624,438.445,99.156,393.684,109.104z"/>
<g>
</g>
<g>
</g>
<g>
</g>
<g>
</g>
<g>
</g>
<g>
</g>
<g>
</g>
<g>
</g>
<g>
</g>
<g>
</g>
<g>
</g>
<g>
</g>
<g>
</g>
<g>
</g>
<g>
</g>
</svg>
