<?xml version="1.0" encoding="iso-8859-1"?>
<!-- Generator: Adobe Illustrator 16.0.0, SVG Export Plug-In . SVG Version: 6.00 Build 0)  -->
<!DOCTYPE svg PUBLIC "-//W3C//DTD SVG 1.1//EN" "http://www.w3.org/Graphics/SVG/1.1/DTD/svg11.dtd">
<svg version="1.1" id="Capa_1" xmlns="http://www.w3.org/2000/svg" xmlns:xlink="http://www.w3.org/1999/xlink" x="0px" y="0px"
	 width="57.106px" height="57.106px" viewBox="0 0 57.106 57.106" style="enable-background:new 0 0 57.106 57.106;"
	 xml:space="preserve">
<g>
	<g>
		<path d="M7.599,8.108c0-0.036,0.025-0.062,0.039-0.092C6.029,8,4.425,7.821,3.125,7.478v0.827
			c1.187,0.296,2.718,0.493,4.475,0.511V8.108z"/>
		<path d="M14.927,6.373c-0.421,0.391-1.07,0.716-1.875,0.969c0.036,0.045,0.064,0.096,0.064,0.156v0.659
			c0.847-0.256,1.469-0.564,1.81-0.884L14.927,6.373L14.927,6.373z"/>
		<path d="M2.604,7.328c-0.785-0.25-1.419-0.57-1.833-0.955v0.899c0.344,0.323,0.975,0.633,1.833,0.891V7.328z"/>
		<path d="M12.595,8.3V7.498c0-0.011,0.012-0.019,0.013-0.03c-1.302,0.347-2.911,0.531-4.527,0.548
			c0.014,0.031,0.039,0.057,0.039,0.092v0.707C9.877,8.797,11.41,8.598,12.595,8.3z"/>
		<path d="M0.915,4.892C0.913,4.896,0.911,4.898,0.909,4.902C0.871,4.957,0.846,5.015,0.823,5.073
			C0.79,5.159,0.767,5.246,0.767,5.333c0,0.007,0.003,0.014,0.003,0.021c0.039,1.186,3.19,2.143,7.078,2.143
			c3.887,0,7.039-0.957,7.079-2.143c0-0.007,0.003-0.014,0.003-0.021c0-0.089-0.023-0.175-0.057-0.26
			c-0.023-0.058-0.048-0.115-0.085-0.171c-0.002-0.003-0.004-0.007-0.006-0.01c-0.043-0.062-0.096-0.125-0.156-0.185
			c-0.88-0.89-3.58-1.538-6.777-1.538c-3.197,0-5.896,0.648-6.777,1.538C1.011,4.767,0.958,4.829,0.915,4.892z"/>
		<path d="M14.452,12.883c0.191-0.109,0.353-0.223,0.475-0.337V7.927c-0.457,0.305-1.077,0.565-1.81,0.772V9.44
			c0,0.144-0.116,0.261-0.26,0.261c-0.144,0-0.26-0.117-0.26-0.261V8.836c-1.32,0.313-2.909,0.482-4.476,0.5v0.715
			c0,0.144-0.116,0.261-0.26,0.261s-0.261-0.117-0.261-0.261V9.337C6.034,9.321,4.446,9.154,3.125,8.842v0.726
			c0,0.144-0.117,0.26-0.261,0.26s-0.26-0.117-0.26-0.26V8.707c-0.743-0.209-1.372-0.47-1.833-0.778v4.619
			c0.122,0.114,0.283,0.227,0.474,0.337c0.348,0.2,0.805,0.387,1.358,0.554v-1.095c0-0.059,0.029-0.109,0.063-0.153
			c0.048-0.062,0.114-0.107,0.197-0.107c0.024,0,0.039,0.019,0.061,0.025c0.11,0.03,0.2,0.115,0.2,0.235v1.238
			c0.136,0.034,0.275,0.066,0.421,0.098c1.12,0.241,2.499,0.396,4.053,0.411v-0.182v-1.079c0-0.144,0.117-0.26,0.261-0.26
			s0.26,0.116,0.26,0.26v1.119v0.143c0.447-0.005,0.883-0.019,1.299-0.045c1.219-0.08,2.292-0.248,3.177-0.47v-1.356
			c0-0.057,0.029-0.101,0.06-0.144c0.046-0.066,0.113-0.116,0.201-0.116c0.144,0,0.26,0.116,0.26,0.26l0,0v1.212
			C13.66,13.266,14.109,13.08,14.452,12.883z"/>
		<path d="M24.833,7.825c0-0.045,0.03-0.076,0.047-0.114c-1.94-0.018-3.874-0.236-5.441-0.648v1.001
			c1.431,0.357,3.277,0.594,5.395,0.616V7.825z"/>
		<path d="M18.815,6.882c-0.948-0.302-1.711-0.689-2.21-1.152v1.088c0.415,0.388,1.176,0.763,2.21,1.072V6.882z"/>
		<path d="M30.854,8.056V7.089c0-0.015,0.014-0.025,0.016-0.039c-1.568,0.418-3.507,0.64-5.457,0.66
			c0.017,0.039,0.048,0.069,0.048,0.115v0.853C27.578,8.654,29.424,8.416,30.854,8.056z"/>
		<path d="M33.66,5.73c-0.508,0.471-1.29,0.864-2.262,1.169c0.044,0.054,0.079,0.117,0.079,0.19v0.795
			c1.021-0.308,1.772-0.68,2.183-1.065V5.73z"/>
		<path d="M33.665,4.48c0-0.106-0.026-0.211-0.067-0.314c-0.027-0.069-0.059-0.138-0.103-0.206
			c-0.003-0.004-0.005-0.008-0.008-0.012c-0.053-0.076-0.115-0.15-0.188-0.224c-1.062-1.071-4.314-1.852-8.166-1.852
			c-3.853,0-7.105,0.781-8.166,1.853c-0.073,0.073-0.137,0.148-0.189,0.225c-0.003,0.004-0.006,0.008-0.008,0.012
			c-0.045,0.067-0.075,0.137-0.103,0.205c-0.041,0.103-0.067,0.207-0.067,0.314c0,0.01,0.004,0.018,0.004,0.027
			c0.047,1.428,3.845,2.582,8.527,2.582c4.682,0,8.48-1.154,8.527-2.582C33.661,4.498,33.665,4.49,33.665,4.48z"/>
		<path d="M33.09,13.577c0.23-0.132,0.425-0.268,0.571-0.405V7.603c-0.55,0.369-1.298,0.681-2.184,0.931v0.895
			c0,0.173-0.138,0.313-0.312,0.313c-0.173,0-0.312-0.14-0.312-0.313V8.699c-1.591,0.378-3.505,0.581-5.395,0.602v0.864
			c0,0.173-0.14,0.312-0.312,0.312c-0.173,0-0.313-0.139-0.313-0.312V9.302c-1.887-0.02-3.801-0.221-5.395-0.597V9.58
			c0,0.173-0.14,0.312-0.312,0.312c-0.173,0-0.312-0.14-0.312-0.312V8.542c-0.896-0.252-1.656-0.567-2.21-0.938v5.568
			c0.147,0.137,0.341,0.272,0.571,0.405c0.42,0.241,0.971,0.468,1.64,0.669v-1.322c0-0.073,0.035-0.133,0.077-0.187
			c0.058-0.073,0.136-0.126,0.236-0.126c0.027,0,0.044,0.023,0.07,0.029c0.135,0.035,0.242,0.137,0.242,0.283v1.493
			c1.431,0.357,3.277,0.595,5.395,0.615v-1.522c0-0.173,0.14-0.312,0.313-0.312c0.172,0,0.312,0.14,0.312,0.312v1.522
			c2.119-0.022,3.966-0.262,5.395-0.62v-1.637c0-0.068,0.035-0.122,0.071-0.172c0.056-0.08,0.135-0.139,0.239-0.139
			c0.174,0,0.312,0.139,0.313,0.312l0,0v1.465C32.133,14.04,32.675,13.815,33.09,13.577z"/>
		<path d="M56.333,6.19V4.744c-0.628,0.602-1.623,1.099-2.864,1.484c0.074,0.067,0.123,0.161,0.123,0.269v1.02
			C54.866,7.133,55.811,6.672,56.333,6.19z"/>
		<path d="M35.091,14.105c0.182,0.165,0.417,0.329,0.694,0.488c0.531,0.306,1.234,0.594,2.083,0.847v-1.674
			c0-0.093,0.036-0.176,0.095-0.241c0.066-0.075,0.162-0.124,0.27-0.124c0.026,0,0.049,0.01,0.074,0.015
			c0.165,0.036,0.29,0.174,0.29,0.349v1.875c1.794,0.451,4.111,0.75,6.769,0.775v-1.921c0-0.201,0.163-0.364,0.365-0.364
			s0.365,0.162,0.365,0.364v1.921c2.659-0.027,4.979-0.329,6.769-0.782v-2.054c0-0.08,0.032-0.151,0.075-0.211
			c0.067-0.09,0.168-0.153,0.289-0.153c0.197,0,0.357,0.158,0.362,0.355c0,0.003,0.002,0.005,0.002,0.009v1.852
			c0.834-0.251,1.522-0.536,2.049-0.837c0.276-0.159,0.513-0.323,0.693-0.488V7.115c-0.688,0.463-1.628,0.854-2.743,1.168v1.13
			c0,0.201-0.162,0.364-0.365,0.364c-0.201,0-0.364-0.162-0.364-0.364V8.475c-1.991,0.476-4.398,0.73-6.769,0.755v1.099
			c0,0.201-0.163,0.364-0.365,0.364s-0.365-0.162-0.365-0.364V9.23c-2.368-0.023-4.773-0.275-6.769-0.748V9.6
			c0,0.201-0.162,0.365-0.364,0.365c-0.201,0-0.364-0.163-0.364-0.365V8.292c-1.129-0.316-2.084-0.709-2.778-1.178v6.992H35.091z"/>
		<path d="M45.365,7.413c0-0.072,0.025-0.135,0.062-0.191c-2.439-0.02-4.869-0.293-6.83-0.813v1.318
			c1.793,0.451,4.109,0.75,6.769,0.775V7.413z"/>
		<path d="M37.868,6.2c-1.201-0.381-2.164-0.869-2.778-1.457V6.19c0.528,0.485,1.486,0.95,2.778,1.335V6.2z"/>
		<path d="M52.864,7.718V6.497c0-0.036,0.011-0.071,0.021-0.104c-1.963,0.527-4.4,0.807-6.854,0.829
			c0.037,0.056,0.062,0.12,0.062,0.191v1.088C48.755,8.474,51.072,8.173,52.864,7.718z"/>
		<path d="M45.713,0c-4.798,0-8.85,0.973-10.17,2.308c-0.092,0.092-0.171,0.185-0.235,0.279c-0.003,0.005-0.007,0.009-0.009,0.014
			c-0.058,0.084-0.094,0.171-0.129,0.256c-0.051,0.128-0.084,0.258-0.084,0.392c0,0.011,0.005,0.021,0.005,0.032
			c0.059,1.779,4.788,3.216,10.622,3.216c5.833,0,10.563-1.437,10.622-3.216c0-0.012,0.005-0.022,0.005-0.032
			c0-0.133-0.033-0.263-0.084-0.392c-0.034-0.086-0.073-0.171-0.128-0.256c-0.004-0.005-0.006-0.01-0.011-0.015
			c-0.063-0.095-0.143-0.188-0.233-0.279C54.563,0.972,50.511,0,45.713,0z"/>
		<path d="M56.34,15.745c0-0.082-0.021-0.164-0.041-0.244c0.008-0.06,0.036-0.111,0.036-0.173v-0.3
			c-0.059,0.04-0.122,0.079-0.183,0.117c-0.667,0.413-1.54,0.764-2.56,1.052v0.38v0.208c0,0.201-0.163,0.365-0.364,0.365
			c-0.202,0-0.364-0.163-0.364-0.365v-0.208v-0.188c-0.281,0.066-0.57,0.13-0.866,0.188c-0.944,0.186-1.959,0.327-3.005,0.423
			c-0.952,0.087-1.928,0.133-2.899,0.144v0.267c0,0.201-0.163,0.365-0.364,0.365s-0.364-0.163-0.364-0.365v-0.267
			c-2.049-0.02-4.124-0.209-5.938-0.566c-0.285-0.057-0.561-0.117-0.83-0.181v0.181v0.104c0,0.202-0.163,0.365-0.365,0.365
			s-0.364-0.162-0.364-0.365v-0.104v-0.371c-0.064-0.018-0.133-0.034-0.196-0.052c-0.952-0.279-1.766-0.617-2.398-1.009
			c-0.063-0.039-0.124-0.078-0.183-0.117v0.299c0,0.062,0.025,0.113,0.034,0.173c-0.02,0.081-0.041,0.161-0.041,0.244
			c0,0.074,0.021,0.147,0.036,0.219l-2.522-0.188c0.678-0.374,1.067-0.804,1.067-1.263c0-0.066-0.018-0.131-0.031-0.196
			c0.006-0.047,0.027-0.09,0.027-0.139v-0.22c-0.045,0.03-0.091,0.06-0.14,0.089c-0.533,0.33-1.231,0.611-2.043,0.843v0.292v0.167
			c0,0.173-0.14,0.312-0.313,0.312c-0.173,0-0.312-0.14-0.312-0.312V15.18v-0.127c-0.189,0.045-0.386,0.087-0.583,0.127
			c-0.572,0.116-1.176,0.211-1.799,0.285c-0.37,0.044-0.746,0.078-1.126,0.107c-0.453,0.035-0.911,0.062-1.369,0.075
			c-0.172,0.005-0.345,0.005-0.517,0.007v0.193c0,0.173-0.14,0.312-0.312,0.312c-0.173,0-0.313-0.14-0.313-0.312v-0.193
			c-1.673-0.017-3.366-0.177-4.838-0.475c-0.189-0.039-0.375-0.079-0.556-0.122v0.122v0.083c0,0.173-0.14,0.313-0.312,0.313
			c-0.173,0-0.312-0.14-0.312-0.313V15.18v-0.285c-0.223-0.062-0.438-0.13-0.643-0.2c-0.553-0.19-1.034-0.406-1.428-0.65
			c-0.047-0.029-0.093-0.06-0.138-0.09v0.22c0,0.049,0.021,0.092,0.028,0.139c-0.015,0.064-0.032,0.13-0.032,0.196
			c0,0.023,0.009,0.044,0.011,0.068l-2.141-0.161c0.292-0.236,0.458-0.493,0.458-0.76c0-0.056-0.014-0.108-0.027-0.162
			c0.005-0.04,0.023-0.075,0.023-0.116v-0.181c-0.038,0.025-0.076,0.05-0.115,0.074c-0.443,0.274-1.022,0.508-1.695,0.7v0.245v0.104
			v0.034c0,0.144-0.116,0.26-0.26,0.26c-0.144,0-0.26-0.116-0.26-0.26v-0.073v-0.065V14.11c-0.156,0.038-0.317,0.072-0.481,0.105
			c-0.035,0.007-0.067,0.015-0.103,0.021c-1.192,0.233-2.55,0.358-3.892,0.373v0.16c0,0.144-0.117,0.26-0.26,0.26
			c-0.144,0-0.261-0.116-0.261-0.26v-0.16c-1.388-0.015-2.794-0.147-4.017-0.395c-0.155-0.032-0.308-0.065-0.457-0.101v0.101v0.068
			c0,0.144-0.117,0.261-0.261,0.261c-0.091,0-0.16-0.057-0.206-0.129c-0.026-0.041-0.054-0.081-0.054-0.131v-0.068V13.98
			c-0.684-0.193-1.27-0.428-1.718-0.705c-0.04-0.024-0.077-0.05-0.115-0.075v0.181c0,0.041,0.018,0.077,0.023,0.115
			c-0.013,0.054-0.027,0.107-0.027,0.162c0,0.554,0.687,1.059,1.806,1.441c0.081,0.596,0.543,1.082,1.167,1.128l21.932,1.639v8.083
			c-0.271,0.278-0.439,0.657-0.439,1.077v4.026c0,0.42,0.168,0.8,0.439,1.077V34.9l-13.78,19.267
			c-0.705,0.113-1.243,0.72-1.243,1.456c0,0.818,0.664,1.481,1.482,1.481c0.817,0,1.481-0.663,1.481-1.481
			c0-0.083-0.012-0.164-0.025-0.244l6.068-8.483l6.395,3.424c0.067,0.057,0.14,0.104,0.217,0.141
			c0.029,0.014,0.058,0.026,0.088,0.038c0.077,0.028,0.16,0.036,0.241,0.049c0.007,0,0.014,0.002,0.02,0.005
			c0.034,0.002,0.062,0.018,0.095,0.018c0.001,0,0.001,0,0.002,0l0,0c0,0,0,0,0.001,0c0.01,0,0.021-0.003,0.031-0.004
			c0.011,0,0.021,0.004,0.031,0.004c0.244,0,0.477-0.092,0.665-0.25l2.054-1.1l0.455,1.718c-0.069,0.161-0.109,0.337-0.109,0.523
			c0,0.73,0.593,1.323,1.323,1.323c0.732,0,1.325-0.593,1.325-1.323c0-0.422-0.211-0.781-0.519-1.023l-0.589-2.228l2.454-1.312
			l6.014,8.407c-0.022,0.104-0.036,0.21-0.036,0.32c0,0.818,0.664,1.481,1.481,1.481s1.481-0.663,1.481-1.481
			c0-0.712-0.501-1.304-1.17-1.447L27.79,34.859c-0.004-0.006-0.011-0.008-0.015-0.015c-0.006-0.008-0.013-0.016-0.019-0.025v-2.574
			c0.345-0.284,0.569-0.708,0.569-1.19v-4.026c0-0.481-0.225-0.906-0.569-1.189v-7.816l23.723,1.773
			c0.032,0.003,0.064,0.004,0.098,0.004c0.676,0,1.246-0.521,1.297-1.205c0.012-0.154-0.017-0.299-0.056-0.44
			C54.976,17.562,56.34,16.703,56.34,15.745z M25.672,38.482v9.271l-4.795-2.566L25.672,38.482z M27.756,47.788v-5.164l1.194,4.524
			L27.756,47.788z M32.615,45.187l-1.778,0.952l-1.439-5.448L32.615,45.187z"/>
	</g>
</g>
<g>
</g>
<g>
</g>
<g>
</g>
<g>
</g>
<g>
</g>
<g>
</g>
<g>
</g>
<g>
</g>
<g>
</g>
<g>
</g>
<g>
</g>
<g>
</g>
<g>
</g>
<g>
</g>
<g>
</g>
</svg>
