<?xml version="1.0" encoding="iso-8859-1"?>
<!-- Generator: Adobe Illustrator 16.0.0, SVG Export Plug-In . SVG Version: 6.00 Build 0)  -->
<!DOCTYPE svg PUBLIC "-//W3C//DTD SVG 1.1//EN" "http://www.w3.org/Graphics/SVG/1.1/DTD/svg11.dtd">
<svg version="1.1" id="Capa_1" xmlns="http://www.w3.org/2000/svg" xmlns:xlink="http://www.w3.org/1999/xlink" x="0px" y="0px"
	 width="61.981px" height="61.982px" viewBox="0 0 61.981 61.982" style="enable-background:new 0 0 61.981 61.982;"
	 xml:space="preserve">
<g>
	<g>
		<path d="M51.783,3.38c-0.832-0.214-1.672-0.318-2.514-0.318c-6.578,0-13.187,6.315-15.513,15.347
			c-0.014,0.052-0.022,0.102-0.035,0.152c2.274-0.8,4.363-2.985,6.978-2.985c0.165,0,0.333,0.008,0.503,0.027
			c3.062,0.331,4.721,3.367,6.159,5.706c1.053,1.712,2.634,2.824,4.434,2.824c0.647,0,1.324-0.143,2.014-0.456
			c0.783-0.353,1.646-0.996,2.552-0.996c0.033,0,0.067,0.001,0.102,0.003c1.662,0.089,2.882,1.115,3.888,2.375
			C62.877,14.938,59.07,5.256,51.783,3.38z M58.922,21.198c-0.745-0.354-1.526-0.549-2.351-0.594
			c-0.07-0.004-0.143-0.006-0.213-0.006c-1.185,0-2.168,0.527-2.886,0.912c-0.179,0.096-0.353,0.192-0.522,0.27
			c-0.397,0.18-0.787,0.271-1.156,0.271c-0.974,0-1.943-0.668-2.658-1.832l-0.27-0.441c-1.499-2.458-3.551-5.824-7.44-6.244
			c-0.239-0.026-0.483-0.04-0.726-0.04c0,0,0,0-0.001,0c-1.159,0-2.198,0.291-3.147,0.702c2.721-5.385,7.261-9.05,11.719-9.05
			c0.675,0,1.346,0.084,1.994,0.251C56.632,6.78,59.729,13.523,58.922,21.198z"/>
		<path d="M56.438,25.976c-0.177,0-0.358,0.043-0.542,0.137c-0.936,0.477-1.815,0.84-2.849,1.05
			c-0.428,0.087-0.889,0.129-1.366,0.129c-1.755,0-3.711-0.584-4.88-1.741c-2.075-2.054-3.698-6.705-6.731-6.704
			c-0.625,0-1.312,0.2-2.077,0.66c-1.766,1.067-3.06,2.079-4.616,2.417c0.183,1.958,0.088,3.86-0.275,5.637
			c0.39,3.239,1.458,6.142,3.087,8.381c-0.003-0.001-0.005-0.001-0.006-0.001c-0.015,0,0.031,0.053,0.097,0.129
			c0.12,0.163,0.239,0.327,0.365,0.481c0.711,1.005,1.658,4.179,1.174,7.527c1.656,2.698,2.647,5.664,2.518,8.007
			c-0.055,1.003-0.336,2.092-0.973,2.893c-0.358,0.449-0.854,0.611-1.391,0.751c-0.4,0.105-0.812,0.178-1.224,0.178
			c-0.236,0-0.473-0.023-0.709-0.08c-0.612-0.145-1.19-0.426-1.736-0.735c-0.32,3.289,0.381,6.077,2.109,6.777l-0.012,0.04
			c0.05,0.013,0.1,0.009,0.148,0.017c0.048,0.016,0.09,0.044,0.139,0.056l0.01-0.039c0.09,0.01,0.18,0.016,0.269,0.016
			c3.104,0,6.423-6.263,6.368-12.391c-0.038-4.256,2.864-8.385,4.543-9.433c4.59-1.342,8.847-5.571,11.255-11.402
			C58.48,27.597,57.532,25.976,56.438,25.976z M38.039,59.192c-0.424,0.428-0.755,0.607-0.958,0.663
			c-0.217-0.218-0.527-0.817-0.68-1.874c0.116,0.007,0.233,0.011,0.349,0.011c0.55,0,1.121-0.079,1.751-0.244
			c0.192-0.051,0.459-0.122,0.76-0.236C38.87,58.203,38.453,58.775,38.039,59.192z M47.296,38.137l-0.274,0.079l-0.244,0.152
			c-1.879,1.173-4.431,4.638-5.255,8.597c-0.396-1.107-0.918-2.232-1.552-3.344c0.134-1.482,0.041-2.98-0.199-4.321l1.88,0.613
			l-3.16-4.349c-0.048-0.075-0.096-0.147-0.145-0.215l-0.043-0.06l-0.046-0.056c-0.062-0.078-0.124-0.159-0.184-0.241l-0.201-0.274
			c-1.367-1.88-2.284-4.327-2.661-7.088c0.255-1.374,0.365-2.8,0.335-4.258c0.841-0.388,1.624-0.885,2.434-1.4
			c0.346-0.22,0.707-0.448,1.09-0.681c0.39-0.236,0.736-0.359,1-0.359c0.927,0,2.101,1.768,3.046,3.188
			c0.685,1.029,1.392,2.094,2.22,2.914c1.482,1.466,3.854,2.343,6.346,2.343c0.62,0,1.22-0.058,1.779-0.171
			c0.957-0.194,1.838-0.494,2.863-0.981c0.149,0.177,0.315,0.418,0.473,0.662C54.605,33.598,51.106,37.022,47.296,38.137z"/>
		<path d="M36.947,54.842c0.399,0,0.794-0.078,1.152-0.265c0.289-0.149,0.586-0.465,0.763-0.734c0.361-0.551,0.437-1.282,0.46-1.925
			c0.026-0.763-0.09-1.519-0.249-2.262c-0.303-1.414-0.891-2.802-1.572-4.073c-0.118-0.219-0.239-0.437-0.367-0.654
			c-0.127-0.217-0.264-0.43-0.4-0.642c-0.729-1.135-1.585-2.226-2.566-3.189c-3.037-2.982-3.905-7.956-3.458-9.884
			c0.612-1.118,1.054-2.371,1.341-3.708c0.365-1.702,0.466-3.545,0.292-5.463c-0.036-0.385-0.079-0.773-0.137-1.164
			c-0.101-0.678-0.239-1.364-0.406-2.051c-0.292-1.208-0.69-2.424-1.194-3.635c-0.764-0.206-1.729-0.46-2.543-0.46
			c-0.755,0-1.382,0.219-1.603,0.898c-0.324,0.998-0.689,1.877-1.271,2.755c-1.128,1.7-3.466,3.267-5.557,3.278
			c-0.01,0-0.021,0-0.031,0c-1.94,0-4.541-0.936-6.694-0.936c-1.758,0-3.219,0.625-3.778,2.89c-0.523,2.121-0.722,3.821-1.718,5.204
			c3.408,4.29,7.825,7.025,12.062,7.694c-0.026,0.013,0.047,0.017,0.155,0.025c0.2,0.03,0.4,0.062,0.599,0.082
			c1.671,0.285,6.567,3.146,7.928,8.019c0.989,3.54,3.156,6.78,5.375,8.629c0.152,0.125,0.302,0.251,0.453,0.364
			c0.525,0.391,1.084,0.732,1.699,0.964C36.081,54.749,36.517,54.842,36.947,54.842z M34.866,51.672
			c-2.044-1.704-3.89-4.682-4.702-7.587c-1.537-5.503-6.972-9.065-9.583-9.513c-0.048-0.009-0.097-0.016-0.146-0.021
			c-0.125-0.013-0.249-0.032-0.375-0.051l-0.13-0.019c-0.007-0.002-0.015-0.002-0.027-0.004c-0.034-0.007-0.07-0.014-0.104-0.019
			c-3.452-0.545-6.99-2.665-9.872-5.882c0.445-1.023,0.687-2.103,0.938-3.223c0.089-0.395,0.18-0.807,0.287-1.236
			c0.256-1.037,0.616-1.305,1.755-1.305c0.896,0,2.02,0.227,3.105,0.445c1.197,0.241,2.434,0.49,3.628,0.49h0.001
			c2.958-0.015,5.901-2.129,7.282-4.209c0.538-0.811,0.949-1.646,1.33-2.714c0.242,0.019,0.521,0.067,0.802,0.128
			c0.287,0.787,0.527,1.58,0.719,2.367c0.165,0.679,0.286,1.288,0.37,1.864c0.052,0.352,0.09,0.702,0.123,1.05
			c0.155,1.697,0.069,3.325-0.254,4.836c-0.252,1.176-0.632,2.234-1.131,3.145c-0.091,0.167-0.16,0.346-0.202,0.531
			c-0.607,2.626,0.479,8.352,4.028,11.838c0.821,0.808,1.587,1.759,2.273,2.829c0.121,0.189,0.244,0.379,0.357,0.571
			c0.113,0.194,0.222,0.389,0.326,0.584c0.682,1.269,1.143,2.454,1.37,3.522c0.157,0.739,0.221,1.281,0.204,1.755
			c-0.021,0.634-0.1,0.818-0.118,0.854c-0.009,0.013-0.022,0.03-0.037,0.047c-0.034,0.007-0.079,0.013-0.136,0.013
			c-0.157,0-0.345-0.039-0.529-0.108c-0.363-0.135-0.752-0.359-1.188-0.686C35.108,51.875,34.988,51.773,34.866,51.672z"/>
		<path d="M11.172,16.412c1.625,0,3.322,0.462,4.815,0.818c0.557,0.133,1.11,0.201,1.646,0.201c2.019,0,3.789-0.969,4.587-3.085
			c0.314-0.833,0.471-1.948,1.173-2.579c0.955-0.857,2.117-1.136,3.335-1.136c0.361,0,0.728,0.025,1.096,0.066
			C23.812,4.011,17.471,0,11.815,0c-1.91,0-3.743,0.458-5.378,1.424c-6.521,3.849-7.469,14.313-2.12,23.374
			c0.027,0.045,0.056,0.087,0.083,0.132c1.108-2.312,0.962-5.582,3.196-7.38C8.654,16.698,9.891,16.412,11.172,16.412z
			 M4.012,19.167C3.127,16.528,2.773,13.854,3,11.345c0.339-3.729,1.934-6.616,4.495-8.127c1.275-0.753,2.729-1.134,4.321-1.134
			c4.247,0,8.822,2.627,12.272,6.893c-0.779,0.279-1.476,0.692-2.086,1.24c-0.955,0.856-1.298,1.998-1.55,2.832
			c-0.058,0.195-0.115,0.386-0.18,0.56c-0.436,1.153-1.324,1.738-2.639,1.738c-0.37,0-0.762-0.049-1.163-0.144l-0.502-0.121
			c-1.455-0.353-3.104-0.753-4.796-0.753c-1.921,0-3.563,0.538-4.881,1.598C5.152,16.843,4.473,17.997,4.012,19.167z"/>
	</g>
</g>
<g>
</g>
<g>
</g>
<g>
</g>
<g>
</g>
<g>
</g>
<g>
</g>
<g>
</g>
<g>
</g>
<g>
</g>
<g>
</g>
<g>
</g>
<g>
</g>
<g>
</g>
<g>
</g>
<g>
</g>
</svg>
