<svg xmlns="http://www.w3.org/2000/svg" width="375.161" height="423.19" viewBox="0 0 375.161 423.19">
  <path id="snare-drum" d="M375.161,238.044V211.595c0-14.582-10.52-26.449-23.448-26.449H291.836a16.818,16.818,0,0,0,2.876-2.583c4.494-5.061,6.2-12.158,4.674-19.44-2.665-12.7-14.311-24.078-31.17-30.426-10.458-3.923-10.458-3.923-26.98-18.426-6.026-5.3-14.436-12.66-26.253-22.782,20.61-14.706,46.325-33.467,78.549-57.7A9.2,9.2,0,0,0,297,26.449C297,11.867,286.483,0,273.555,0a7.176,7.176,0,0,0-4.541,1.64c-34.788,28.028-61.175,49.76-81.433,66.7C167.33,51.4,140.936,29.667,106.147,1.64A7.176,7.176,0,0,0,101.606,0C88.679,0,78.159,11.867,78.159,26.449a9.178,9.178,0,0,0,3.478,7.335c32.233,24.236,57.939,43,78.549,57.7-11.825,10.121-20.227,17.483-26.253,22.782-16.531,14.5-16.531,14.5-26.988,18.426-16.859,6.348-28.512,17.721-31.17,30.426-1.524,7.282.18,14.38,4.674,19.44a17.116,17.116,0,0,0,2.876,2.583H23.448C10.52,185.146,0,197.013,0,211.595v26.449H15.632V370.291H0v26.449c0,14.582,10.52,26.449,23.448,26.449H351.714c12.927,0,23.448-11.867,23.448-26.449V370.291H359.53V238.044ZM263.27,149.43c14.733,5.528,20.063,13.762,20.907,17.748.4,1.9-.2,2.557-.508,2.918a4.093,4.093,0,0,1-2.775.723c-6.769,0-18.461-7.318-23.323-23.61C259.2,147.878,261.05,148.593,263.27,149.43Zm12.4-131.471a8.11,8.11,0,0,1,4.83,4.426c-32.725,24.554-58.47,43.271-78.87,57.757-.32-.264-.625-.538-.946-.8C219.852,63.346,244.254,43.28,275.665,17.959Zm-181,4.426A8.123,8.123,0,0,1,99.5,17.959c31.412,25.321,55.805,45.378,74.985,61.38-.32.264-.633.538-.954.8C153.144,65.656,127.391,46.939,94.666,22.385ZM90.992,167.178c.828-3.985,6.175-12.22,20.9-17.748,2.212-.838,4.064-1.552,5.706-2.222-4.861,16.284-16.554,23.61-23.323,23.61A4.074,4.074,0,0,1,91.5,170.1C91.188,169.734,90.594,169.073,90.992,167.178Zm41.471-14.5c1.845-6.207,1.845-6.207,19.133-17.624,7.957-5.255,19.516-12.9,35.984-24.3,16.46,11.4,28.028,19.044,35.984,24.3,17.3,11.417,17.3,11.417,19.133,17.615,4.893,16.566,15.061,27.428,25.433,32.48H107.03C117.41,180.1,127.571,169.232,132.463,152.675ZM359.53,396.741c0,4.858-3.5,8.816-7.816,8.816H23.448c-4.307,0-7.816-3.959-7.816-8.816v-8.816h343.9ZM117.238,255.677V238.044H257.923v17.633H242.292v96.981h15.632v17.633H117.238V352.658H132.87V255.677Zm156.317,0V238.044H343.9V370.291H273.555V352.658h15.632V255.677Zm0,79.348H257.923V273.31h15.632Zm-156.317,0H101.606V273.31h15.632Zm-15.632-79.348H85.974v96.981h15.632v17.633H31.263V238.044h70.343ZM15.632,220.411v-8.816c0-4.858,3.509-8.816,7.816-8.816H351.714c4.314,0,7.816,3.959,7.816,8.816v8.816Z"/>
</svg>
