<?xml version="1.0" encoding="iso-8859-1"?>
<!-- Generator: Adobe Illustrator 16.0.0, SVG Export Plug-In . SVG Version: 6.00 Build 0)  -->
<!DOCTYPE svg PUBLIC "-//W3C//DTD SVG 1.1//EN" "http://www.w3.org/Graphics/SVG/1.1/DTD/svg11.dtd">
<svg version="1.1" id="Capa_1" xmlns="http://www.w3.org/2000/svg" xmlns:xlink="http://www.w3.org/1999/xlink" x="0px" y="0px"
	 width="64.125px" height="64.125px" viewBox="0 0 64.125 64.125" style="enable-background:new 0 0 64.125 64.125;"
	 xml:space="preserve">
<g>
	<g>
		<path d="M38.511,13.257c-1.016-2.573-3.516-4.396-6.449-4.396s-5.434,1.823-6.449,4.396c2.073-0.482,4.23-0.746,6.449-0.746
			C34.282,12.511,36.438,12.775,38.511,13.257z"/>
		<path d="M59.778,34.494c0.488,2.085,0.755,4.256,0.755,6.488c0,2.187-0.256,4.314-0.727,6.361
			c2.533-1.032,4.319-3.516,4.319-6.421C64.125,38.01,62.327,35.52,59.778,34.494z"/>
		<path d="M4.318,47.344c-0.47-2.047-0.726-4.175-0.726-6.361c0-2.232,0.266-4.403,0.755-6.488C1.8,35.52,0,38.01,0,40.925
			C-0.001,43.828,1.786,46.312,4.318,47.344z"/>
		<path d="M17.402,16.586c-2.52-1.137-5.582-0.699-7.685,1.344c-2.099,2.04-2.625,5.082-1.568,7.63
			C10.509,21.912,13.676,18.833,17.402,16.586z"/>
		<path d="M55.975,25.56c1.058-2.548,0.531-5.59-1.568-7.63c-2.102-2.042-5.163-2.479-7.685-1.344
			C50.449,18.833,53.616,21.912,55.975,25.56z"/>
		<path d="M55.304,26.8c-2.4-3.941-5.779-7.219-9.794-9.508c-2.058-1.173-4.276-2.091-6.625-2.697
			c-2.181-0.563-4.467-0.865-6.823-0.865c-2.356,0-4.644,0.3-6.824,0.865c-2.347,0.606-4.567,1.524-6.624,2.697
			c-4.015,2.29-7.393,5.567-9.794,9.508c-1.365,2.241-2.415,4.695-3.087,7.3c-0.563,2.181-0.865,4.468-0.865,6.823
			c0,2.357,0.3,4.646,0.865,6.825c0.394,1.524,0.917,2.997,1.556,4.405l10.109,0.009c0,0.004-0.001,0.006-0.001,0.011
			c0,1.707,1.384,3.091,3.091,3.091h23.149c1.704,0,3.083-1.378,3.09-3.08l10.091,0.009c0.647-1.42,1.176-2.906,1.573-4.444
			c0.563-2.183,0.865-4.468,0.865-6.825c0-2.355-0.3-4.643-0.865-6.823C57.719,31.495,56.669,29.042,55.304,26.8z"/>
	</g>
</g>
<g>
</g>
<g>
</g>
<g>
</g>
<g>
</g>
<g>
</g>
<g>
</g>
<g>
</g>
<g>
</g>
<g>
</g>
<g>
</g>
<g>
</g>
<g>
</g>
<g>
</g>
<g>
</g>
<g>
</g>
</svg>
