<?xml version="1.0" encoding="iso-8859-1"?>
<!-- Generator: Adobe Illustrator 19.0.0, SVG Export Plug-In . SVG Version: 6.00 Build 0)  -->
<svg version="1.1" id="Layer_1" xmlns="http://www.w3.org/2000/svg" xmlns:xlink="http://www.w3.org/1999/xlink" x="0px" y="0px"
	 viewBox="0 0 512.001 512.001" style="enable-background:new 0 0 512.001 512.001;" xml:space="preserve">
<g>
	<g>
		<path d="M377.306,219.466l4.864-4.87L507.525,89.229c5.968-5.968,5.968-15.656,0-21.624c-5.969-5.968-15.644-5.967-21.611,0.001
			L366.356,187.164l-0.007,0.007l-14.576,14.576l-0.015,0.015L275.83,70.255c-7.514-13.011-20.219-21.439-34.776-23.359
			c-2.102-0.278-4.244-0.42-6.413-0.42c-17.193,0-32.591,8.89-41.188,23.779L6.449,394.142c0,0,0,0,0,0.001
			c-8.598,14.891-8.598,32.689-0.001,47.581c8.597,14.892,23.995,23.801,41.189,23.801h374.007c17.195,0,32.593-8.91,41.189-23.8
			c4.304-7.453,6.452-15.559,6.448-23.763c-0.005-8.186-2.153-16.321-6.448-23.759l-95.253-165.01l0.02-0.008L377.306,219.466z
			 M419.845,409.303c0.895,1.55,1.338,3.343,1.333,5.134c-0.005,1.771-0.448,3.679-1.333,5.211c-1.78,3.084-5.07,5.362-8.631,5.362
			H58.067c-3.561,0-6.85-2.279-8.631-5.362c-0.896-1.551-1.338-3.381-1.333-5.142c0.005-1.741,0.448-3.514,1.333-5.048
			l176.573-305.899c1.78-3.084,5.07-5.021,8.631-5.021s6.85,1.88,8.631,4.964l75.681,131.069l0.002,0.003l-53.446,53.443
			l-0.002,0.002c4.386,2.265,8.448,5.209,12.038,8.8c3.918,3.918,7.01,8.352,9.299,13.08l0.705-0.705l47.227-47.228L419.845,409.303
			z"/>
	</g>
</g>
<g>
	<g>
		<path d="M268.147,306.213c-3.722-3.724-8.076-6.426-12.716-8.124c-1.224-0.448-2.464-0.833-3.721-1.14
			c-2.738-0.668-5.541-1.002-8.345-1.002c-0.507,0-1.014,0.014-1.521,0.036c-0.203,0.009-0.406,0.024-0.609,0.036
			c-1.722,0.104-3.437,0.336-5.131,0.693c-6.392,1.347-12.479,4.488-17.453,9.435c-0.023,0.022-0.046,0.042-0.068,0.065
			c-1.284,1.284-2.446,2.641-3.489,4.059c-0.347,0.472-0.682,0.953-1.002,1.439c-7.058,10.689-7.644,24.392-1.764,35.583
			c0.802,1.526,1.724,3.005,2.767,4.424s2.205,2.777,3.489,4.06c5.714,5.714,12.911,9.033,20.353,9.977
			c0.764,0.097,1.531,0.17,2.299,0.216c0.71,0.043,1.419,0.072,2.13,0.072c2.804,0,5.606-0.335,8.345-1.002
			c6.024-1.47,11.733-4.558,16.438-9.263c0.855-0.855,1.658-1.744,2.405-2.661C281.781,339.349,280.979,319.044,268.147,306.213z"/>
	</g>
</g>
<g>
</g>
<g>
</g>
<g>
</g>
<g>
</g>
<g>
</g>
<g>
</g>
<g>
</g>
<g>
</g>
<g>
</g>
<g>
</g>
<g>
</g>
<g>
</g>
<g>
</g>
<g>
</g>
<g>
</g>
</svg>
