<?xml version="1.0" encoding="iso-8859-1"?>
<!-- Generator: Adobe Illustrator 19.0.0, SVG Export Plug-In . SVG Version: 6.00 Build 0)  -->
<svg version="1.1" id="Layer_1" xmlns="http://www.w3.org/2000/svg" xmlns:xlink="http://www.w3.org/1999/xlink" x="0px" y="0px"
	 viewBox="0 0 470 470" style="enable-background:new 0 0 470 470;" xml:space="preserve">
<g>
	<g>
		<g>
			<path d="M45,165c16.62,0,31.153-9.063,38.946-22.5H447.5c12.407,0,22.5-10.094,22.5-22.5s-10.093-22.5-22.5-22.5H83.946
				C76.153,84.063,61.62,75,45,75C20.187,75,0,95.187,0,120S20.187,165,45,165z M89.363,112.5H447.5c4.136,0,7.5,3.364,7.5,7.5
				s-3.364,7.5-7.5,7.5H89.363C89.774,125.06,90,122.556,90,120C90,117.444,89.774,114.94,89.363,112.5z M45,90
				c16.542,0,30,13.458,30,30s-13.458,30-30,30s-30-13.458-30-30S28.458,90,45,90z"/>
			<path d="M462.5,190H7.5c-4.142,0-7.5,3.357-7.5,7.5v190c0,4.143,3.358,7.5,7.5,7.5h455c4.142,0,7.5-3.357,7.5-7.5v-190
				C470,193.357,466.642,190,462.5,190z M455,380H15V205h440V380z"/>
			<circle cx="75" cy="347.5" r="7.5"/>
			<circle cx="45" cy="317.5" r="7.5"/>
			<circle cx="395" cy="347.5" r="7.5"/>
			<path d="M62.5,285h315c4.142,0,7.5-3.357,7.5-7.5s-3.358-7.5-7.5-7.5h-315c-9.649,0-17.5-7.851-17.5-17.5S52.851,235,62.5,235
				h345c9.649,0,17.5,7.851,17.5,17.5s-7.851,17.5-17.5,17.5c-4.142,0-7.5,3.357-7.5,7.5s3.358,7.5,7.5,7.5
				c17.92,0,32.5-14.579,32.5-32.5c0-17.921-14.58-32.5-32.5-32.5h-345C44.58,220,30,234.579,30,252.5S44.58,285,62.5,285z"/>
		</g>
	</g>
</g>
<g>
</g>
<g>
</g>
<g>
</g>
<g>
</g>
<g>
</g>
<g>
</g>
<g>
</g>
<g>
</g>
<g>
</g>
<g>
</g>
<g>
</g>
<g>
</g>
<g>
</g>
<g>
</g>
<g>
</g>
</svg>
