<?xml version="1.0" encoding="iso-8859-1"?>
<!-- Generator: Adobe Illustrator 16.0.0, SVG Export Plug-In . SVG Version: 6.00 Build 0)  -->
<!DOCTYPE svg PUBLIC "-//W3C//DTD SVG 1.1//EN" "http://www.w3.org/Graphics/SVG/1.1/DTD/svg11.dtd">
<svg version="1.1" id="Capa_1" xmlns="http://www.w3.org/2000/svg" xmlns:xlink="http://www.w3.org/1999/xlink" x="0px" y="0px"
	 width="61.116px" height="61.117px" viewBox="0 0 61.116 61.117" style="enable-background:new 0 0 61.116 61.117;"
	 xml:space="preserve">
<g>
	<g>
		<path d="M8.829,18.651V5.781H4.444v12.87c0.657-0.328,1.396-0.531,2.192-0.531C7.432,18.12,8.171,18.324,8.829,18.651z"/>
		<path d="M15.631,18.6V5.781h-4.384V18.6c0.653-0.297,1.389-0.48,2.191-0.48S14.978,18.303,15.631,18.6z"/>
		<path d="M29.236,18.669V5.781h-4.384v12.852c0.648-0.316,1.374-0.512,2.154-0.512C27.818,18.12,28.57,18.331,29.236,18.669z"/>
		<path d="M36.039,18.676V5.781h-4.384v12.845c0.644-0.312,1.366-0.505,2.141-0.505C34.613,18.12,35.369,18.333,36.039,18.676z"/>
		<path d="M49.643,18.689V5.781h-4.384v12.832c0.639-0.304,1.351-0.493,2.117-0.493C48.203,18.12,48.97,18.337,49.643,18.689z"/>
		<path d="M56.446,18.695V5.781h-4.384v12.825c0.635-0.301,1.344-0.486,2.104-0.486C54.998,18.12,55.769,18.339,56.446,18.695z"/>
		<path d="M6.637,20.724c-1.146,0-2.075,0.783-2.075,1.748v29.28l4.149-1.675V22.473C8.711,21.507,7.783,20.724,6.637,20.724z"/>
		<path d="M13.439,20.724c-1.146,0-2.075,0.656-2.075,1.467v26.815l4.149-1.676v-25.14C15.514,21.381,14.585,20.724,13.439,20.724z"
			/>
		<path d="M22.291,22.473c0-0.966-0.929-1.748-2.075-1.748c-1.146,0-2.075,0.782-2.075,1.748v23.799l4.149-1.676L22.291,22.473
			L22.291,22.473z"/>
		<path d="M27.007,20.724c-1.146,0-2.075,0.783-2.075,1.748V43.53l4.149-1.674V22.473C29.081,21.507,28.152,20.724,27.007,20.724z"
			/>
		<path d="M33.796,20.724c-1.146,0-2.075,0.783-2.075,1.748v18.319l4.149-1.675V22.473C35.871,21.507,34.941,20.724,33.796,20.724z"
			/>
		<path d="M42.66,22.473c0-0.966-0.929-1.748-2.074-1.748s-2.074,0.782-2.074,1.748v15.578l4.148-1.676V22.473L42.66,22.473z"/>
		<path d="M47.377,20.724c-1.146,0-2.075,0.783-2.075,1.748v12.837l4.149-1.675V22.473C49.451,21.507,48.522,20.724,47.377,20.724z"
			/>
		<path d="M54.166,20.724c-1.146,0-2.075,0.783-2.075,1.748V32.57l4.149-1.675v-8.423C56.241,21.507,55.312,20.724,54.166,20.724z"
			/>
		<path d="M2.203,59.226v-2.291l1.057-0.437l0.624-0.257l0.678-0.28l4.149-1.715l0.049-0.02l1.252-0.519l0.05-0.02l1.252-0.518
			l0.049-0.021l4.149-1.714l0.024-0.009l1.278-0.529l0.024-0.008l1.278-0.529l0.024-0.009l4.149-1.714l0.037-0.015l1.266-0.522
			l1.229-0.509l0.074-0.029l3.077-1.271l1.109-0.459l0.145-0.061l1.157-0.478l1.302-0.537l0.691-0.287l3.152-1.302l0.343-0.141
			l0.912-0.379l0.391-0.16l1.302-0.539l1.459-0.603l4.03-1.664l0.375-0.157l0.927-0.381l2.224-0.919l3.265-1.349l1.143-0.472
			l0.159-0.065l2.993-1.237l2.495-1.031l0.74-0.307l0.562-0.232l0.065-0.027v1.817v1.237v0.362h2.084v-4.277V2.26V0.575h-2.084V2.26
			H2.203V0H0.119v2.261v55.535v2.494h2.083V59.226z M58.912,4.344v26.904l-0.067,0.028l-1.302,0.538l-0.039,0.018l-1.261,0.521
			l-3.499,1.447l-0.688,0.282l-1.266,0.523l-0.036,0.014l-1.267,0.523l-0.035,0.015l-4.149,1.715l-0.037,0.015l-1.266,0.523
			l-0.036,0.015l-1.266,0.523l-0.036,0.014l-4.148,1.715l-0.037,0.015l-1.266,0.522l-0.036,0.017l-1.266,0.523l-0.037,0.014
			l-4.147,1.715l-0.037,0.015l-1.266,0.522l-0.037,0.015l-1.265,0.522l-0.037,0.016l-4.149,1.714L24.898,45.3l-1.266,0.523
			l-0.037,0.016l-1.265,0.522l-0.037,0.015l-4.149,1.715l-0.024,0.011l-1.278,0.526l-0.024,0.011l-1.278,0.527l-0.024,0.01
			l-4.148,1.715l-0.049,0.02l-1.253,0.518l-0.049,0.021l-1.253,0.517l-0.049,0.021l-4.149,1.715l-1.302,0.537l-0.156,0.064
			l-0.901,0.373V21.149V4.344H58.912z"/>
		<path d="M53.826,53.229c0.363,0.628,0.963,1.121,1.718,1.327c1.521,0.416,3.094-0.479,3.51-2c0.416-1.521-0.479-3.094-2-3.51
			c-1.374-0.375-2.779,0.323-3.348,1.582L38.442,51.39l11.452-5.547c0.578,0.436,1.323,0.655,2.099,0.551
			c1.564-0.211,2.659-1.648,2.449-3.212c-0.211-1.563-1.647-2.659-3.211-2.449c-1.411,0.189-2.433,1.381-2.465,2.761L31.78,51.721
			l-6.886,0.344l-5.041,0.252l-0.852,0.043c-0.353,0.019-0.663,0.177-0.886,0.416c-0.075,0.08-0.123,0.18-0.176,0.277
			c-0.01,0.017-0.021,0.031-0.029,0.049c-0.093,0.19-0.156,0.397-0.145,0.624c0.015,0.314,0.153,0.589,0.35,0.805
			c0.24,0.261,0.572,0.434,0.949,0.434c0.022,0,0.044-0.002,0.065-0.002l6.649-0.334l-8.286,4.014
			c-0.647,0.313-0.917,1.093-0.604,1.74c0.225,0.464,0.689,0.734,1.173,0.734c0.191,0,0.384-0.042,0.566-0.131l13.811-6.69
			L53.826,53.229z"/>
	</g>
</g>
<g>
</g>
<g>
</g>
<g>
</g>
<g>
</g>
<g>
</g>
<g>
</g>
<g>
</g>
<g>
</g>
<g>
</g>
<g>
</g>
<g>
</g>
<g>
</g>
<g>
</g>
<g>
</g>
<g>
</g>
</svg>
