<?xml version="1.0" encoding="UTF-8" standalone="no"?>
<!-- Created with Inkscape (http://www.inkscape.org/) -->

<svg
   xmlns:dc="http://purl.org/dc/elements/1.1/"
   xmlns:cc="http://creativecommons.org/ns#"
   xmlns:rdf="http://www.w3.org/1999/02/22-rdf-syntax-ns#"
   xmlns:svg="http://www.w3.org/2000/svg"
   xmlns="http://www.w3.org/2000/svg"
   xmlns:sodipodi="http://sodipodi.sourceforge.net/DTD/sodipodi-0.dtd"
   xmlns:inkscape="http://www.inkscape.org/namespaces/inkscape"
   width="210mm"
   height="297mm"
   viewBox="0 0 210 297"
   version="1.1"
   id="svg8"
   inkscape:version="0.92.4 (5da689c313, 2019-01-14)"
   sodipodi:docname="drawing.svg">
  <defs
     id="defs2" />
  <sodipodi:namedview
     id="base"
     pagecolor="#ffffff"
     bordercolor="#666666"
     borderopacity="1.0"
     inkscape:pageopacity="0.0"
     inkscape:pageshadow="2"
     inkscape:zoom="0.7"
     inkscape:cx="409.24247"
     inkscape:cy="773.6918"
     inkscape:document-units="mm"
     inkscape:current-layer="layer1"
     showgrid="false"
     inkscape:window-width="1680"
     inkscape:window-height="971"
     inkscape:window-x="-9"
     inkscape:window-y="18"
     inkscape:window-maximized="1" />
  <metadata
     id="metadata5">
    <rdf:RDF>
      <cc:Work
         rdf:about="">
        <dc:format>image/svg+xml</dc:format>
        <dc:type
           rdf:resource="http://purl.org/dc/dcmitype/StillImage" />
        <dc:title></dc:title>
      </cc:Work>
    </rdf:RDF>
  </metadata>
  <g
     inkscape:label="Layer 1"
     inkscape:groupmode="layer"
     id="layer1">
    <path
       style="fill:#000000;stroke-width:0.26458332"
       d="m 102.38151,196.31717 c -2.555015,-0.95636 -4.164275,-2.63019 -4.758745,-4.94969 -0.36715,-1.43257 -0.40053,-1.45333 -2.75074,-1.71139 -11.81139,-1.29691 -25.39604,-6.91086 -35.68493,-14.74705 l -2.08285,-1.58633 -1.33712,0.6254 c -1.79629,0.84016 -4.59972,0.85984 -6.13885,0.0431 -1.47366,-0.78201 -2.76293,-2.11512 -3.40302,-3.51873 -0.78675,-1.72522 -0.75723,-4.26008 0.0702,-6.02912 l 0.63595,-1.35962 -1.59981,-2.06803 c -7.73828,-10.00305 -13.15504,-23.08047 -14.70886,-35.51084 l -0.31275,-2.50198 -1.37431,-0.40844 c -2.94361,-0.87482 -4.98747,-3.26036 -5.28544,-6.16903 -0.3552,-3.46721 1.70524,-6.43551 5.27502,-7.59925 l 1.37217,-0.44732 0.32858,-2.62142 c 0.41006,-3.2714 1.2085,-7.093176 2.22647,-10.657006 2.41523,-8.45561 7.13462,-17.800003 12.47912,-24.708676 l 1.59981,-2.068036 -0.63595,-1.359652 c -0.4887,-1.044834 -0.63355,-1.793025 -0.6256,-3.231348 0.0126,-2.28305 0.61225,-3.575693 2.38087,-5.132488 2.26524,-1.993942 5.15616,-2.395108 7.84522,-1.088662 l 1.22621,0.595738 1.67701,-1.323083 c 3.99507,-3.151928 10.24023,-6.924199 15.08977,-9.114693 5.81645,-2.627239 14.28428,-5.080502 19.95454,-5.781139 3.56542,-0.440556 3.39765,-0.361198 3.7658,-1.781318 1.00212,-3.86558 5.286495,-6.214583 9.053045,-4.963537 2.32018,0.770642 4.36318,3.01738 4.86723,5.352631 0.209,0.968306 0.18673,0.959894 3.68557,1.392224 7.69492,0.950811 17.88546,4.360257 25.11949,8.404216 2.97744,1.66444 6.9829,4.275212 9.50733,6.196899 l 2.11326,1.608688 1.21683,-0.591182 c 2.66466,-1.294591 5.57383,-0.89789 7.80263,1.063977 2.39338,2.106742 3.10252,5.421259 1.79107,8.371403 l -0.61222,1.377206 1.90541,2.535089 c 7.50627,9.98682 12.44221,21.884653 14.25726,34.366369 l 0.4571,3.14336 1.70561,0.61589 c 5.12024,1.84889 6.61838,8.00738 2.85133,11.72111 -1.01191,0.99758 -1.9765,1.54631 -3.48697,1.98363 l -1.06273,0.30769 -0.46324,3.16852 c -1.87935,12.85448 -6.57044,24.14284 -14.33012,34.48309 l -1.85732,2.475 0.55724,1.14696 c 1.34559,2.76964 0.92417,5.70644 -1.14989,8.01329 -2.17448,2.41854 -5.42738,3.05261 -8.35283,1.62816 l -1.21889,-0.5935 -2.11567,1.61368 c -9.95216,7.59082 -21.7862,12.61264 -34.07571,14.46018 -1.60073,0.24064 -3.16625,0.48762 -3.47893,0.54885 -0.42806,0.0838 -0.64372,0.42222 -0.8729,1.36976 -0.70002,2.89427 -3.36534,5.06642 -6.46001,5.26471 -0.97304,0.0623 -2.0071,-0.0395 -2.58076,-0.25426 z m 3.87427,-1.64204 c 1.3395,-0.27869 3.56521,-2.78522 3.56521,-4.01504 0,-0.44262 -0.37275,-0.47616 -5.29167,-0.47616 -4.12765,0 -5.291675,0.0746 -5.291675,0.33923 0,1.27292 2.186575,3.86105 3.499065,4.14167 1.73812,0.37161 1.78183,0.37174 3.51907,0.0103 z m 3.43292,-6.34491 c 10.27838,-0.52569 22.45461,-4.29912 31.71084,-9.82722 20.37494,-12.16854 33.23078,-32.32719 35.65352,-55.90666 0.43841,-4.26685 0.15733,-13.44917 -0.54704,-17.87091 -3.47109,-21.789889 -15.92555,-40.299671 -34.71371,-51.591405 -11.24403,-6.757697 -23.85187,-10.213361 -37.26299,-10.213361 -9.907345,0 -18.372665,1.622474 -27.252085,5.223169 -24.54824,9.954556 -41.66754,32.132328 -45.09573,58.420777 -0.53325,4.08912 -0.54595,13.16548 -0.0247,17.6074 2.79287,23.79745 17.0608,44.61582 38.37351,55.9909 6.93191,3.69972 15.44354,6.47155 23.54791,7.66844 3.1698,0.46813 9.270105,0.85916 11.377095,0.72927 0.7276,-0.0448 2.6326,-0.14853 4.23333,-0.2304 z M 98.840775,178.4937 c -4.76373,-0.41368 -11.19308,-1.86237 -15.84674,-3.57068 -8.4675,-3.10833 -15.70528,-7.65938 -22.20632,-13.96315 -9.9694,-9.66688 -16.00865,-21.14551 -18.45122,-35.06969 -0.72486,-4.1322 -0.98792,-12.60249 -0.523,-16.84056 0.82841,-7.55163 2.77256,-14.250006 6.09358,-20.994856 9.189,-18.662485 26.72136,-31.512397 47.36183,-34.712697 4.2766,-0.663085 14.253555,-0.66226 18.520835,0.0016 14.88946,2.31612 28.6889,9.94733 38.39917,21.235064 6.62596,7.70237 11.78119,18.004813 13.82641,27.631299 1.10823,5.21624 1.34951,7.7444 1.33831,14.02292 -0.009,4.93116 -0.11234,6.54345 -0.60319,9.39188 -1.84206,10.68972 -5.59359,19.41717 -12.14802,28.26081 -2.34384,3.16246 -8.29281,9.19666 -11.31164,11.47371 -10.02911,7.56479 -20.74814,11.84754 -32.63793,13.04038 -2.53417,0.25423 -9.34299,0.30844 -11.812075,0.094 z m 9.845195,-1.67457 c 13.45263,-1.02625 25.24922,-5.814 35.41193,-14.37226 14.60147,-12.29625 22.85804,-31.46579 21.55834,-50.05267 -0.76841,-10.98893 -3.57055,-20.023466 -8.86208,-28.572766 -7.81156,-12.620786 -19.34741,-21.77181 -33.20392,-26.339606 -7.37632,-2.431603 -15.82051,-3.51654 -22.98055,-2.952618 -15.852305,1.248524 -29.530215,7.589636 -40.140885,18.609405 -13.23406,13.744309 -19.29176,32.212205 -16.67574,50.838695 3.70339,26.3687 23.90017,47.42929 49.91306,52.04785 5.32847,0.94607 9.846825,1.18555 14.979845,0.79397 z m -8.25769,-2.28801 c -5.181345,-0.41974 -10.312555,-1.45232 -14.743895,-2.96698 -21.101,-7.21246 -36.10921,-25.22358 -39.53832,-47.44932 -0.65069,-4.2175 -0.65394,-13.01191 -0.006,-17.1169 1.23692,-7.840196 4.11921,-15.684656 8.13511,-22.140556 3.33263,-5.357493 8.38625,-11.147613 12.9482,-14.835234 4.53611,-3.666728 11.107,-7.461845 16.45604,-9.504431 11.46843,-4.379333 25.155555,-4.950774 36.920455,-1.541438 16.08607,4.661558 29.43534,15.81609 36.69977,30.666003 2.13463,4.36361 3.32892,7.60098 4.34348,11.773956 3.53365,14.53412 1.81451,28.79747 -5.03861,41.80417 -5.79919,11.00643 -14.95116,19.85383 -26.278,25.40348 -9.28042,4.547 -20.15826,6.69625 -29.89792,5.90725 z m 8.06979,-1.79086 c 11.17352,-0.55909 23.22894,-5.32763 32.32562,-12.78644 6.15407,-5.04603 12.31337,-12.94283 15.47424,-19.83942 3.44935,-7.52602 5.0539,-14.16191 5.30552,-21.94197 0.44599,-13.78959 -3.31985,-25.985146 -11.38094,-36.856859 -2.24837,-3.0323 -6.0886,-7.05337 -9.31298,-9.751555 -12.98599,-10.866731 -30.94022,-15.384711 -47.644815,-11.989281 -19.29878,3.922731 -35.04148,17.223586 -42.30136,35.739999 -1.24464,3.17448 -2.62833,8.561266 -3.19946,12.455736 -0.55977,3.81708 -0.40869,13.90939 0.26136,17.45825 2.29985,12.18096 7.22215,21.80586 15.47358,30.25651 3.56286,3.64887 5.95315,5.64126 9.80965,8.17669 6.46757,4.25205 14.35764,7.30323 22.09271,8.5435 2.67585,0.42906 8.440735,0.87323 9.657295,0.74407 0.3638,-0.0386 1.91161,-0.13277 3.43958,-0.20923 z M 68.193205,155.47941 c -0.29599,-0.29599 -0.19642,-1.8144 0.14111,-2.15194 0.24281,-0.2428 6.60753,-0.31664 27.05365,-0.31384 24.046025,0.003 33.344265,0.16556 39.251865,0.685 1.77655,0.15621 1.92591,0.21531 1.85208,0.73282 -0.0761,0.53362 -0.30737,0.57881 -4.44592,0.86895 -4.73249,0.33176 -63.535175,0.49662 -63.852785,0.17901 z m 69.607475,-0.39571 c -0.84836,-0.30985 -0.94526,-0.88029 -0.21584,-1.27067 1.03496,-0.5539 2.92781,-0.15371 2.92781,0.61899 0,0.35536 -1.10095,0.9754 -1.66609,0.93831 -0.17505,-0.0115 -0.6457,-0.14047 -1.04588,-0.28663 z m -69.607475,-3.83762 c -0.29599,-0.29599 -0.19642,-1.81441 0.14111,-2.15194 0.24281,-0.2428 6.6076,-0.31666 27.05365,-0.31391 24.100425,0.003 32.829865,0.15651 39.119185,0.68683 1.90625,0.16073 2.05817,0.21693 1.98438,0.734 -0.0756,0.52982 -0.3148,0.57642 -4.44554,0.866 -4.73249,0.33177 -63.535175,0.49663 -63.852785,0.17902 z m 69.739765,-0.3842 c -0.96248,-0.27791 -1.12261,-0.86769 -0.34813,-1.28218 1.04699,-0.56033 2.92781,-0.15204 2.92781,0.63557 0,0.26613 -1.508,1.08443 -1.69312,0.91876 -0.0147,-0.0131 -0.41362,-0.1356 -0.88656,-0.27215 z M 56.784685,135.98106 c -1.35276,-1.35276 -0.61226,-3.54017 1.68104,-4.96576 1.40425,-0.87293 1.40354,-0.87111 1.77277,-4.54122 0.14001,-1.39169 0.30503,-1.88434 0.73115,-2.18281 0.63582,-0.44534 2.28467,-0.52057 2.28467,-0.10423 0,0.37466 -1.25534,8.60271 -1.48646,9.74289 l -0.18162,0.896 1.4536,-0.12054 c 2.81204,-0.2332 4.44782,-2.41758 4.44782,-5.93952 0,-1.05336 -0.12664,-2.25037 -0.28142,-2.66003 -0.68027,-1.80047 -2.9121,-3.24675 -5.01025,-3.24675 -1.40523,0 -3.27903,0.78151 -3.68282,1.53599 -0.45155,0.84373 -0.34084,1.8532 0.24324,2.21796 0.63129,0.39425 0.71966,1.5261 0.11915,1.5261 -1.48741,0 -2.69968,-1.65587 -2.36007,-3.22367 0.61671,-2.8471 4.51414,-4.52062 8.28074,-3.55566 3.93532,1.00818 5.72472,3.3433 5.70186,7.44079 -0.0153,2.74343 -0.72893,4.45967 -2.52635,6.0757 -1.68405,1.5141 -2.66971,1.82325 -5.20251,1.63174 -2.42214,-0.18315 -2.21942,-0.18315 -3.93402,6e-5 -1.22588,0.13098 -1.45013,0.0733 -2.05052,-0.52704 z m 2.46437,-2.49857 c 0.42845,-1.35414 0.28296,-1.59694 -0.60738,-1.01357 -1.32214,0.86631 -1.56322,2.40957 -0.34948,2.23721 0.44175,-0.0627 0.68999,-0.38018 0.95686,-1.22364 z m 13.54652,2.66029 c -0.31435,-0.25466 -0.66544,-0.87974 -0.78022,-1.38906 -0.26511,-1.17648 0.42583,-7.4619 0.84993,-7.73164 0.53287,-0.33893 1.70929,-0.22489 2.1418,0.20763 0.37492,0.37491 0.46854,0.37491 1.00381,0 1.28262,-0.89838 3.11842,-0.20389 3.11842,1.17971 0,0.48993 -0.1859,0.86893 -0.51177,1.04333 -0.80378,0.43017 -1.34031,0.32798 -1.34031,-0.25528 0,-0.76506 -1.20621,-0.81525 -1.77822,-0.074 -0.26711,0.34615 -0.18391,0.57701 0.48075,1.33401 1.72025,1.95926 1.7801,4.35251 0.14202,5.6794 -0.74649,0.60468 -2.58307,0.60793 -3.32621,0.006 z m 2.88815,-1.37974 c 0.60737,-0.38408 0.49348,-2.15604 -0.19482,-3.03107 -0.65693,-0.83515 -0.72602,-0.74413 -0.96757,1.27455 -0.19912,1.66409 0.24566,2.33621 1.16239,1.75652 z m 5.42997,1.53861 c -0.86865,-0.52347 -1.17324,-1.09198 -1.18372,-2.20939 -0.0162,-1.72473 0.58756,-6.58759 0.86225,-6.94531 0.29466,-0.38372 1.47187,-0.43179 2.02364,-0.0826 0.3267,0.20673 0.33111,0.69908 0.0319,3.55221 -0.19107,1.82173 -0.27618,3.49784 -0.18912,3.72471 0.20032,0.52203 1.46403,0.53899 2.19155,0.0294 0.46237,-0.32386 0.60064,-0.87925 0.89458,-3.59327 0.30808,-2.84464 0.41627,-3.25515 0.95007,-3.60491 0.33133,-0.21709 0.93752,-0.35629 1.34711,-0.30934 0.84347,0.0967 0.82624,-0.24623 0.23412,4.65833 -0.36961,3.06151 -0.18011,3.8143 0.82479,3.2765 0.99081,-0.53027 1.42652,-1.61471 1.85594,-4.61921 0.23313,-1.63112 0.55459,-3.05314 0.71436,-3.16005 0.48861,-0.32696 1.66282,-0.22429 1.99363,0.17431 0.27004,0.32539 0.44466,0.32167 1.2797,-0.0272 1.23779,-0.51718 2.82485,-0.31386 3.65775,0.46861 l 0.63545,0.59698 0.68278,-0.64143 c 0.977795,-0.91859 3.212915,-0.91859 4.190705,0 0.78601,0.73841 0.86914,1.7602 0.39293,4.82943 -0.2435,1.56942 -0.22729,1.9306 0.10143,2.25932 0.56278,0.56278 1.37661,0.0534 2.06235,-1.29072 0.48904,-0.9586 0.59806,-1.03815 0.94595,-0.69026 0.3479,0.34789 0.32504,0.53826 -0.19836,1.65174 -1.02833,2.18766 -3.49119,2.99823 -4.88251,1.60691 -0.70519,-0.70518 -0.79239,-1.68724 -0.41658,-4.6915 0.1035,-0.82746 0.10117,-1.73972 -0.005,-2.02725 -0.3906,-1.0559 -1.98624,-0.93902 -2.590335,0.18974 -0.14198,0.26528 -0.38368,1.54248 -0.53711,2.8382 -0.55325,4.67206 -0.41637,4.34025 -1.79043,4.34025 h -1.20412 l 0.1683,-1.65365 c 0.55315,-5.43516 0.54771,-5.93999 -0.0676,-6.26928 -1.52673,-0.81708 -2.28373,0.44347 -2.86112,4.76432 l -0.42208,3.15861 h -1.28244 c -0.97315,0 -1.28244,-0.0974 -1.28244,-0.40367 0,-0.36184 -0.0809,-0.36184 -0.78061,0 -1.20436,0.62279 -2.57628,0.52015 -3.2862,-0.24586 l -0.60196,-0.64953 -0.56031,0.56031 c -0.6679,0.6679 -3.06796,0.93541 -3.89904,0.43459 z m 30.415055,-0.34528 c -1.32697,-1.32697 -0.56776,-3.52779 1.70415,-4.94009 l 1.28638,-0.79966 0.29669,-2.31343 c 0.16318,-1.27239 0.29668,-2.56161 0.29668,-2.86494 0,-0.38072 0.25804,-0.64146 0.83324,-0.84198 1.05213,-0.36677 2.07718,-0.37416 2.07718,-0.015 0,1.28035 -1.4723,9.62146 -1.85116,10.48748 -0.83783,1.91515 -3.32568,2.60506 -4.64316,1.28758 z m 2.0519,-1.40109 c 0.48589,-0.55953 0.82275,-2.44739 0.43668,-2.44739 -0.14756,0 -0.61633,0.34803 -1.04169,0.7734 -1.03239,1.03238 -1.01211,1.9758 0.0455,2.11613 0.0866,0.0115 0.33837,-0.18747 0.55952,-0.44214 z m 6.93586,1.43889 c -0.62663,-0.53901 -0.73422,-0.87487 -0.90596,-2.82817 -0.17211,-1.95751 -0.27625,-2.28141 -0.89118,-2.77174 -0.43125,-0.34387 -0.6963,-0.81718 -0.6963,-1.24343 0,-0.57541 0.14991,-0.71634 0.91458,-0.85979 1.95804,-0.36733 2.68823,-2.82913 1.24832,-4.20865 -1.71372,-1.64185 -5.01729,-1.59623 -6.70611,0.0926 -0.97825,0.97825 -0.96377,1.74959 0.0436,2.32282 0.71636,0.40763 1.05889,1.28968 0.65691,1.69165 -0.30115,0.30116 -1.503,-0.15304 -2.24907,-0.84998 -1.49141,-1.39318 -0.85437,-3.96528 1.2939,-5.22426 1.06154,-0.6221 1.5604,-0.7258 3.86818,-0.80411 2.47794,-0.0841 2.74367,-0.0416 4.10467,0.65709 2.42275,1.24365 3.15135,3.3851 1.94528,5.71739 -0.21484,0.41545 -0.79918,0.99642 -1.29852,1.29104 l -0.90791,0.53568 0.57386,0.46469 c 0.45565,0.36896 0.59423,0.81348 0.67268,2.15769 0.15544,2.66336 0.23976,2.88363 1.10392,2.88363 1.13177,0 1.49426,-0.62397 1.39216,-2.39643 -0.2088,-3.62465 2.62481,-6.2197 6.20518,-5.68279 4.01282,0.60176 4.81447,6.07308 1.28432,8.76566 -0.77838,0.59369 -1.32535,0.7697 -2.65518,0.85438 -1.42502,0.0907 -1.85571,0.006 -2.88726,-0.57098 l -1.21241,-0.67763 -0.95436,0.64764 c -1.27667,0.86638 -2.96009,0.88175 -3.94332,0.036 z m 10.18646,-1.67186 c 1.1876,-1.50979 1.29522,-3.91235 0.2356,-5.25943 -1.89681,-2.41141 -4.8116,2.33556 -3.12882,5.09553 0.69534,1.14043 2.06409,1.21797 2.89322,0.1639 z m 7.01844,1.92567 c -1.10439,-0.50067 -2.17824,-1.84419 -2.39422,-2.99548 -0.20881,-1.11305 0.22316,-3.23954 0.8535,-4.20156 0.63882,-0.97496 2.49327,-1.96532 4.01828,-2.14593 1.70334,-0.20174 3.47725,0.59277 4.30162,1.92663 0.47187,0.7635 0.55102,1.22543 0.46645,2.72215 -0.11555,2.04498 -0.74136,3.21792 -2.27909,4.27158 -1.1178,0.76593 -3.72068,0.98741 -4.96654,0.42261 z m 3.47056,-1.6822 c 1.66257,-1.66257 1.46298,-5.61534 -0.30596,-6.05931 -0.81938,-0.20565 -1.31852,0.0418 -2.04402,1.01357 -1.03468,1.38585 -1.04235,4.40784 -0.0131,5.16045 0.65168,0.47653 1.82899,0.41937 2.36307,-0.11471 z m 6.0192,1.35426 c -0.74063,-0.74062 -0.74364,-0.83356 -0.19045,-5.86267 l 0.1819,-1.65365 h -0.83144 c -0.74744,0 -0.83144,-0.0802 -0.83144,-0.79375 0,-0.72515 0.0772,-0.79375 0.89297,-0.79375 1.02369,0 1.06808,-0.11378 1.37779,-3.53148 l 0.18348,-2.02477 h 0.98944 c 1.42927,0 1.68096,0.44379 1.46206,2.57801 -0.10085,0.98319 -0.24677,2.05551 -0.32428,2.38293 -0.13335,0.56335 -0.0612,0.59531 1.34298,0.59531 1.47238,0 1.48389,0.006 1.48389,0.79375 v 0.79375 h -1.5875 c -0.87312,0 -1.5875,0.0736 -1.5875,0.16351 0,0.0899 0.37208,0.58729 0.82685,1.10524 1.85095,2.10811 2.07978,4.80161 0.52589,6.19002 -1.14681,1.02467 -2.92144,1.05075 -3.91464,0.0576 z m 3.62023,-2.74837 c 0,-0.98857 -0.15128,-1.47473 -0.63326,-2.03507 l -0.63326,-0.73621 -0.19435,2.07398 c -0.20883,2.22857 0.0253,2.76446 0.9836,2.25158 0.36047,-0.19292 0.47727,-0.57329 0.47727,-1.55428 z m -42.84572,-11.41161 c -0.009,-0.23427 -0.19581,-2.21121 -0.41463,-4.39318 -0.59528,-5.93593 -1.44168,-7.9382 -4.87742,-11.53807 l -1.97534,-2.0697 -0.998035,1.98353 c -0.54891,1.09094 -1.66117,3.68447 -2.47168,5.7634 -0.81052,2.07893 -1.5229,3.8291 -1.58306,3.88927 -0.15854,0.15854 0.11169,-1.63757 0.59052,-3.92492 0.7169,-3.42457 1.57821,-5.50914 4.809505,-11.640086 2.15303,-4.08511 3.19433,-6.34769 3.31653,-7.20637 0.10498,-0.73756 0.004,-2.47634 -0.24584,-4.23333 -0.47045,-3.30845 -1.1234,-6.446873 -1.1708,-5.627503 -0.0168,0.29104 -0.50684,1.387883 -1.08892,2.437433 -1.19392,2.15279 -4.337705,5.59147 -8.071205,8.82835 -2.79413,2.42246 -3.6368,3.75661 -5.07831,8.040216 -0.79056,2.34924 -0.87609,2.49954 -0.744,1.30733 0.24029,-2.16881 0.87765,-4.338126 1.87456,-6.380216 0.7485,-1.53324 1.66713,-2.67642 4.69238,-5.83946 4.10002,-4.28676 5.24751,-5.96739 6.407945,-9.385183 l 0.7515,-2.21337 -2.054295,-3.68922 c -1.12985,-2.02907 -3.06584,-5.237028 -4.3022,-7.128799 l -2.24793,-3.439583 3.75736,3.704166 c 2.41129,2.377149 4.685435,4.947976 6.347925,7.176066 2.07146,2.7762 3.11264,3.89591 5.19597,5.58793 1.43297,1.16382 4.21657,3.768653 6.18578,5.788513 3.11672,3.19691 3.72192,3.96373 4.67345,5.92145 1.65163,3.39818 1.62308,3.81341 -0.0915,1.33034 -0.85128,-1.23285 -2.26215,-3.00804 -3.13527,-3.94488 -1.41381,-1.51697 -9.94848,-8.824143 -10.11361,-8.659013 -0.0361,0.0361 0.1052,0.95839 0.31397,2.049553 0.20878,1.09116 0.46371,3.40458 0.56653,5.14094 l 0.18694,3.15702 1.70804,2.38125 c 3.92142,5.466996 5.52492,10.160886 5.73948,16.801036 0.0635,1.96453 0.0545,3.27422 -0.0199,2.91042 -0.0744,-0.3638 -0.42865,-2.14974 -0.78719,-3.96875 -1.04532,-5.30339 -2.2813,-8.82471 -4.05167,-11.543266 -0.84075,-1.29105 -1.99397,-2.86051 -2.56271,-3.4877 l -1.03407,-1.14034 -1.93925,3.57337 c -1.06658,1.965356 -2.00251,3.815326 -2.07985,4.111056 -0.10606,0.40558 0.37403,1.08775 1.95403,2.77649 2.18893,2.33958 3.28142,4.14921 3.94759,6.53891 0.49661,1.78144 0.79542,9.08922 0.40969,10.0194 -0.16658,0.4017 -0.28088,0.49418 -0.29107,0.2355 z m -53.264175,50.78965 c 0.47294,-0.14641 0.8599,-0.30534 0.8599,-0.35319 0,-0.16717 -7.44683,-7.59445 -7.52369,-7.50393 -0.76709,0.90349 -0.9179,3.73997 -0.27131,5.10258 0.60457,1.27403 2.01643,2.51669 3.32763,2.92884 1.16094,0.36491 1.99592,0.32457 3.60747,-0.1743 z m 103.665435,0.0318 c 1.81268,-0.68248 3.29238,-2.91588 3.29238,-4.96938 0,-1.1365 -0.41483,-2.96044 -0.6733,-2.96044 -0.23311,0 -7.52479,7.50051 -7.40659,7.61871 0.0736,0.0736 0.7013,0.28775 1.39488,0.47587 1.20712,0.32741 2.21546,0.27845 3.39263,-0.16476 z M 30.049105,115.70372 c 0,-4.91892 -0.0335,-5.29166 -0.47616,-5.29166 -1.1636,0 -3.33276,1.8248 -3.87323,3.25837 -0.36115,0.9579 -0.36083,3.10999 5.2e-4,4.06659 0.53304,1.41079 2.6959,3.25528 3.81963,3.25738 0.51156,0.001 0.52917,-0.17507 0.52917,-5.29068 z m 151.455775,4.27777 c 1.72699,-1.39778 2.00257,-1.98573 2.00257,-4.27261 0,-1.92128 -0.0598,-2.14699 -0.81831,-3.08945 -0.99328,-1.23415 -2.3704,-2.20737 -3.12342,-2.20737 -0.54673,0 -0.55619,0.0904 -0.55619,5.31151 v 5.31151 l 0.79268,-0.15854 c 0.43597,-0.0872 1.20218,-0.48997 1.70267,-0.89505 z M 51.858665,63.033072 c 2.04751,-2.047502 3.72274,-3.762261 3.72274,-3.810574 0,-0.241586 -1.80522,-0.668774 -2.82611,-0.668774 -3.10284,0 -5.37598,2.283706 -5.37598,5.400968 0,1.19683 0.39253,2.801115 0.68536,2.801115 0.0392,0 1.74649,-1.675231 3.79399,-3.722735 z m 109.565855,2.767044 c 1.15388,-3.496289 -1.46134,-7.246392 -5.05345,-7.246392 -1.10225,0 -2.89383,0.422473 -2.89383,0.682397 0,0.163592 7.25842,7.456868 7.45396,7.489759 0.0978,0.01646 0.31985,-0.400135 0.49332,-0.925764 z M 109.82103,40.866627 c -9e-5,-0.672817 -0.81452,-2.072934 -1.71153,-2.942357 -1.64237,-1.591841 -4.42751,-1.843461 -6.55304,-0.592025 -0.91202,0.536962 -2.318845,2.564209 -2.318735,3.34132 7e-5,0.538545 0.10982,0.549951 5.291715,0.549951 4.26381,0 5.29163,-0.06932 5.29159,-0.356889 z"
       id="path3758"
       inkscape:connector-curvature="0" />
  </g>
</svg>
